# Blender 4.5.0
# www.blender.org
mtllib viaduct_detector.mtl
o Cube.001
v 0.993750 0.000000 0.697672
v 0.993750 1.000000 0.697672
v 0.993750 1.000000 0.302327
v 0.993750 0.000000 0.302328
v 0.006250 1.000000 0.697672
v 0.006250 0.000000 0.697672
v 0.006250 0.000000 0.302328
v 0.006250 1.000000 0.302327
v 0.697672 1.000000 0.006250
v 0.697672 0.000000 0.006250
v 0.302328 1.000000 0.993750
v 0.697672 1.000000 0.993750
v 0.697672 0.000000 0.993750
v 0.302328 0.000000 0.993750
v 0.302328 0.000000 0.006250
v 0.302328 1.000000 0.006250
v 0.993750 0.333333 0.697672
v 0.993750 0.666667 0.697672
v 0.993750 0.666667 0.302327
v 0.993750 0.333333 0.302327
v 0.006250 0.666667 0.697672
v 0.006250 0.333333 0.697672
v 0.006250 0.333333 0.302327
v 0.006250 0.666667 0.302327
v 0.697672 0.666667 0.006250
v 0.697672 0.333333 0.006250
v 0.302328 0.666667 0.993750
v 0.302328 0.333333 0.993750
v 0.697672 0.666667 0.993750
v 0.697672 0.333333 0.993750
v 0.302328 0.333333 0.006250
v 0.302328 0.666667 0.006250
v 0.944375 0.350000 0.677905
v 0.944375 0.650000 0.677905
v 0.944375 0.650000 0.322094
v 0.944375 0.350000 0.322095
v 0.055625 0.650000 0.677905
v 0.055625 0.350000 0.677905
v 0.055625 0.350000 0.322095
v 0.055625 0.650000 0.322094
v 0.677905 0.650000 0.055625
v 0.677905 0.350000 0.055625
v 0.322095 0.650000 0.944375
v 0.322095 0.350000 0.944375
v 0.677905 0.650000 0.944375
v 0.677905 0.350000 0.944375
v 0.322095 0.350000 0.055625
v 0.322095 0.650000 0.055625
v 0.993750 0.000000 0.697672
v 0.993750 1.000000 0.697672
v 0.993750 1.000000 0.302327
v 0.993750 0.000000 0.302328
v 0.006250 1.000000 0.697672
v 0.006250 0.000000 0.697672
v 0.006250 0.000000 0.302328
v 0.006250 1.000000 0.302327
v 0.697672 1.000000 0.006250
v 0.697672 0.000000 0.006250
v 0.302328 1.000000 0.993750
v 0.697672 1.000000 0.993750
v 0.697672 0.000000 0.993750
v 0.302328 0.000000 0.993750
v 0.302328 0.000000 0.006250
v 0.302328 1.000000 0.006250
v 0.993750 0.333333 0.697672
v 0.993750 0.666667 0.697672
v 0.993750 0.666667 0.302327
v 0.993750 0.333333 0.302327
v 0.006250 0.666667 0.697672
v 0.006250 0.333333 0.697672
v 0.006250 0.333333 0.302327
v 0.006250 0.666667 0.302327
v 0.697672 0.666667 0.006250
v 0.697672 0.333333 0.006250
v 0.302328 0.666667 0.993750
v 0.302328 0.333333 0.993750
v 0.697672 0.666667 0.993750
v 0.697672 0.333333 0.993750
v 0.302328 0.333333 0.006250
v 0.302328 0.666667 0.006250
v 0.944375 0.350000 0.677905
v 0.944375 0.650000 0.677905
v 0.944375 0.650000 0.322094
v 0.944375 0.350000 0.322095
v 0.055625 0.650000 0.677905
v 0.055625 0.350000 0.677905
v 0.055625 0.350000 0.322095
v 0.055625 0.650000 0.322094
v 0.677905 0.650000 0.055625
v 0.677905 0.350000 0.055625
v 0.322095 0.650000 0.944375
v 0.322095 0.350000 0.944375
v 0.677905 0.650000 0.944375
v 0.677905 0.350000 0.944375
v 0.322095 0.350000 0.055625
v 0.322095 0.650000 0.055625
vn -1.0000 -0.0000 -0.0000
vn 1.0000 -0.0000 -0.0000
vn -0.7071 -0.0000 0.7071
vn -0.0000 -0.0000 -1.0000
vn -0.7071 -0.0000 -0.7071
vn 0.7071 -0.0000 0.7071
vn 0.7071 -0.0000 -0.7071
vn -0.0000 -0.0000 1.0000
vn -0.6352 -0.6182 0.4630
vn 0.6352 -0.6182 0.4630
vn 0.4537 -0.4776 0.7524
vn -0.4537 -0.4776 0.7524
vn -0.4630 -0.6182 0.6352
vn -0.4630 0.6182 0.6352
vn -0.7524 0.4776 0.4537
vn -0.7524 -0.4776 0.4537
vn -0.4630 -0.6182 -0.6352
vn -0.7524 -0.4776 -0.4537
vn -0.6352 0.6182 0.4630
vn -0.4537 0.4776 0.7524
vn 0.4537 0.4776 0.7524
vn -0.4537 0.4776 -0.7524
vn 0.4537 0.4776 -0.7524
vn 0.4537 -0.4776 -0.7524
vn -0.4537 -0.4776 -0.7524
vn 0.7524 0.4776 0.4537
vn 0.7524 -0.4776 0.4537
vn 0.7524 -0.4776 -0.4537
vn 0.7524 0.4776 -0.4537
vn -0.7524 0.4776 -0.4537
vn -0.4630 0.6182 -0.6352
vn 0.6352 0.6182 0.4630
vn -0.6352 0.6182 -0.4630
vn 0.6352 0.6182 -0.4630
vn 0.6352 -0.6182 -0.4630
vn -0.6352 -0.6182 -0.4630
vn 0.4630 0.6182 0.6352
vn 0.4630 -0.6182 0.6352
vn 0.4630 0.6182 -0.6352
vn 0.4630 -0.6182 -0.6352
vt 0.116646 0.001001
vt 0.001001 0.001001
vt 0.001001 0.116646
vt 0.116646 0.116646
vt 0.116646 0.118648
vt 0.001001 0.118648
vt 0.001001 0.234293
vt 0.116646 0.234293
vt 0.234293 0.001001
vt 0.118648 0.001001
vt 0.118648 0.116646
vt 0.234293 0.116646
vt 0.234293 0.118648
vt 0.118648 0.118648
vt 0.118648 0.234293
vt 0.234293 0.234293
vt 0.116646 0.236295
vt 0.001001 0.236295
vt 0.001001 0.351940
vt 0.116646 0.351940
vt 0.351940 0.001001
vt 0.236295 0.001001
vt 0.236295 0.116646
vt 0.351940 0.116646
vt 0.351940 0.118648
vt 0.236295 0.118648
vt 0.236295 0.234293
vt 0.351940 0.234293
vt 0.234293 0.236295
vt 0.118648 0.236295
vt 0.118648 0.351940
vt 0.234293 0.351940
vt 0.351940 0.236295
vt 0.236295 0.236295
vt 0.236295 0.351940
vt 0.351940 0.351940
vt 0.998999 0.822528
vt 0.998999 0.706883
vt 0.942177 0.706883
vt 0.942177 0.822528
vt 0.469587 0.001001
vt 0.353942 0.001001
vt 0.353942 0.116646
vt 0.469587 0.116646
vt 0.234293 0.353942
vt 0.118648 0.353942
vt 0.118648 0.469587
vt 0.234293 0.469587
vt 0.469587 0.118648
vt 0.353942 0.118648
vt 0.353942 0.234293
vt 0.469587 0.234293
vt 0.351940 0.353942
vt 0.236295 0.353942
vt 0.236295 0.469587
vt 0.351940 0.469587
vt 0.469587 0.236295
vt 0.353942 0.236295
vt 0.353942 0.351940
vt 0.469587 0.351940
vt 0.469587 0.353942
vt 0.353942 0.353942
vt 0.353942 0.469587
vt 0.469587 0.469587
vt 0.116646 0.471589
vt 0.001001 0.471589
vt 0.001001 0.587234
vt 0.116646 0.587234
vt 0.824530 0.998999
vt 0.940175 0.998999
vt 0.940175 0.942177
vt 0.824530 0.942177
vt 0.587234 0.118648
vt 0.471589 0.118648
vt 0.471589 0.234293
vt 0.587234 0.234293
vt 0.234293 0.471589
vt 0.118648 0.471589
vt 0.118648 0.587234
vt 0.234293 0.587234
vt 0.351940 0.471589
vt 0.236295 0.471589
vt 0.236295 0.587234
vt 0.351940 0.587234
vt 0.998999 0.704881
vt 0.998999 0.589236
vt 0.942177 0.589236
vt 0.942177 0.704881
vt 0.587234 0.353942
vt 0.471589 0.353942
vt 0.471589 0.469587
vt 0.587234 0.469587
vt 0.001001 0.998999
vt 0.116646 0.998999
vt 0.116646 0.942177
vt 0.001001 0.942177
vt 0.587234 0.471589
vt 0.471589 0.471589
vt 0.471589 0.587234
vt 0.587234 0.587234
vt 0.704881 0.001001
vt 0.589236 0.001001
vt 0.589236 0.116646
vt 0.704881 0.116646
vt 0.116646 0.589236
vt 0.001001 0.589236
vt 0.001001 0.704881
vt 0.116646 0.704881
vt 0.704881 0.118648
vt 0.589236 0.118648
vt 0.589236 0.234293
vt 0.704881 0.234293
vt 0.940175 0.704881
vt 0.940175 0.589236
vt 0.883354 0.589236
vt 0.883354 0.704881
vt 0.824530 0.940175
vt 0.940175 0.940175
vt 0.940175 0.883354
vt 0.824530 0.883354
vt 0.940175 0.587234
vt 0.940175 0.471589
vt 0.883354 0.471589
vt 0.883354 0.587234
vt 0.706883 0.940175
vt 0.822528 0.940175
vt 0.822528 0.883354
vt 0.706883 0.883354
vt 0.881352 0.822528
vt 0.881352 0.706883
vt 0.824530 0.706883
vt 0.824530 0.822528
vt 0.589236 0.940175
vt 0.704881 0.940175
vt 0.704881 0.883354
vt 0.589236 0.883354
vt 0.881352 0.704881
vt 0.881352 0.589236
vt 0.824530 0.589236
vt 0.824530 0.704881
vt 0.706883 0.881352
vt 0.822528 0.881352
vt 0.822528 0.824530
vt 0.706883 0.824530
vt 0.881352 0.587234
vt 0.881352 0.471589
vt 0.824530 0.471589
vt 0.824530 0.587234
vt 0.589236 0.881352
vt 0.704881 0.881352
vt 0.704881 0.824530
vt 0.589236 0.824530
vt 0.881352 0.469587
vt 0.881352 0.353942
vt 0.824530 0.353942
vt 0.824530 0.469587
vt 0.471589 0.881352
vt 0.587234 0.881352
vt 0.587234 0.824530
vt 0.471589 0.824530
vt 0.351940 0.706883
vt 0.236295 0.706883
vt 0.236295 0.822528
vt 0.351940 0.822528
vt 0.822528 0.236295
vt 0.706883 0.236295
vt 0.706883 0.351940
vt 0.822528 0.351940
vt 0.822528 0.353942
vt 0.706883 0.353942
vt 0.706883 0.469587
vt 0.822528 0.469587
vt 0.469587 0.706883
vt 0.353942 0.706883
vt 0.353942 0.822528
vt 0.469587 0.822528
vt 0.822528 0.471589
vt 0.706883 0.471589
vt 0.706883 0.587234
vt 0.822528 0.587234
vt 0.587234 0.706883
vt 0.471589 0.706883
vt 0.471589 0.822528
vt 0.587234 0.822528
vt 0.822528 0.589236
vt 0.706883 0.589236
vt 0.706883 0.704881
vt 0.822528 0.704881
vt 0.704881 0.706883
vt 0.589236 0.706883
vt 0.589236 0.822528
vt 0.704881 0.822528
vt 0.822528 0.706883
vt 0.706883 0.706883
vt 0.706883 0.822528
vt 0.822528 0.822528
vt 0.940175 0.001001
vt 0.824530 0.001001
vt 0.824530 0.116646
vt 0.940175 0.116646
vt 0.116646 0.824530
vt 0.001001 0.824530
vt 0.001001 0.940175
vt 0.116646 0.940175
vt 0.940175 0.118648
vt 0.824530 0.118648
vt 0.824530 0.234293
vt 0.940175 0.234293
vt 0.234293 0.824530
vt 0.118648 0.824530
vt 0.118648 0.940175
vt 0.234293 0.940175
vt 0.998999 0.824530
vt 0.942177 0.824530
vt 0.942177 0.940175
vt 0.998999 0.940175
vt 0.351940 0.824530
vt 0.236295 0.824530
vt 0.236295 0.940175
vt 0.351940 0.940175
vt 0.940175 0.236295
vt 0.824530 0.236295
vt 0.824530 0.351940
vt 0.940175 0.351940
vt 0.234293 0.706883
vt 0.118648 0.706883
vt 0.118648 0.822528
vt 0.234293 0.822528
vt 0.822528 0.118648
vt 0.706883 0.118648
vt 0.706883 0.234293
vt 0.822528 0.234293
vt 0.116646 0.706883
vt 0.001001 0.706883
vt 0.001001 0.822528
vt 0.116646 0.822528
vt 0.822528 0.001001
vt 0.706883 0.001001
vt 0.706883 0.116646
vt 0.822528 0.116646
vt 0.704881 0.589236
vt 0.589236 0.589236
vt 0.589236 0.704881
vt 0.704881 0.704881
vt 0.587234 0.940175
vt 0.587234 0.883354
vt 0.471589 0.883354
vt 0.471589 0.940175
vt 0.704881 0.471589
vt 0.589236 0.471589
vt 0.589236 0.587234
vt 0.704881 0.587234
vt 0.587234 0.589236
vt 0.471589 0.589236
vt 0.471589 0.704881
vt 0.587234 0.704881
vt 0.704881 0.353942
vt 0.589236 0.353942
vt 0.589236 0.469587
vt 0.704881 0.469587
vt 0.940175 0.353942
vt 0.883354 0.353942
vt 0.883354 0.469587
vt 0.940175 0.469587
vt 0.469587 0.589236
vt 0.353942 0.589236
vt 0.353942 0.704881
vt 0.469587 0.704881
vt 0.940175 0.881352
vt 0.940175 0.824530
vt 0.824530 0.824530
vt 0.824530 0.881352
vt 0.704881 0.236295
vt 0.589236 0.236295
vt 0.589236 0.351940
vt 0.704881 0.351940
vt 0.351940 0.589236
vt 0.236295 0.589236
vt 0.236295 0.704881
vt 0.351940 0.704881
vt 0.234293 0.589236
vt 0.118648 0.589236
vt 0.118648 0.704881
vt 0.234293 0.704881
vt 0.469587 0.471589
vt 0.353942 0.471589
vt 0.353942 0.587234
vt 0.469587 0.587234
vt 0.940175 0.706883
vt 0.883354 0.706883
vt 0.883354 0.822528
vt 0.940175 0.822528
vt 0.234293 0.998999
vt 0.234293 0.942177
vt 0.118648 0.942177
vt 0.118648 0.998999
vt 0.998999 0.001001
vt 0.942177 0.001001
vt 0.942177 0.116646
vt 0.998999 0.116646
vt 0.351940 0.998999
vt 0.351940 0.942177
vt 0.236295 0.942177
vt 0.236295 0.998999
vt 0.998999 0.118648
vt 0.942177 0.118648
vt 0.942177 0.234293
vt 0.998999 0.234293
vt 0.469587 0.998999
vt 0.469587 0.942177
vt 0.353942 0.942177
vt 0.353942 0.998999
vt 0.998999 0.236295
vt 0.942177 0.236295
vt 0.942177 0.351940
vt 0.998999 0.351940
vt 0.587234 0.998999
vt 0.587234 0.942177
vt 0.471589 0.942177
vt 0.471589 0.998999
vt 0.998999 0.353942
vt 0.942177 0.353942
vt 0.942177 0.469587
vt 0.998999 0.469587
vt 0.704881 0.998999
vt 0.704881 0.942177
vt 0.589236 0.942177
vt 0.589236 0.998999
vt 0.998999 0.471589
vt 0.942177 0.471589
vt 0.942177 0.587234
vt 0.998999 0.587234
vt 0.822528 0.998999
vt 0.822528 0.942177
vt 0.706883 0.942177
vt 0.706883 0.998999
vt 0.587234 0.236295
vt 0.471589 0.236295
vt 0.471589 0.351940
vt 0.587234 0.351940
vt 0.587234 0.001001
vt 0.471589 0.001001
vt 0.471589 0.116646
vt 0.587234 0.116646
vt 0.116646 0.353942
vt 0.001001 0.353942
vt 0.001001 0.469587
vt 0.116646 0.469587
vt 0.469587 0.824530
vt 0.353942 0.824530
vt 0.353942 0.940175
vt 0.469587 0.940175
s 1
usemtl m_f27d1936-c483-b96f-661c-1c1f9903ab0a
f 18/1/1 2/2/1 3/3/1 19/4/1
f 22/5/2 6/6/2 7/7/2 23/8/2
f 26/9/3 10/10/3 4/11/3 20/12/3
f 28/13/4 30/14/4 13/15/4 14/16/4
f 29/17/5 12/18/5 2/19/5 18/20/5
f 32/21/6 16/22/6 8/23/6 24/24/6
f 28/25/7 14/26/7 6/27/7 22/28/7
f 32/29/8 25/30/8 9/31/8 16/32/8
f 15/33/8 10/34/8 26/35/8 31/36/8
f 31/37/9 26/38/10 42/39/11 47/40/12
f 11/41/7 27/42/7 21/43/7 5/44/7
f 27/45/7 28/46/7 22/47/7 21/48/7
f 15/49/6 31/50/6 23/51/6 7/52/6
f 31/53/6 32/54/6 24/55/6 23/56/6
f 13/57/5 30/58/5 17/59/5 1/60/5
f 30/61/5 29/62/5 18/63/5 17/64/5
f 11/65/4 12/66/4 29/67/4 27/68/4
f 17/69/13 18/70/14 34/71/15 33/72/16
f 9/73/3 25/74/3 19/75/3 3/76/3
f 25/77/3 26/78/3 20/79/3 19/80/3
f 5/81/2 21/82/2 24/83/2 8/84/2
f 20/85/17 17/86/13 33/87/16 36/88/18
f 1/89/1 17/90/1 20/91/1 4/92/1
f 32/93/19 31/94/9 47/95/12 48/96/20
f 47/97/12 42/98/11 41/99/21 48/100/20
f 43/101/22 45/102/23 46/103/24 44/104/25
f 37/105/26 38/106/27 39/107/28 40/108/29
f 33/109/16 34/110/15 35/111/30 36/112/18
f 18/113/14 19/114/31 35/115/30 34/116/15
f 26/117/10 25/118/32 41/119/21 42/120/11
f 27/121/33 29/122/34 45/123/23 43/124/22
f 25/125/32 32/126/19 48/127/20 41/128/21
f 30/129/35 28/130/36 44/131/25 46/132/24
f 19/133/31 20/134/17 36/135/18 35/136/30
f 28/137/36 27/138/33 43/139/22 44/140/25
f 21/141/37 22/142/38 38/143/27 37/144/26
f 29/145/34 30/146/35 46/147/24 45/148/23
f 24/149/39 21/150/37 37/151/26 40/152/29
f 22/153/38 23/154/40 39/155/28 38/156/27
f 23/157/40 24/158/39 40/159/29 39/160/28
s 0
f 29/161/8 27/162/8 28/163/8 30/164/8
f 17/165/2 20/166/2 19/167/2 18/168/2
f 32/169/4 25/170/4 26/171/4 31/172/4
f 21/173/1 24/174/1 23/175/1 22/176/1
s 1
f 66/177/2 67/178/2 51/179/2 50/180/2
f 70/181/1 71/182/1 55/183/1 54/184/1
f 74/185/7 68/186/7 52/187/7 58/188/7
f 76/189/8 62/190/8 61/191/8 78/192/8
f 77/193/6 66/194/6 50/195/6 60/196/6
f 80/197/5 72/198/5 56/199/5 64/200/5
f 76/201/3 70/202/3 54/203/3 62/204/3
f 80/205/4 64/206/4 57/207/4 73/208/4
f 63/209/4 79/210/4 74/211/4 58/212/4
f 79/213/34 95/214/23 90/215/22 74/216/33
f 59/217/3 53/218/3 69/219/3 75/220/3
f 75/221/3 69/222/3 70/223/3 76/224/3
f 63/225/5 55/226/5 71/227/5 79/228/5
f 79/229/5 71/230/5 72/231/5 80/232/5
f 61/233/6 49/234/6 65/235/6 78/236/6
f 78/237/6 65/238/6 66/239/6 77/240/6
f 59/241/8 75/242/8 77/243/8 60/244/8
f 65/245/39 81/246/29 82/247/28 66/248/40
f 57/249/7 51/250/7 67/251/7 73/252/7
f 73/253/7 67/254/7 68/255/7 74/256/7
f 53/257/1 56/258/1 72/259/1 69/260/1
f 68/261/37 84/262/26 81/263/29 65/264/39
f 49/265/2 52/266/2 68/267/2 65/268/2
f 80/269/35 96/270/24 95/271/23 79/272/34
f 95/273/23 96/274/24 89/275/25 90/276/22
f 91/277/11 92/278/21 94/279/20 93/280/12
f 85/281/18 88/282/16 87/283/15 86/284/30
f 81/285/29 84/286/26 83/287/27 82/288/28
f 66/289/40 82/290/28 83/291/27 67/292/38
f 74/293/33 90/294/22 89/295/25 73/296/36
f 75/297/10 91/298/11 93/299/12 77/300/9
f 73/301/36 89/302/25 96/303/24 80/304/35
f 78/305/19 94/306/20 92/307/21 76/308/32
f 67/309/38 83/310/27 84/311/26 68/312/37
f 76/313/32 92/314/21 91/315/11 75/316/10
f 69/317/17 85/318/18 86/319/30 70/320/31
f 77/321/9 93/322/12 94/323/20 78/324/19
f 72/325/13 88/326/16 85/327/18 69/328/17
f 70/329/31 86/330/30 87/331/15 71/332/14
f 71/333/14 87/334/15 88/335/16 72/336/13
s 0
f 77/337/4 78/338/4 76/339/4 75/340/4
f 65/341/1 66/342/1 67/343/1 68/344/1
f 80/345/8 79/346/8 74/347/8 73/348/8
f 69/349/2 70/350/2 71/351/2 72/352/2
