# Blender 4.5.2 LTS
# www.blender.org
mtllib viaduct_detector.mtl
o Cube.001
v 0.993750 0.666667 0.697672
v 0.993750 1.000000 0.697672
v 0.993750 1.000000 0.302327
v 0.993750 0.666667 0.302327
v 0.006250 0.333333 0.697672
v 0.006250 0.000000 0.697672
v 0.006250 0.000000 0.302328
v 0.006250 0.333333 0.302327
v 0.697672 0.333333 0.006250
v 0.697672 0.000000 0.006250
v 0.993750 0.000000 0.302328
v 0.993750 0.333333 0.302327
v 0.302328 0.333333 0.993750
v 0.697672 0.333333 0.993750
v 0.697672 0.000000 0.993750
v 0.302328 0.000000 0.993750
v 0.697672 0.666667 0.993750
v 0.697672 1.000000 0.993750
v 0.302328 0.666667 0.006250
v 0.302328 1.000000 0.006250
v 0.006250 1.000000 0.302327
v 0.006250 0.666667 0.302327
v 0.697672 0.666667 0.006250
v 0.697672 1.000000 0.006250
v 0.302328 0.000000 0.006250
v 0.302328 0.333333 0.006250
v 0.677905 0.350000 0.055625
v 0.322095 0.350000 0.055625
v 0.302328 1.000000 0.993750
v 0.302328 0.666667 0.993750
v 0.006250 0.666667 0.697672
v 0.006250 1.000000 0.697672
v 0.993750 0.333333 0.697672
v 0.993750 0.000000 0.697672
v 0.944375 0.650000 0.677905
v 0.944375 0.350000 0.677905
v 0.944375 0.350000 0.322095
v 0.322095 0.650000 0.055625
v 0.677905 0.650000 0.055625
v 0.322095 0.650000 0.944375
v 0.677905 0.650000 0.944375
v 0.677905 0.350000 0.944375
v 0.322095 0.350000 0.944375
v 0.055625 0.650000 0.677905
v 0.055625 0.350000 0.677905
v 0.055625 0.350000 0.322095
v 0.055625 0.650000 0.322094
v 0.944375 0.650000 0.322094
v 0.993750 0.666667 0.697672
v 0.993750 1.000000 0.697672
v 0.993750 1.000000 0.302327
v 0.993750 0.666667 0.302327
v 0.006250 0.333333 0.697672
v 0.006250 0.000000 0.697672
v 0.006250 0.000000 0.302328
v 0.006250 0.333333 0.302327
v 0.697672 0.333333 0.006250
v 0.697672 0.000000 0.006250
v 0.993750 0.000000 0.302328
v 0.993750 0.333333 0.302327
v 0.302328 0.333333 0.993750
v 0.697672 0.333333 0.993750
v 0.697672 0.000000 0.993750
v 0.302328 0.000000 0.993750
v 0.697672 0.666667 0.993750
v 0.697672 1.000000 0.993750
v 0.302328 0.666667 0.006250
v 0.302328 1.000000 0.006250
v 0.006250 1.000000 0.302327
v 0.006250 0.666667 0.302327
v 0.697672 0.666667 0.006250
v 0.697672 1.000000 0.006250
v 0.302328 0.000000 0.006250
v 0.302328 0.333333 0.006250
v 0.677905 0.350000 0.055625
v 0.322095 0.350000 0.055625
v 0.302328 1.000000 0.993750
v 0.302328 0.666667 0.993750
v 0.006250 0.666667 0.697672
v 0.006250 1.000000 0.697672
v 0.993750 0.333333 0.697672
v 0.993750 0.000000 0.697672
v 0.944375 0.650000 0.677905
v 0.944375 0.350000 0.677905
v 0.944375 0.350000 0.322095
v 0.322095 0.650000 0.055625
v 0.677905 0.650000 0.055625
v 0.322095 0.650000 0.944375
v 0.677905 0.650000 0.944375
v 0.677905 0.350000 0.944375
v 0.322095 0.350000 0.944375
v 0.055625 0.650000 0.677905
v 0.055625 0.350000 0.677905
v 0.055625 0.350000 0.322095
v 0.055625 0.650000 0.322094
v 0.944375 0.650000 0.322094
vn 1.0000 -0.0000 -0.0000
vn -1.0000 -0.0000 -0.0000
vn 0.7071 -0.0000 -0.7071
vn -0.0000 -0.0000 1.0000
vn 0.7071 -0.0000 0.7071
vn -0.7071 -0.0000 -0.7071
vn -0.7071 -0.0000 0.7071
vn -0.0000 -0.0000 -1.0000
vn -0.0000 0.9475 -0.3198
vn 0.3717 -0.0000 -0.9284
vn 0.3198 0.9475 -0.0000
vn 0.9284 -0.0000 -0.3717
vn 0.3198 -0.9475 -0.0000
vn -0.9284 -0.0000 -0.3717
vn -0.0000 -0.9475 0.3198
vn -0.0000 -0.9475 -0.3198
vn -0.0000 0.9475 0.3198
vn 0.3717 -0.0000 0.9284
vn 0.9284 -0.0000 0.3717
vn -0.3717 -0.0000 -0.9284
vn -0.9284 -0.0000 0.3717
vn -0.3198 -0.9475 -0.0000
vn -0.3198 0.9475 -0.0000
vn -0.3717 -0.0000 0.9284
vt 0.687500 0.250000
vt 0.687500 0.750000
vt 0.312500 0.750000
vt 0.312500 0.250000
vt 0.687500 0.312500
vt 0.687500 0.687500
vt 0.312500 0.687500
vt 0.312500 0.312500
vt 0.750000 0.312500
vt 0.750000 0.687500
vt 0.250000 0.687500
vt 0.250000 0.312500
vt 0.875000 0.812500
vt 0.125000 0.812500
vt 0.125000 0.750000
vt 0.875000 0.750000
vt 0.812500 0.187500
vt 0.875000 0.187500
vt 0.812500 0.812500
vt 0.125000 0.187500
s 1
usemtl m_5769ad2c-5a55-c302-1e60-9554c8e79d61
f 1/1/1 4/2/1 3/3/1 2/4/1
f 5/1/2 8/2/2 7/3/2 6/4/2
f 9/5/3 12/6/3 11/7/3 10/8/3
f 13/9/4 16/10/4 15/11/4 14/12/4
f 17/5/5 1/6/5 2/7/5 18/8/5
f 19/5/6 22/6/6 21/7/6 20/8/6
f 13/5/7 5/6/7 6/7/7 16/8/7
f 19/9/8 20/10/8 24/11/8 23/12/8
f 25/9/8 26/10/8 9/11/8 10/12/8
f 29/5/7 32/6/7 31/7/7 30/8/7
f 30/9/7 31/10/7 5/11/7 13/12/7
f 25/5/6 7/6/6 8/7/6 26/8/6
f 26/9/6 8/10/6 22/11/6 19/12/6
f 15/5/5 34/6/5 33/7/5 14/8/5
f 14/9/5 33/10/5 1/11/5 17/12/5
f 29/9/4 30/10/4 17/11/4 18/12/4
f 24/5/3 3/6/3 4/7/3 23/8/3
f 23/9/3 4/10/3 12/11/3 9/12/3
f 32/1/2 21/2/2 22/3/2 31/4/2
f 34/1/1 11/2/1 12/3/1 33/4/1
f 49/1/2 50/4/2 51/3/2 52/2/2
f 53/1/1 54/4/1 55/3/1 56/2/1
f 57/5/7 58/8/7 59/7/7 60/6/7
f 61/9/8 62/12/8 63/11/8 64/10/8
f 65/5/6 66/8/6 50/7/6 49/6/6
f 67/5/5 68/8/5 69/7/5 70/6/5
f 61/5/3 64/8/3 54/7/3 53/6/3
f 67/9/4 71/12/4 72/11/4 68/10/4
f 73/9/4 58/12/4 57/11/4 74/10/4
f 77/5/3 78/8/3 79/7/3 80/6/3
f 78/9/3 61/12/3 53/11/3 79/10/3
f 73/5/5 74/8/5 56/7/5 55/6/5
f 74/9/5 67/12/5 70/11/5 56/10/5
f 63/5/6 62/8/6 81/7/6 82/6/6
f 62/9/6 65/12/6 49/11/6 81/10/6
f 77/9/8 66/12/8 65/11/8 78/10/8
f 72/5/7 71/8/7 52/7/7 51/6/7
f 71/9/7 57/12/7 60/11/7 52/10/7
f 80/1/1 79/4/1 70/3/1 69/2/1
f 82/1/2 81/4/2 60/3/2 59/2/2
usemtl m_4bd97fc6-93df-cea6-df10-4f8ff6e17a1d
f 26/13/9 28/14/9 27/15/9 9/16/9
f 33/17/10 36/18/10 35/13/10 1/19/10
f 12/14/11 37/15/11 36/16/11 33/13/11
f 19/19/12 38/17/12 28/18/12 26/13/12
f 28/18/8 38/13/8 39/14/8 27/20/8
f 40/18/4 43/13/4 42/14/4 41/20/4
f 44/13/2 47/14/2 46/20/2 45/18/2
f 36/13/1 37/14/1 48/20/1 35/18/1
f 1/14/13 35/15/13 48/16/13 4/13/13
f 9/19/14 27/17/14 39/18/14 23/13/14
f 30/14/15 40/15/15 41/16/15 17/13/15
f 23/14/16 39/15/16 38/16/16 19/13/16
f 14/14/17 42/15/17 43/16/17 13/13/17
f 4/17/18 48/18/18 37/13/18 12/19/18
f 13/13/19 43/19/19 40/17/19 30/18/19
f 31/19/20 44/17/20 45/18/20 5/13/20
f 17/13/21 41/19/21 42/17/21 14/18/21
f 22/14/22 47/15/22 44/16/22 31/13/22
f 5/14/23 45/15/23 46/16/23 8/13/23
f 8/19/24 46/17/24 47/18/24 22/13/24
f 17/18/8 14/13/8 13/14/8 30/20/8
f 33/18/2 1/13/2 4/14/2 12/20/2
f 19/18/4 26/13/4 9/14/4 23/20/4
f 31/18/1 5/13/1 8/14/1 22/20/1
f 74/13/15 57/16/15 75/15/15 76/14/15
f 81/17/24 49/19/24 83/13/24 84/18/24
f 60/14/22 81/13/22 84/16/22 85/15/22
f 67/19/21 74/13/21 76/18/21 86/17/21
f 76/18/4 75/20/4 87/14/4 86/13/4
f 88/18/8 89/20/8 90/14/8 91/13/8
f 92/13/1 93/18/1 94/20/1 95/14/1
f 84/13/2 83/18/2 96/20/2 85/14/2
f 49/14/23 52/13/23 96/16/23 83/15/23
f 57/19/19 71/13/19 87/18/19 75/17/19
f 78/14/9 65/13/9 89/16/9 88/15/9
f 71/14/17 67/13/17 86/16/17 87/15/17
f 62/14/16 61/13/16 91/16/16 90/15/16
f 52/17/20 60/19/20 85/13/20 96/18/20
f 61/13/14 78/18/14 88/17/14 91/19/14
f 79/19/18 53/13/18 93/18/18 92/17/18
f 65/13/12 62/18/12 90/17/12 89/19/12
f 70/14/11 79/13/11 92/16/11 95/15/11
f 53/14/13 56/13/13 94/16/13 93/15/13
f 56/19/10 70/13/10 95/18/10 94/17/10
f 65/18/4 78/20/4 61/14/4 62/13/4
f 81/18/1 60/20/1 52/14/1 49/13/1
f 67/18/8 71/20/8 57/14/8 74/13/8
f 79/18/2 70/20/2 56/14/2 53/13/2
