# Blender 4.4.3
# www.blender.org
mtllib viaduct_connected.mtl
o Cube
v 0.700175 -0.000175 -0.000000
v 1.000000 -0.000175 0.299825
v 0.000000 -0.000175 0.299825
v 0.299825 -0.000175 -0.000000
v 1.000000 -0.000175 0.700175
v 0.700175 -0.000175 1.000000
v 0.299825 -0.000175 1.000000
v 0.000000 -0.000175 0.700175
v 0.700175 0.700175 -0.000000
v 0.700175 1.000000 0.299825
v 1.000000 0.700175 0.299825
v 0.299825 1.000000 0.299825
v 0.299825 0.700175 -0.000000
v 0.000000 0.700175 0.299825
v 0.700175 1.000000 0.700175
v 0.700175 0.700175 1.000000
v 1.000000 0.700175 0.700175
v 0.000000 0.700175 0.700175
v 0.299825 0.700175 1.000000
v 0.299825 1.000000 0.700175
vn -1.0000 -0.0000 -0.0000
vn -0.0000 1.0000 -0.0000
vn -0.0000 -0.0000 1.0000
vn 1.0000 -0.0000 -0.0000
vn 0.5774 0.5774 -0.5774
vn -0.5774 0.5774 -0.5774
vn 0.5774 0.5774 0.5774
vn -0.5774 0.5774 0.5774
vn -0.7071 0.7071 -0.0000
vn -0.7071 -0.0000 -0.7071
vn -0.0000 0.7071 0.7071
vn -0.0000 0.7071 -0.7071
vn 0.7071 -0.0000 0.7071
vn -0.7071 -0.0000 0.7071
vn 0.7071 0.7071 -0.0000
vn 0.7071 -0.0000 -0.7071
vn -0.0000 -0.0000 -1.0000
vt 0.199956 0.574956
vt 0.300044 0.574956
vt 0.300044 0.675044
vt 0.199956 0.675044
vt 0.449956 0.074956
vt 0.550044 0.074956
vt 0.550044 0.175044
vt 0.449956 0.175044
vt 0.449956 0.824956
vt 0.550044 0.824956
vt 0.550044 0.925044
vt 0.449956 0.925044
vt 0.699956 0.574956
vt 0.800044 0.574956
vt 0.800044 0.675044
vt 0.699956 0.675044
vt 0.550044 0.250000
vt 0.625000 0.175044
vt 0.125000 0.574956
vt 0.199956 0.500000
vt 0.550044 0.000000
vt 0.625000 0.074956
vt 0.199956 0.750000
vt 0.125000 0.675044
vt 0.300044 0.500000
vt 0.449956 0.000000
vt 0.550044 0.324956
vt 0.449956 0.324956
vt 0.625000 0.824956
vt 0.625000 0.925044
vt 0.300044 0.750000
vt 0.625000 0.324956
vt 0.625000 0.425044
vt 0.550044 0.425044
vt 0.449956 0.425044
s 1
usemtl Material
f 14/1/1 3/2/1 8/3/1 18/4/1
f 20/5/2 15/6/2 10/7/2 12/8/2
f 7/9/3 6/10/3 16/11/3 19/12/3
f 2/13/4 11/14/4 17/15/4 5/16/4
f 9/17/5 10/7/5 11/18/5
f 12/19/6 13/20/6 14/1/6
f 15/6/7 16/21/7 17/22/7
f 18/4/8 19/23/8 20/24/8
f 14/1/9 18/4/9 20/24/9 12/19/9
f 3/2/10 14/1/10 13/20/10 4/25/10
f 19/26/11 16/21/11 15/6/11 20/5/11
f 9/27/12 13/28/12 12/8/12 10/7/12
f 5/29/13 17/30/13 16/11/13 6/10/13
f 18/4/14 8/3/14 7/31/14 19/23/14
f 17/22/15 11/18/15 10/7/15 15/6/15
f 11/32/16 2/33/16 1/34/16 9/27/16
f 13/28/17 9/27/17 1/34/17 4/35/17
