# Blender 4.5.2 LTS
# www.blender.org
mtllib viaduct_third_side.mtl
o Cube.006
v 0.697684 0.697672 0.995651
v 0.302355 0.697672 0.998138
v 0.302355 0.302328 0.998138
v 0.697685 0.302328 0.995651
v 0.302328 0.993750 -0.000000
v 0.302328 1.000000 0.006250
v 0.006250 1.000000 0.302327
v 0.006250 0.697672 -0.000000
v 1.000000 0.697672 0.993750
v 1.000000 0.302328 0.993750
v 0.006250 0.302328 0.697672
v 0.006250 0.697672 0.697672
v 0.697672 1.000000 0.993750
v 0.993750 1.000000 0.697672
v 1.000000 0.993750 0.697672
v 0.006250 0.302328 -0.000000
v 0.006250 0.302328 0.302327
v 0.006250 0.697672 0.302327
v 0.006250 1.000000 0.697672
v 0.302328 1.000000 0.993750
v 0.993750 0.302328 -0.000000
v 0.697674 0.006250 -0.000000
v 1.000000 0.006250 0.302328
v 1.000000 0.302328 0.006250
v 0.302328 0.006250 0.302327
v 0.302328 0.006250 0.697672
v 0.302328 0.006250 -0.000000
v 0.697673 0.006250 0.697672
v 1.000000 0.006250 0.697672
v 0.697673 0.006250 0.302327
v 1.000000 0.697672 0.006250
v 0.993750 0.697672 -0.000000
v 0.697672 0.993750 -0.000000
v 0.697672 1.000000 0.006250
v 0.993750 1.000000 0.302327
v 0.999912 0.993750 0.302328
v 0.697684 0.697672 0.995651
v 0.302355 0.697672 0.998138
v 0.302355 0.302328 0.998138
v 0.697685 0.302328 0.995651
v 0.302328 0.993750 -0.000000
v 0.302328 1.000000 0.006250
v 0.006250 1.000000 0.302327
v 0.006250 0.697672 -0.000000
v 1.000000 0.697672 0.993750
v 1.000000 0.302328 0.993750
v 0.006250 0.302328 0.697672
v 0.006250 0.697672 0.697672
v 0.697672 1.000000 0.993750
v 0.993750 1.000000 0.697672
v 1.000000 0.993750 0.697672
v 0.006250 0.302328 -0.000000
v 0.006250 0.302328 0.302327
v 0.006250 0.697672 0.302327
v 0.006250 1.000000 0.697672
v 0.302328 1.000000 0.993750
v 0.993750 0.302328 -0.000000
v 0.697674 0.006250 -0.000000
v 1.000000 0.006250 0.302328
v 1.000000 0.302328 0.006250
v 0.302328 0.006250 0.302327
v 0.302328 0.006250 0.697672
v 0.302328 0.006250 -0.000000
v 0.697673 0.006250 0.697672
v 1.000000 0.006250 0.697672
v 0.697673 0.006250 0.302327
v 1.000000 0.697672 0.006250
v 0.993750 0.697672 -0.000000
v 0.697672 0.993750 -0.000000
v 0.697672 1.000000 0.006250
v 0.993750 1.000000 0.302327
v 0.999912 0.993750 0.302328
vn 0.0063 -0.0000 1.0000
vn 0.5773 -0.5773 0.5774
vn -0.7123 -0.0000 0.7019
vn -0.5774 -0.5774 -0.5774
vn -1.0000 -0.0000 -0.0000
vn 1.0000 -0.0000 -0.0000
vn 0.7071 -0.0102 -0.7071
vn -0.5774 0.5773 0.5773
vn -0.0063 -0.0063 -1.0000
vn -0.0000 -0.0145 -0.9999
vn -0.7071 -0.7071 -0.0000
vn -0.5801 -0.5801 0.5717
vn 0.0048 -0.7080 0.7062
vn 0.0047 -0.7081 0.7061
vn 0.0045 -0.7093 0.7048
vn 0.0044 -0.7093 0.7048
vn 0.0044 -0.7071 0.7071
vn -0.0000 -1.0000 -0.0000
vn -0.0000 1.0000 -0.0000
vn -0.7071 -0.0000 0.7071
vn -0.0000 -0.7071 0.7071
vn -0.5801 -0.5719 0.5800
vn -0.5774 -0.5774 0.5772
vn -0.0063 -0.0000 -1.0000
vn -0.5773 0.5773 -0.5774
vn 0.7123 -0.0000 -0.7019
vn 0.5774 0.5774 0.5774
vn -0.7071 0.0102 0.7071
vn 0.5774 -0.5773 -0.5773
vn 0.0063 0.0063 1.0000
vn -0.0000 0.0145 0.9999
vn 0.7071 0.7071 -0.0000
vn 0.5801 0.5801 -0.5717
vn -0.0048 0.7080 -0.7062
vn -0.0045 0.7093 -0.7049
vn -0.0047 0.7081 -0.7061
vn -0.0044 0.7071 -0.7071
vn -0.0045 0.7071 -0.7071
vn 0.7071 -0.0000 -0.7071
vn -0.0000 0.7071 -0.7071
vn 0.5801 0.5720 -0.5799
vn 0.5801 0.5719 -0.5800
vn 0.5774 0.5774 -0.5772
vt 0.750000 0.750000
vt 0.250000 0.750000
vt 0.250000 0.250000
vt 0.750000 0.250000
vt 0.250000 0.937500
vt 0.062500 0.937500
vt 0.062500 0.750000
vt 0.687500 0.750000
vt 0.312500 0.750000
vt 0.312500 0.250000
vt 0.687500 0.250000
vt 0.250000 0.312500
vt 0.250000 0.687500
vt 0.750000 0.687500
vt 0.750000 0.312500
vt 0.875000 0.812500
vt 0.750000 0.937500
vt 0.875000 0.937500
vt 0.937500 0.250000
vt 0.750000 0.062500
vt 0.687500 0.312500
vt 0.687500 0.687500
vt 0.312500 0.687500
vt 0.312500 0.312500
vt 0.187500 0.125000
vt 0.062500 0.125000
vt 0.062500 0.250000
vt 0.750000 0.812500
vt 0.250000 0.625000
vt 0.750000 0.625000
vt 0.062500 0.804844
vt 0.427494 0.804844
vt 0.423774 0.874656
vt 0.066273 0.875000
vt 0.250000 0.812500
vt 0.187500 0.875000
vt 0.250000 0.875000
s 1
usemtl m_4dfefdf2-f47a-3f9a-7614-8db2051adf00.003
f 1/1/1 2/2/1 3/3/1 4/4/1
f 5/5/2 6/5/2 7/6/2 8/7/2
f 9/8/1 1/9/1 4/10/1 10/11/1
f 11/12/3 3/13/3 2/14/3 12/15/3
f 9/16/4 13/17/4 14/18/4 15/18/4
f 8/15/5 16/12/5 17/13/5 18/14/5
f 18/4/5 17/3/5 11/2/5 12/1/5
f 7/19/6 18/4/6 8/20/6
f 19/21/7 20/22/7 2/23/7 12/24/7
f 19/8/6 12/9/6 18/10/6 7/11/6
f 21/25/8 22/26/8 23/27/8 24/25/8
f 13/17/9 9/16/9 1/28/9
f 2/12/10 20/13/10 13/14/10 1/15/10
f 11/9/11 17/10/11 25/11/11 26/8/11
f 27/21/11 25/22/11 17/23/11 16/24/11
f 11/7/12 26/2/12 3/5/12
f 28/15/13 4/14/14 3/13/15 26/12/16
f 29/21/17 10/22/17 4/23/14 28/24/13
f 28/1/18 26/2/18 25/3/18 30/4/18
f 29/8/18 28/9/18 30/10/18 23/11/18
f 23/19/19 22/20/19 30/4/19
f 27/12/19 25/13/19 30/14/19 22/15/19
f 21/13/20 24/29/20 31/30/20 32/14/20
f 5/14/21 33/13/21 34/29/21 6/30/21
f 15/30/11 14/14/11 35/13/11 36/29/11
f 33/31/22 36/32/22 35/33/22 34/34/22
f 31/35/23 36/7/23 33/36/23 32/37/23
f 37/1/24 40/4/24 39/3/24 38/2/24
f 41/5/25 44/7/25 43/6/25 42/5/25
f 45/8/24 46/11/24 40/10/24 37/9/24
f 47/12/26 48/15/26 38/14/26 39/13/26
f 45/16/27 51/18/27 50/18/27 49/17/27
f 44/15/6 54/14/6 53/13/6 52/12/6
f 54/4/6 48/1/6 47/2/6 53/3/6
f 43/19/5 44/20/5 54/4/5
f 55/21/28 48/24/28 38/23/28 56/22/28
f 55/8/5 43/11/5 54/10/5 48/9/5
f 57/25/29 60/25/29 59/27/29 58/26/29
f 49/17/30 37/28/30 45/16/30
f 38/12/31 37/15/31 49/14/31 56/13/31
f 47/9/32 62/8/32 61/11/32 53/10/32
f 63/21/32 52/24/32 53/23/32 61/22/32
f 47/7/33 39/5/33 62/2/33
f 64/15/34 62/12/35 39/13/35 40/14/36
f 65/21/37 64/24/34 40/23/36 46/22/38
f 64/1/19 66/4/19 61/3/19 62/2/19
f 65/8/19 59/11/19 66/10/19 64/9/19
f 59/19/18 66/4/18 58/20/18
f 63/12/18 58/15/18 66/14/18 61/13/18
f 57/13/39 68/14/39 67/30/39 60/29/39
f 41/14/40 42/30/40 70/29/40 69/13/40
f 51/30/32 72/29/32 71/13/32 50/14/32
f 69/31/41 70/34/42 71/33/41 72/32/42
f 67/35/43 68/37/43 69/36/43 72/7/43
