# Blender 4.4.3
# www.blender.org
mtllib viaduct_connected_corner.mtl
o Cube
v 0.300047 0.699954 0.000000
v 0.000000 0.699953 0.000046
v 0.000000 0.699953 0.999954
v 0.300047 0.699954 1.000000
v 0.699954 0.699954 0.000000
v 1.000000 0.699954 0.300046
v 0.699954 0.699954 1.000000
v 1.000000 0.699954 0.699954
v 0.300047 0.300046 0.000000
v 0.300047 0.000000 0.300046
v 0.000047 0.000000 0.300046
v 0.300047 0.300046 1.000000
v 0.000047 0.300046 0.000000
v 0.300047 0.000000 0.699954
v 0.699954 0.300046 0.000000
v 1.000000 0.300047 0.300046
v 0.699954 0.000000 0.300046
v 0.699954 0.300046 1.000000
v 0.699954 0.000000 0.699954
v 1.000000 0.300047 0.699954
v 0.300047 0.999954 0.000000
v 0.000000 0.999954 0.300046
v 0.000000 0.999954 0.699954
v 0.300047 0.999954 1.000000
v 0.699954 0.999954 0.000000
v 1.000000 0.999954 0.300046
v 0.699954 0.999954 1.000000
v 1.000000 0.999954 0.699954
v 0.000047 0.300046 1.000000
v 0.000047 0.000000 0.699954
vn -0.0000 -0.7071 -0.7071
vn -0.0000 -1.0000 -0.0000
vn -0.0000 -0.0000 1.0000
vn 1.0000 -0.0000 -0.0000
vn 0.5774 -0.5773 -0.5773
vn 0.5774 -0.5773 0.5773
vn 0.7071 -0.0000 -0.7071
vn 0.7071 -0.0000 0.7071
vn 0.7071 -0.7071 -0.0000
vn -0.0000 -0.7071 0.7071
vn -0.0000 -0.0000 -1.0000
vn -0.0001 0.0001 -1.0000
vn -0.4083 0.4082 -0.8165
vn -0.4083 0.4082 0.8165
vn -0.0001 0.0001 1.0000
vt 0.299988 0.674988
vt 0.450012 0.674988
vt 0.450012 0.575012
vt 0.549988 0.575012
vt 0.549988 0.674988
vt 0.700012 0.575012
vt 0.799988 0.575012
vt 0.799988 0.674988
vt 0.700012 0.674988
vt 0.450012 0.325012
vt 0.549988 0.325012
vt 0.549988 0.424988
vt 0.450012 0.424988
vt 0.299988 0.575012
vt 0.299988 0.500000
vt 0.375000 0.575012
vt 0.625000 0.424988
vt 0.549988 0.500000
vt 0.200012 0.575012
vt 0.200012 0.500000
vt 0.625000 0.325012
vt 0.200012 0.674988
vt 0.200012 0.750000
vt 0.549988 0.924988
vt 0.625000 0.924988
s 1
usemtl Material
f 9/1/1 10/2/1 11/2/1 13/1/1
f 17/3/2 19/4/2 14/5/2 10/2/2
f 18/6/3 7/7/3 4/8/3 12/9/3
f 6/10/4 8/11/4 20/12/4 16/13/4
f 10/2/2 14/5/2 30/5/2 11/2/2
f 15/14/5 16/15/5 17/16/5
f 18/17/6 19/18/6 20/12/6
f 15/14/7 5/19/7 6/20/7 16/15/7
f 7/21/8 18/17/8 20/12/8 8/11/8
f 19/4/9 17/3/9 16/13/9 20/12/9
f 9/1/1 15/14/1 17/3/1 10/2/1
f 18/6/10 12/9/10 14/5/10 19/4/10
f 14/5/10 12/9/10 29/9/10 30/5/10
f 5/19/11 15/14/11 9/1/11 1/22/11
f 1/22/11 9/1/11 13/1/12 2/23/12
f 6/20/7 5/19/7 25/19/7 26/20/7
f 1/22/13 2/23/13 22/23/13 21/22/13
f 4/8/3 7/7/3 27/7/3 24/8/3
f 5/19/11 1/22/11 21/22/11 25/19/11
f 7/21/8 8/11/8 28/11/8 27/21/8
f 3/24/14 4/25/14 24/25/14 23/24/14
f 8/11/4 6/10/4 26/10/4 28/11/4
f 3/24/15 29/9/15 12/9/3 4/8/3
l 22 23
