# Made in Blockbench 4.12.5
mtllib viaduct_connected_long.mtl

o Cube.001
v 0.99375 0 0.6976723086734694
v 0.99375 1 0.6976723086734694
v 0.99375 1 0.3023266836734694
v 0.99375 0 0.3023276913265306
v 0.006249999999999978 0 0.6976723086734694
v 0.3023276913265306 0 0.99375
v 0.3023276913265306 1 0.99375
v 0.006249999999999978 1 0.6976723086734694
v 0.006249999999999978 1 0.6976723086734694
v 0.006249999999999978 0 0.6976723086734694
v 0.006249999999999978 0 0.3023276913265306
v 0.006249999999999978 1 0.3023266836734694
v 0.6976723086734694 1 0.006249999999999978
v 0.6976723086734694 0 0.006249999999999978
v 0.3023276913265306 1 0.99375
v 0.6976723086734694 1 0.99375
v 0.6976723086734694 0 0.99375
v 0.3023276913265306 0 0.99375
v 0.6976723086734694 0 0.99375
v 0.6976723086734694 1 0.99375
v 0.006249999999999978 0 0.3023276913265306
v 0.006249999999999978 1 0.3023266836734694
v 0.99375 1 0.3023266836734694
v 0.99375 1 0.6976723086734694
v 0.99375 0 0.6976723086734694
v 0.99375 0 0.3023276913265306
v 0.3023276913265306 1 0.006249999999999978
v 0.3023276913265306 0 0.006249999999999978
v 0.6976723086734694 0 0.006249999999999978
v 0.6976723086734694 1 0.006249999999999978
v 0.3023276913265306 0 0.006249999999999978
v 0.3023276913265306 1 0.006249999999999978
vt 0.0625 0.75
vt 0.9375 0.75
vt 0.9375 0.25
vt 0.0625 0.25
vt 0.6875 0.0625
vt 0.3125 0.0625
vt 0.3125 0.9375
vt 0.6875 0.9375
vt 0.0625 0.75
vt 0.9375 0.75
vt 0.9375 0.25
vt 0.0625 0.25
vt 0.3125 0.0625
vt 0.3125 0.9375
vt 0.6875 0.9375
vt 0.6875 0.0625
vt 0.9375 0.75
vt 0.9375 0.25
vt 0.0625 0.25
vt 0.0625 0.75
vt 0.3125 0.0625
vt 0.3125 0.9375
vt 0.6875 0.9375
vt 0.6875 0.0625
vt 0.9375 0.75
vt 0.0625 0.75
vt 0.0625 0.25
vt 0.9375 0.25
vt 0.9375 0.25
vt 0.9375 0.75
vt 0.0625 0.75
vt 0.0625 0.25
vt 0.9375 0.25
vt 0.9375 0.75
vt 0.0625 0.75
vt 0.0625 0.25
vt 0.6875 0.9375
vt 0.3125 0.9375
vt 0.3125 0.0625
vt 0.6875 0.0625
vt 0.6875 0.9375
vt 0.3125 0.9375
vt 0.3125 0.0625
vt 0.6875 0.0625
vt 0.6875 0.9375
vt 0.3125 0.9375
vt 0.3125 0.0625
vt 0.6875 0.0625
vt 0.9375 0.75
vt 0.0625 0.75
vt 0.0625 0.25
vt 0.9375 0.25
vt 0.3125 0.9375
vt 0.3125 0.0625
vt 0.6875 0.0625
vt 0.6875 0.9375
vt 0.3125 0.9375
vt 0.3125 0.0625
vt 0.6875 0.0625
vt 0.6875 0.9375
vt 0.9375 0.75
vt 0.9375 0.25
vt 0.0625 0.25
vt 0.0625 0.75
vn -1 0 0
vn -0.7071067811865476 0 0.7071067811865476
vn 1 0 0
vn -0.7071067811865476 0 0.7071067811865476
vn 0 0 -1
vn -0.7071067811865476 0 -0.7071067811865476
vn 0 0 1
vn -1 0 0
vn 1 0 0
vn -0.7071055779210664 0 -0.707107984449981
vn 0.7071067811865476 0 -0.7071067811865476
vn 0.7071067811865476 0 0.7071067811865476
vn 0 0 -1
vn 0.7071055779210664 0 0.707107984449981
vn 0.7071067811865476 0 -0.7071067811865476
vn 0 0 1
usemtl m_f27d1936-c483-b96f-661c-1c1f9903ab0a
f 1/1/1 2/2/1 3/3/1 4/4/1
f 5/5/2 6/6/2 7/7/2 8/8/2
f 9/9/3 10/10/3 11/11/3 12/12/3
f 13/13/4 14/14/4 4/15/4 3/16/4
f 15/17/5 16/18/5 17/19/5 18/20/5
f 17/21/6 16/22/6 2/23/6 1/24/6
f 19/25/7 20/26/7 7/27/7 6/28/7
f 21/29/8 5/30/8 8/31/8 22/32/8
f 23/33/9 24/34/9 25/35/9 26/36/9
f 22/37/10 27/38/10 28/39/10 21/40/10
f 26/41/11 29/42/11 30/43/11 23/44/11
f 24/45/12 20/46/12 19/47/12 25/48/12
f 30/49/13 29/50/13 28/51/13 27/52/13
f 31/53/14 32/54/14 12/55/14 11/56/14
f 15/57/15 18/58/15 10/59/15 9/60/15
f 31/61/16 14/62/16 13/63/16 32/64/16