# Blender 4.4.3
# www.blender.org
mtllib viaduct_connected_side.mtl
o Cube
v 0.000000 0.700175 0.700175
v 0.299825 0.700175 1.000000
v 0.000000 1.000175 0.299825
v 0.299825 0.700175 0.000000
v 0.000000 0.700175 0.299825
v 0.299825 1.000175 -0.000000
v 0.299825 1.000175 1.000000
v 0.700175 0.700175 1.000000
v 1.000000 0.700175 1.000175
v 0.000000 1.000175 0.700175
v 1.000000 0.700175 -0.000175
v 0.700175 0.700175 0.000000
v 0.000000 0.299825 0.700175
v 0.299825 -0.000175 0.000000
v 0.299825 0.299825 1.000000
v 0.000000 -0.000175 0.299825
v 0.000000 0.299825 0.299825
v 0.299825 0.299825 0.000000
v 0.299825 -0.000175 1.000000
v 1.000000 0.299825 1.000175
v 0.700175 0.299825 1.000000
v 0.700175 0.299825 0.000000
v 1.000000 0.299825 -0.000175
v 0.000000 -0.000175 0.700175
v 0.700175 1.000175 1.000000
v 1.000000 1.000175 0.700175
v 1.000000 1.000175 0.299825
v 0.700175 1.000175 -0.000000
v 1.000000 -0.000175 0.700175
v 0.700175 -0.000175 1.000000
v 0.700175 -0.000175 0.000000
v 1.000000 -0.000175 0.299825
vn -0.0000 -0.0000 -1.0000
vn -0.0002 -0.0000 -1.0000
vn 0.4080 -0.4083 -0.8166
vn -0.0000 -0.0000 1.0000
vn -0.0002 -0.0000 1.0000
vn 0.4080 0.4083 -0.8166
vn 0.4080 0.4083 0.8166
vn -0.7071 -0.0000 0.7071
vn 0.4080 -0.4083 0.8166
vn -0.7071 -0.0000 -0.7071
vn -1.0000 -0.0000 -0.0000
vn -0.0006 -0.0000 1.0000
vn -0.0006 -0.0000 -1.0000
vt 0.199956 0.574956
vt 0.300044 0.574956
vt 0.300044 0.675044
vt 0.199956 0.675044
vt 0.199956 0.750000
vt 0.699956 0.574956
vt 0.800044 0.574956
vt 0.800044 0.675044
vt 0.699956 0.675044
vt 0.300044 0.750000
vt 0.625000 0.824956
vt 0.550044 0.824956
vt 0.550044 0.425044
vt 0.625000 0.425044
vt 0.550044 0.925044
vt 0.625000 0.925044
vt 0.199956 0.500000
vt 0.550044 0.324956
vt 0.449956 0.324956
vt 0.300044 0.500000
vt 0.449956 0.425044
vt 0.625000 0.324956
s 1
usemtl Material
f 18/1/1 4/2/1 12/3/2 22/4/2
f 22/4/3 23/5/3 32/5/3 31/4/3
f 2/6/4 15/7/4 21/8/5 8/9/5
f 11/10/6 12/3/6 28/3/6 27/10/6
f 8/11/7 9/12/7 26/12/7 25/11/7
f 1/13/8 2/14/8 7/14/8 10/13/8
f 2/6/4 8/9/5 25/9/4 7/6/4
f 20/15/9 21/16/9 30/16/9 29/15/9
f 17/17/10 18/1/10 14/1/10 16/17/10
f 13/18/11 17/19/11 16/19/11 24/18/11
f 18/1/1 22/4/2 31/4/1 14/1/1
f 4/2/10 18/1/10 17/17/10 5/20/10
f 5/21/11 1/13/11 10/13/11 3/21/11
f 15/22/8 13/18/8 24/18/8 19/22/8
f 8/11/5 21/16/5 20/15/12 9/12/12
f 12/3/2 4/2/1 6/2/1 28/3/1
f 22/4/2 12/3/2 11/10/13 23/5/13
f 21/8/5 15/7/4 19/7/4 30/8/4
f 15/22/8 2/14/8 1/13/8 13/18/8
f 4/2/10 5/20/10 3/20/10 6/2/10
f 17/19/11 13/18/11 1/13/11 5/21/11
l 29 32
l 26 27
