# Made in Blockbench 4.12.5
mtllib viaduct.mtl

o Cube
v 0.7001744897959183 1 0.29982448979591836
v 0.7001744897959183 0.700175 0
v 0.29982551020408166 0.700175 0
v 0.29982551020408166 1 0.29982448979591836
v 1 0.700175 0.29982448979591836
v 1 0.700175 0.7001744897959183
v 1 0.299825 0.7001744897959183
v 1 0.299825 0.29982448979591836
v 0.29982551020408166 0 0.29982551020408166
v 0.29982551020408166 0.299825 0
v 0.7001744897959183 0.299825 0
v 0.7001744897959183 0 0.29982551020408166
v 0.7001744897959183 0 0.7001744897959183
v 0.7001744897959183 0.299825 1
v 0.29982551020408166 0.299825 1
v 0.29982551020408166 0 0.7001744897959183
v 0.7001744897959183 0.700175 1
v 0.7001744897959183 1 0.7001744897959183
v 0 0.700175 0.29982448979591836
v 0 0.299825 0.29982448979591836
v 0 0.700175 0.7001744897959183
v 0.29982551020408166 0.700175 1
v 0.29982551020408166 1 0.7001744897959183
v 0 0.299825 0.7001744897959183
vt 0.6875 0.75
vt 0.3125 0.75
vt 0.3125 0.25
vt 0.6875 0.25
vt 0.75 0.25
vt 0.75 0.75
vt 0.25 0.75
vt 0.25 0.25
vt 0.25 0.6875
vt 0.25 0.3125
vt 0.75 0.3125
vt 0.75 0.6875
vt 0.75 0.3125
vt 0.75 0.6875
vt 0.25 0.6875
vt 0.25 0.3125
vt 0.6875 0.75
vt 0.3125 0.7499999999999999
vt 0.3125 0.25
vt 0.6875 0.25
vt 0.9375 0.9375
vt 0.75 0.9375
vt 0.9375 0.75
vt 0.0625 0.9375
vt 0.0625 0.75
vt 0.25 0.9375
vt 0.9375 0.25
vt 0.75 0.0625
vt 0.9375 0.0625
vt 0.25 0.0625
vt 0.0625 0.25
vt 0.0625 0.0625
vt 0.0625 0.25
vt 0.0625 0.0625
vt 0.25 0.0625
vt 0.75 0.9375
vt 0.9375 0.75
vt 0.9375 0.9375
vt 0.0625 0.9375
vt 0.0625 0.75
vt 0.25 0.9375
vt 0.9375 0.0625
vt 0.9375 0.25
vt 0.75 0.0625
vt 0.3125 0.25
vt 0.6875 0.25
vt 0.6875 0.75
vt 0.3125 0.75
vt 0.75 0.25
vt 0.75 0.75
vt 0.25 0.75
vt 0.25 0.25
vt 0.75 0.25
vt 0.75 0.75
vt 0.25 0.75
vt 0.25 0.25
vt 0.6875 0.75
vt 0.3125 0.75
vt 0.3125 0.25
vt 0.6875 0.25
vt 0.25 0.6875
vt 0.25 0.3125
vt 0.75 0.3125
vt 0.75 0.6875
vt 0.75 0.3125
vt 0.75 0.6875
vt 0.25 0.6875
vt 0.25 0.3125
vt 0.75 0.25
vt 0.75 0.75
vt 0.25 0.75
vt 0.25 0.25
vt 0.75 0.25
vt 0.75 0.75
vt 0.25 0.75
vt 0.25 0.25
vt 0.25 0.6875
vt 0.25 0.3125
vt 0.75 0.3125
vt 0.75 0.6875
vt 0.6875 0.75
vt 0.3125 0.75
vt 0.3125 0.25
vt 0.6875 0.25
vt 0.6875 0.75
vt 0.3125 0.75
vt 0.3125 0.25
vt 0.6875 0.25
vt 0.75 0.25
vt 0.75 0.75
vt 0.25 0.75
vt 0.25 0.25
vt 0.3125 0.25
vt 0.6875 0.25
vt 0.6875 0.75
vt 0.3125 0.75
vn 0 0.707106179553551 -0.7071073828190322
vn 1 0 0
vn 0 -0.7071073828180083 -0.7071061795545748
vn 0 -0.7071073828180083 0.7071061795545748
vn 0.7071067811865476 0 0.7071067811865476
vn 0.5773492867283104 0.5773502691879538 -0.5773512516509411
vn 0.5773486317541002 -0.5773515791363745 -0.5773505966745018
vn 0.5773499417025206 0.5773509241632787 0.5773499417025206
vn 0.5773499417025206 -0.5773509241632787 0.5773499417025206
vn -0.5773492867283104 0.5773502691879538 -0.5773512516509411
vn -0.5773486317541002 -0.5773515791363744 -0.5773505966745017
vn -0.5773499417025206 0.5773509241632787 0.5773499417025206
vn -0.5773499417025206 -0.5773509241632787 0.5773499417025206
vn 0.7071061795545748 -0.7071073828180083 0
vn 0 1 0
vn 0 0 1
vn -0.7071061795545748 0.7071073828180083 0
vn 0.7071055779210664 0 -0.7071079844499811
vn -0.7071067811865476 0 0.7071067811865476
vn -1 0 0
vn 0 0 -1
vn -0.7071055779210664 0 -0.7071079844499811
vn -0.7071061795545748 -0.7071073828180083 0
vn 0 0.7071073828180083 0.7071061795545748
vn 0 -1 0
vn 0.7071061795545748 0.7071073828180083 0
usemtl Material
f 1/1/1 2/2/1 3/3/1 4/4/1
f 5/5/2 6/6/2 7/7/2 8/8/2
f 9/9/3 10/10/3 11/11/3 12/12/3
f 13/13/4 14/14/4 15/15/4 16/16/4
f 14/17/5 7/18/5 6/19/5 17/20/5
f 2/21/6 1/22/6 5/23/6
f 12/24/7 11/25/7 8/26/7
f 6/27/8 18/28/8 17/29/8
f 7/30/9 14/31/9 13/32/9
f 3/33/10 19/34/10 4/35/10
f 20/36/11 10/37/11 9/38/11
f 21/39/12 22/40/12 23/41/12
f 16/42/13 15/43/13 24/44/13
f 12/45/14 8/46/14 7/47/14 13/48/14
f 4/49/15 23/50/15 18/51/15 1/52/15
f 17/53/16 22/54/16 15/55/16 14/56/16
f 4/57/17 19/58/17 21/59/17 23/60/17
f 8/61/18 11/62/18 2/63/18 5/64/18
f 22/65/19 21/66/19 24/67/19 15/68/19
f 21/69/20 19/70/20 20/71/20 24/72/20
f 3/73/21 2/74/21 11/75/21 10/76/21
f 10/77/22 20/78/22 19/79/22 3/80/22
f 16/81/23 24/82/23 20/83/23 9/84/23
f 23/85/24 22/86/24 17/87/24 18/88/24
f 12/89/25 13/90/25 16/91/25 9/92/25
f 18/93/26 6/94/26 5/95/26 1/96/26