# Blender 4.5.2 LTS
# www.blender.org
mtllib viaduct_fith_side.mtl
o Cube.006
v -0.000000 0.993750 0.302327
v 0.006250 1.000000 0.302328
v 0.006250 1.000000 0.697672
v -0.000000 0.993750 0.697672
v 0.697672 1.000000 0.006250
v 0.697672 0.993750 0.000000
v 1.000000 0.993750 0.302328
v 0.993750 1.000000 0.302328
v 0.302328 0.993750 0.000000
v 0.302327 1.000000 0.006250
v 0.000000 0.302328 0.006250
v 0.006250 0.302328 0.000000
v 0.006250 0.697672 0.000000
v 0.000000 0.697672 0.006250
v 0.000000 0.006250 0.302326
v 0.302328 0.006250 0.000000
v 0.006250 0.000000 0.302328
v 0.000000 0.006250 0.697672
v 0.006250 0.000000 0.697672
v 1.000000 0.697672 0.993750
v 0.697672 1.000000 0.993750
v 0.993750 1.000000 0.697672
v 1.000000 0.993750 0.697672
v 0.006250 1.000000 0.302328
v 0.006250 1.000000 0.697672
v 0.302327 1.000000 0.993750
v -0.000000 0.697672 0.993750
v 0.993750 0.697672 0.000000
v 0.993750 0.302328 0.000000
v 1.000000 0.302328 0.006250
v 1.000000 0.697672 0.006250
v 0.302328 0.000000 0.006250
v 0.993750 0.000000 0.302328
v 0.993750 0.000000 0.697672
v 1.000000 0.006250 0.697672
v 1.000000 0.006250 0.302328
v 0.697672 0.000000 0.993750
v 1.000000 0.302328 0.993750
v -0.000000 0.302328 0.993750
v 0.302328 0.000000 0.993750
v 0.697672 0.000000 0.006250
v 0.697672 0.006250 0.000000
v 0.697672 0.697672 0.993750
v 0.697672 0.302328 0.993750
v 0.302327 0.302328 0.993750
v 0.302327 0.697672 0.993750
v -0.000000 0.993750 0.302327
v 0.006250 1.000000 0.302328
v 0.006250 1.000000 0.697672
v -0.000000 0.993750 0.697672
v 0.697672 1.000000 0.006250
v 0.697672 0.993750 0.000000
v 1.000000 0.993750 0.302328
v 0.993750 1.000000 0.302328
v 0.302328 0.993750 0.000000
v 0.302327 1.000000 0.006250
v 0.000000 0.302328 0.006250
v 0.006250 0.302328 0.000000
v 0.006250 0.697672 0.000000
v 0.000000 0.697672 0.006250
v 0.000000 0.006250 0.302326
v 0.302328 0.006250 0.000000
v 0.006250 0.000000 0.302328
v 0.000000 0.006250 0.697672
v 0.006250 0.000000 0.697672
v 1.000000 0.697672 0.993750
v 0.697672 1.000000 0.993750
v 0.993750 1.000000 0.697672
v 1.000000 0.993750 0.697672
v 0.006250 1.000000 0.302328
v 0.006250 1.000000 0.697672
v 0.302327 1.000000 0.993750
v -0.000000 0.697672 0.993750
v 0.993750 0.697672 0.000000
v 0.993750 0.302328 0.000000
v 1.000000 0.302328 0.006250
v 1.000000 0.697672 0.006250
v 0.302328 0.000000 0.006250
v 0.993750 0.000000 0.302328
v 0.993750 0.000000 0.697672
v 1.000000 0.006250 0.697672
v 1.000000 0.006250 0.302328
v 0.697672 0.000000 0.993750
v 1.000000 0.302328 0.993750
v -0.000000 0.302328 0.993750
v 0.302328 0.000000 0.993750
v 0.697672 0.000000 0.006250
v 0.697672 0.006250 0.000000
v 0.697672 0.697672 0.993750
v 0.697672 0.302328 0.993750
v 0.302327 0.302328 0.993750
v 0.302327 0.697672 0.993750
vn 0.7071 -0.7071 -0.0000
vn -0.5774 -0.5773 0.5774
vn -0.0000 -0.7071 0.7071
vn 0.7071 -0.0000 0.7071
vn 0.5773 0.5773 0.5774
vn 0.7071 0.7071 -0.0000
vn -0.5774 -0.5774 -0.5774
vn 0.5774 -0.5773 0.5774
vn -0.7071 -0.7071 -0.0000
vn 0.5774 -0.5773 -0.5773
vn -0.7071 -0.0000 0.7071
vn 0.5773 0.5774 0.5773
vn -0.7071 0.7071 -0.0000
vn -0.5774 0.5774 -0.5774
vn 0.5774 0.5774 -0.5774
vn -0.0000 0.7071 0.7071
vn -0.0000 -0.0000 1.0000
vn -0.0000 -0.0000 -1.0000
vn -0.5774 0.5773 0.5774
vn -0.5774 0.5774 0.5773
vn 0.5773 -0.5773 0.5774
vn -0.5774 -0.5774 0.5774
vn 0.5774 0.5773 -0.5774
vn -0.0000 0.7071 -0.7071
vn -0.7071 -0.0000 -0.7071
vn -0.5773 -0.5773 -0.5774
vn 0.5774 0.5774 0.5774
vn -0.5774 0.5773 -0.5774
vn -0.5774 0.5773 0.5773
vn 0.7071 -0.0000 -0.7071
vn -0.5773 -0.5774 -0.5773
vn 0.5774 -0.5774 0.5774
vn -0.0000 -0.7071 -0.7071
vn 0.5774 -0.5773 -0.5774
vn 0.5774 -0.5774 -0.5774
vn -0.5773 0.5773 -0.5774
vt 0.750000 0.625000
vt 0.750000 0.687500
vt 0.250000 0.687500
vt 0.250000 0.625000
vt 0.062500 0.125000
vt 0.062500 0.062500
vt 0.500000 0.062500
vt 0.500000 0.125000
vt 0.312500 0.250000
vt 0.375000 0.250000
vt 0.375000 0.750000
vt 0.312500 0.750000
vt 0.937500 0.812500
vt 0.875000 0.937500
vt 0.750000 0.812500
vt 0.687500 0.750000
vt 0.937500 0.750000
vt 0.812500 0.875000
vt 0.562500 0.062500
vt 0.562500 0.125000
vt 0.750000 0.875000
vt 0.937500 0.937500
vt 0.875000 0.875000
vt 0.687500 0.875000
vt 0.812500 0.750000
vt 0.875000 0.812500
vt 0.750000 0.937500
vt 0.250000 0.312500
vt 0.750000 0.312500
vt 0.750000 0.750000
vt 0.250000 0.750000
vt 0.250000 0.250000
vt 0.750000 0.250000
vt 0.937500 0.875000
vt 0.687500 0.812500
vt 0.687500 0.250000
vt 0.875000 0.750000
vt 0.625000 0.937500
s 1
usemtl m_4b802387-6640-77dc-b3ec-692fe302de88.001
f 1/1/1 2/2/1 3/3/1 4/4/1
f 5/5/2 6/6/2 7/7/2 8/8/2
f 9/4/3 6/1/3 5/2/3 10/3/3
f 11/9/4 12/10/4 13/11/4 14/12/4
f 11/13/5 15/14/5 16/15/5 12/13/5
f 17/1/6 15/2/6 18/3/6 19/4/6
f 20/16/7 21/17/7 22/18/7 23/18/7
f 24/5/8 1/6/8 9/19/8 10/20/8
f 22/2/9 8/3/9 7/4/9 23/1/9
f 4/21/10 25/21/10 26/17/10 27/22/10
f 28/12/11 29/9/11 30/10/11 31/11/11
f 17/6/12 32/19/12 16/20/12 15/5/12
f 33/4/13 34/1/13 35/2/13 36/3/13
f 37/23/14 38/24/14 35/25/14 34/25/14
f 18/26/15 39/22/15 40/27/15 19/26/15
f 41/1/16 42/2/16 16/3/16 32/4/16
f 43/2/17 44/3/17 38/28/17 20/29/17
f 27/2/17 39/3/17 45/28/17 46/29/17
f 46/30/17 45/31/17 44/32/17 43/33/17
f 20/17/18 43/34/18 21/21/18
f 26/35/18 46/26/18 27/14/18
f 40/26/18 39/27/18 45/15/18
f 38/25/18 37/34/18 44/18/18
f 37/36/18 40/16/18 45/12/18 44/9/18
f 21/9/18 43/36/18 46/16/18 26/12/18
f 42/5/19 41/6/19 33/7/19 36/8/19
f 30/16/20 29/16/20 42/37/20 36/18/20
f 14/21/21 13/21/21 9/17/21 1/22/21
f 28/38/22 31/38/22 7/15/22 6/14/22
f 47/1/13 50/4/13 49/3/13 48/2/13
f 51/5/23 54/8/23 53/7/23 52/6/23
f 55/4/24 56/3/24 51/2/24 52/1/24
f 57/9/25 60/12/25 59/11/25 58/10/25
f 57/13/26 58/13/26 62/15/26 61/14/26
f 63/1/9 65/4/9 64/3/9 61/2/9
f 66/16/27 69/18/27 68/18/27 67/17/27
f 70/5/28 56/20/28 55/19/28 47/6/28
f 68/2/6 69/1/6 53/4/6 54/3/6
f 50/21/29 73/22/29 72/17/29 71/21/29
f 74/12/30 77/11/30 76/10/30 75/9/30
f 63/6/31 61/5/31 62/20/31 78/19/31
f 79/4/1 82/3/1 81/2/1 80/1/1
f 83/23/32 80/25/32 81/25/32 84/24/32
f 64/26/22 65/26/22 86/27/22 85/22/22
f 87/1/33 78/4/33 62/3/33 88/2/33
f 89/2/18 66/29/18 84/28/18 90/3/18
f 73/2/18 92/29/18 91/28/18 85/3/18
f 92/30/18 89/33/18 90/32/18 91/31/18
f 66/17/17 67/21/17 89/34/17
f 72/35/17 73/14/17 92/26/17
f 86/26/17 91/15/17 85/27/17
f 84/25/17 90/18/17 83/34/17
f 83/36/17 90/9/17 91/12/17 86/16/17
f 67/9/17 72/12/17 92/16/17 89/36/17
f 88/5/34 82/8/34 79/7/34 87/6/34
f 76/16/35 82/18/35 88/37/35 75/16/35
f 60/21/36 47/22/36 55/17/36 59/21/36
f 74/38/15 52/14/15 53/15/15 77/38/15
