# Blender 4.4.3
# www.blender.org
mtllib viaduct_connected_corner.mtl
o Cube
v 0.304046 0.695955 0.009994
v 0.010000 0.695954 0.010034
v 0.010000 0.695954 0.989966
v 0.304046 0.695955 0.990011
v 0.695955 0.695955 0.010006
v 0.990000 0.695955 0.304045
v 0.695955 0.695955 0.990000
v 0.990000 0.695955 0.695955
v 0.304046 0.304045 0.009994
v 0.304046 0.010000 0.304045
v 0.010046 0.010000 0.304045
v 0.304046 0.304045 0.990011
v 0.010046 0.304045 0.009989
v 0.304046 0.010000 0.695955
v 0.695955 0.304045 0.010006
v 0.990000 0.304046 0.304045
v 0.695955 0.010000 0.304045
v 0.695955 0.304045 0.990000
v 0.695955 0.010000 0.695955
v 0.990000 0.304046 0.695955
v 0.304046 0.989955 0.010000
v 0.010000 0.989955 0.304045
v 0.010000 0.989955 0.695955
v 0.304046 0.989955 0.990000
v 0.695955 0.989955 0.010000
v 0.990000 0.989955 0.304045
v 0.695955 0.989955 0.990000
v 0.990000 0.989955 0.695955
v 0.010046 0.304045 0.990011
v 0.010046 0.010000 0.695955
v 0.304046 1.000780 0.010000
v 0.010000 1.000780 0.304045
v 0.010000 1.000780 0.695955
v 0.304046 1.000780 0.990000
v 0.695955 1.000780 0.010000
v 0.990000 1.000780 0.304045
v 0.695955 1.000780 0.990000
v 0.990000 1.000780 0.695955
v -0.000803 0.695954 0.010034
v -0.000803 0.695954 0.989966
v -0.000757 0.010000 0.304045
v -0.000757 0.304045 0.009989
v -0.000803 0.989955 0.304045
v -0.000803 0.989955 0.695955
v -0.000757 0.304045 0.990011
v -0.000757 0.010000 0.695955
v 0.304046 0.695955 0.009994
v 0.010000 0.695954 0.010034
v 0.010000 0.695954 0.989966
v 0.304046 0.695955 0.990011
v 0.695955 0.695955 0.010006
v 0.990000 0.695955 0.304045
v 0.695955 0.695955 0.990000
v 0.990000 0.695955 0.695955
v 0.304046 0.304045 0.009994
v 0.304046 0.010000 0.304045
v 0.010046 0.010000 0.304045
v 0.304046 0.304045 0.990011
v 0.010046 0.304045 0.009989
v 0.304046 0.010000 0.695955
v 0.695955 0.304045 0.010006
v 0.990000 0.304046 0.304045
v 0.695955 0.010000 0.304045
v 0.695955 0.304045 0.990000
v 0.695955 0.010000 0.695955
v 0.990000 0.304046 0.695955
v 0.304046 0.989955 0.010000
v 0.010000 0.989955 0.304045
v 0.010000 0.989955 0.695955
v 0.304046 0.989955 0.990000
v 0.695955 0.989955 0.010000
v 0.990000 0.989955 0.304045
v 0.695955 0.989955 0.990000
v 0.990000 0.989955 0.695955
v 0.010046 0.304045 0.990011
v 0.010046 0.010000 0.695955
v 0.304046 1.000780 0.010000
v 0.010000 1.000780 0.304045
v 0.010000 1.000780 0.695955
v 0.304046 1.000780 0.990000
v 0.695955 1.000780 0.010000
v 0.990000 1.000780 0.304045
v 0.695955 1.000780 0.990000
v 0.990000 1.000780 0.695955
v -0.000803 0.695954 0.010034
v -0.000803 0.695954 0.989966
v -0.000757 0.010000 0.304045
v -0.000757 0.304045 0.009989
v -0.000803 0.989955 0.304045
v -0.000803 0.989955 0.695955
v -0.000757 0.304045 0.990011
v -0.000757 0.010000 0.695955
vn -0.0000 -0.7071 -0.7071
vn -0.0000 -0.9239 -0.3827
vn -0.0000 -0.3827 -0.9239
vn -0.0000 -1.0000 -0.0000
vn -0.0000 -0.0000 1.0000
vn 1.0000 -0.0000 -0.0000
vn 0.5773 -0.5773 -0.5774
vn 0.5774 -0.5773 0.5773
vn 0.7071 -0.0000 -0.7071
vn 0.7071 -0.0000 0.7071
vn 0.7071 -0.7071 -0.0000
vn -0.0000 -0.7071 0.7071
vn -0.0000 -0.9239 0.3827
vn -0.0000 -0.0000 -1.0000
vn -0.1020 0.2894 -0.9517
vn 0.9239 -0.0000 -0.3827
vn -0.2894 0.1020 -0.9518
vn -0.0001 -0.0000 -1.0000
vn -0.2893 0.1020 0.9518
vn 0.3827 -0.0000 -0.9239
vn 0.3827 -0.0000 0.9239
vn -0.1021 0.2894 0.9517
vn -0.4606 0.4606 0.7588
vn 0.9239 -0.0000 0.3827
vn -0.0000 -0.3827 0.9239
vn -1.0000 -0.0000 -0.0000
vn -0.3827 -0.0000 0.9239
vn -0.4606 0.4606 -0.7588
vn -0.3827 -0.0000 -0.9239
vn -0.7071 -0.0000 0.7071
vn -0.0000 1.0000 -0.0000
vn -0.0000 0.7071 -0.7071
vn -0.0000 -0.3826 0.9239
vn -0.0000 0.3828 0.9238
vn -0.0000 -0.3826 -0.9239
vn -0.0000 0.3828 -0.9238
vn -0.0000 0.7071 0.7071
vn -0.0000 0.9239 0.3827
vn -0.5773 0.5773 0.5774
vn -0.5774 0.5773 -0.5773
vn -0.7071 -0.0000 -0.7071
vn -0.7071 0.7071 -0.0000
vn -0.0000 0.9239 -0.3827
vn -0.0000 0.3827 0.9239
vn -0.9239 -0.0000 0.3827
vn 0.2894 -0.1020 0.9518
vn 0.1020 -0.2894 0.9517
vn 0.0001 -0.0000 1.0000
vn 0.2893 -0.1020 -0.9518
vn 0.1021 -0.2894 -0.9517
vn 0.0002 -0.0000 -1.0000
vn -0.9239 -0.0000 -0.3827
vn -0.0000 0.3827 -0.9239
vn 0.4606 -0.4606 0.7588
vn 0.4606 -0.4606 -0.7588
vn -0.0000 0.3826 -0.9239
vn -0.0000 -0.3828 -0.9238
vn -0.0000 0.3826 0.9239
vn -0.0002 -0.0000 1.0000
vn -0.0000 -0.3828 0.9238
vt 0.299988 0.674988
vt 0.450012 0.674988
vt 0.549988 0.575012
vt 0.450012 0.575012
vt 0.799988 0.575012
vt 0.700012 0.674988
vt 0.700012 0.575012
vt 0.549988 0.325012
vt 0.450012 0.424988
vt 0.450012 0.325012
vt 0.549988 0.674988
vt 0.299988 0.575012
vt 0.299988 0.500000
vt 0.375000 0.575012
vt 0.625000 0.424988
vt 0.549988 0.500000
vt 0.549988 0.424988
vt 0.200012 0.575012
vt 0.625000 0.325012
vt 0.200012 0.674988
vt 0.200012 0.750000
vt 0.200012 0.500000
vt 0.799988 0.674988
vt 0.549988 0.924988
vt 0.625000 0.924988
vt 0.000000 0.000000
s 1
usemtl Material
f 9/1/1 11/2/2 13/1/3
f 19/3/4 10/2/4 17/4/4
f 7/5/5 12/6/5 18/7/5
f 8/8/6 16/9/6 6/10/6
f 14/11/4 11/2/2 10/2/4
f 15/12/7 16/13/7 17/14/7
f 18/15/8 19/16/8 20/17/8
f 5/18/9 16/13/9 15/12/9
f 7/19/10 20/17/10 8/8/10
f 17/4/11 20/17/11 19/3/11
f 15/12/1 10/2/1 9/1/1
f 18/7/12 14/11/12 19/3/12
f 12/6/12 30/11/13 14/11/12
f 15/12/14 1/20/14 5/18/14
f 1/20/14 13/1/3 2/21/15
f 5/18/9 26/22/16 6/22/9
f 2/21/15 21/20/17 1/20/18
f 7/5/5 24/23/19 4/23/5
f 1/20/14 25/18/20 5/18/14
f 8/8/10 27/19/21 7/19/10
f 3/24/22 24/25/19 23/24/23
f 6/10/6 28/8/24 8/8/6
f 29/6/25 4/23/5 3/24/22
s 0
f 23/26/26 32/26/26 22/26/26
s 1
f 27/5/21 34/23/27 24/23/19
f 26/10/16 38/8/24 28/8/24
f 25/18/20 36/22/16 26/22/16
f 28/8/24 37/19/21 27/19/21
f 21/20/17 35/18/20 25/18/20
f 22/21/28 31/20/29 21/20/17
f 24/25/19 33/24/30 23/24/23
s 0
f 22/26/31 44/26/31 23/26/31
s 1
f 29/6/25 46/11/13 30/11/13
f 2/21/15 43/21/32 22/21/28
f 30/11/13 41/2/2 11/2/2
f 3/24/22 45/6/33 29/6/25
f 23/24/23 40/24/34 3/24/22
f 11/2/2 42/1/35 13/1/3
f 2/21/15 42/1/35 39/21/36
f 55/1/37 57/2/38 56/2/37
f 56/2/31 65/3/31 63/4/31
f 58/6/14 53/5/14 64/7/14
f 62/9/26 54/8/26 52/10/26
f 57/2/38 60/11/31 56/2/31
f 61/12/39 63/14/39 62/13/39
f 64/15/40 66/17/40 65/16/40
f 62/13/30 51/18/30 61/12/30
f 53/19/41 66/17/41 64/15/41
f 66/17/42 63/4/42 65/3/42
f 56/2/37 61/12/37 55/1/37
f 64/7/32 60/11/32 58/6/32
f 76/11/43 58/6/32 60/11/32
f 47/20/5 61/12/5 51/18/5
f 47/20/5 59/1/44 55/1/5
f 72/22/45 51/18/30 52/22/30
f 67/20/46 48/21/47 47/20/48
f 70/23/49 53/5/14 50/23/14
f 71/18/27 47/20/5 51/18/5
f 73/19/29 54/8/41 53/19/41
f 49/24/50 70/25/49 50/25/51
f 74/8/52 52/10/26 54/8/26
f 50/23/14 75/6/53 49/24/50
s 0
f 78/26/6 69/26/6 68/26/6
s 1
f 80/23/20 73/5/29 70/23/49
f 84/8/52 72/10/45 74/8/52
f 82/22/45 71/18/27 72/22/45
f 83/19/29 74/8/52 73/19/29
f 81/18/27 67/20/46 71/18/27
f 77/20/21 68/21/54 67/20/46
f 79/24/9 70/25/49 69/24/55
s 0
f 90/26/4 68/26/4 69/26/4
s 1
f 92/11/43 75/6/53 76/11/43
f 89/21/12 48/21/47 68/21/54
f 87/2/38 76/11/43 57/2/38
f 91/6/56 49/24/50 75/6/53
f 86/24/57 69/24/55 49/24/50
f 88/1/58 57/2/38 59/1/44
f 48/21/47 88/1/58 59/1/44
f 9/1/1 10/2/1 11/2/2
f 19/3/4 14/11/4 10/2/4
f 7/5/5 4/23/5 12/6/5
f 8/8/6 20/17/6 16/9/6
f 14/11/4 30/11/13 11/2/2
f 5/18/9 6/22/9 16/13/9
f 7/19/10 18/15/10 20/17/10
f 17/4/11 16/9/11 20/17/11
f 15/12/1 17/4/1 10/2/1
f 18/7/12 12/6/12 14/11/12
f 12/6/12 29/6/25 30/11/13
f 15/12/14 9/1/14 1/20/14
f 1/20/14 9/1/14 13/1/3
f 5/18/9 25/18/20 26/22/16
f 2/21/15 22/21/28 21/20/17
f 7/5/5 27/5/21 24/23/19
f 1/20/14 21/20/17 25/18/20
f 8/8/10 28/8/24 27/19/21
f 3/24/22 4/25/59 24/25/19
f 6/10/6 26/10/16 28/8/24
f 29/6/25 12/6/5 4/23/5
s 0
f 23/26/26 33/26/26 32/26/26
s 1
f 27/5/21 37/5/21 34/23/27
f 26/10/16 36/10/16 38/8/24
f 25/18/20 35/18/20 36/22/16
f 28/8/24 38/8/24 37/19/21
f 21/20/17 31/20/29 35/18/20
f 22/21/28 32/21/41 31/20/29
f 24/25/19 34/25/27 33/24/30
s 0
f 22/26/31 43/26/31 44/26/31
s 1
f 29/6/25 45/6/33 46/11/13
f 2/21/15 39/21/36 43/21/32
f 30/11/13 46/11/13 41/2/2
f 3/24/22 40/24/34 45/6/33
f 23/24/23 44/24/37 40/24/34
f 11/2/2 41/2/2 42/1/35
f 2/21/15 13/1/3 42/1/35
f 55/1/37 59/1/44 57/2/38
f 56/2/31 60/11/31 65/3/31
f 58/6/14 50/23/14 53/5/14
f 62/9/26 66/17/26 54/8/26
f 57/2/38 76/11/43 60/11/31
f 62/13/30 52/22/30 51/18/30
f 53/19/41 54/8/41 66/17/41
f 66/17/42 62/9/42 63/4/42
f 56/2/37 63/4/37 61/12/37
f 64/7/32 65/3/32 60/11/32
f 76/11/43 75/6/53 58/6/32
f 47/20/5 55/1/5 61/12/5
f 47/20/5 48/21/47 59/1/44
f 72/22/45 71/18/27 51/18/30
f 67/20/46 68/21/54 48/21/47
f 70/23/49 73/5/29 53/5/14
f 71/18/27 67/20/46 47/20/5
f 73/19/29 74/8/52 54/8/41
f 49/24/50 69/24/55 70/25/49
f 74/8/52 72/10/45 52/10/26
f 50/23/14 58/6/14 75/6/53
s 0
f 78/26/6 79/26/6 69/26/6
s 1
f 80/23/20 83/5/29 73/5/29
f 84/8/52 82/10/45 72/10/45
f 82/22/45 81/18/27 71/18/27
f 83/19/29 84/8/52 74/8/52
f 81/18/27 77/20/21 67/20/46
f 77/20/21 78/21/10 68/21/54
f 79/24/9 80/25/20 70/25/49
s 0
f 90/26/4 89/26/4 68/26/4
s 1
f 92/11/43 91/6/56 75/6/53
f 89/21/12 85/21/60 48/21/47
f 87/2/38 92/11/43 76/11/43
f 91/6/56 86/24/57 49/24/50
f 86/24/57 90/24/1 69/24/55
f 88/1/58 87/2/38 57/2/38
f 48/21/47 85/21/60 88/1/58
