# Made in Blockbench 4.12.5
mtllib viaduct_connected_corner.mtl

o Cube
v 0.303479229191373 0.30280638216859446 0.004692554095724388
v 0.008604768778959992 0.30280638216859446 0.004687500000000011
v 0.008604768778959992 0.006952500000000028 0.301924934465757
v 0.303479229191373 0.006952500000000028 0.301924934465757
v 0.9914734999999999 0.3028073883203132 0.301924934465757
v 0.9914734999999999 0.3028073883203132 0.6980750655342431
v 0.9914734999999999 0.6971273023022265 0.6980750655342431
v 0.9914734999999999 0.6971273023022265 0.301924934465757
v 0.008604768778959992 0.006952500000000028 0.6980750655342431
v -0.0022303631796634082 0.006952500000000028 0.6980750655342431
v -0.0022303631796634082 0.006952500000000028 0.301924934465757
v 0.008604768778959992 0.006952500000000028 0.301924934465757
v 0.9914734999999999 0.6971273023022265 0.301924934465757
v 0.9914734999999999 0.9929359076434728 0.301924934465757
v 0.9914734999999999 0.9929359076434728 0.6980750655342431
v 0.9914734999999999 0.6971273023022265 0.6980750655342431
v 0.6965539057416057 0.9929359076434728 0.9953013809894062
v 0.9914734999999999 0.9929359076434728 0.6980750655342431
v 0.6965539057416057 0.6971273023022265 0.9953013809894062
v 0.6965539057416057 0.30280638216859446 0.004704683925463027
v 0.9914734999999999 0.3028073883203132 0.301924934465757
v 0.6965539057416057 0.006952500000000028 0.301924934465757
v 0.6965539057416057 0.30280638216859446 0.9953013809894062
v 0.6965539057416057 0.006952500000000028 0.6980750655342431
v 0.9914734999999999 0.3028073883203132 0.6980750655342431
v 0.6965539057416057 0.30280638216859446 0.9953013809894062
v 0.303479229191373 0.30280638216859446 0.004692554095724388
v 0.303479229191373 0.006952500000000028 0.301924934465757
v 0.008604768778959992 0.30280638216859446 0.004687500000000011
v 0.303479229191373 0.9929359076434728 0.9953013809894062
v 0.303479229191373 1.0038275 0.9953013809894062
v 0.008558631958623386 1.0038275 0.6980750655342431
v 0.008558631958623386 0.9929359076434728 0.6980750655342431
v 0.6965539057416057 0.006952500000000028 0.301924934465757
v 0.6965539057416057 0.30280638216859446 0.004704683925463027
v 0.6965539057416057 0.006952500000000028 0.6980750655342431
v 0.303479229191373 0.006952500000000028 0.6980750655342431
v 0.303479229191373 0.30280638216859446 0.9953125
v 0.303479229191373 0.6971273023022265 0.9953125
v 0.303479229191373 0.9929359076434728 0.004698619010593652
v 0.303479229191373 1.0038275 0.004698619010593652
v 0.6965539057416057 1.0038275 0.004698619010593652
v 0.6965539057416057 0.9929359076434728 0.004698619010593652
v 0.008604768778959992 0.30280638216859446 0.9953125
v 0.008558631958623386 0.6971262961505076 0.9952670131384802
v 0.9914734999999999 0.9929359076434728 0.301924934465757
v 0.6965539057416057 0.9929359076434728 0.004698619010593652
v 0.6965539057416057 0.6971273023022265 0.004704683925463027
v 0.008558631958623386 0.6971262961505076 0.0047329868615194615
v 0.303479229191373 0.6971273023022265 0.004692554095724388
v 0.303479229191373 0.9929359076434728 0.9953013809894062
v 0.303479229191373 0.9929359076434728 0.004698619010593652
v 0.303479229191373 0.6971273023022265 0.004692554095724388
v 0.008558631958623386 1.0038275 0.301924934465757
v 0.008558631958623386 1.0038275 0.6980750655342431
v 0.008558631958623386 0.9929359076434728 0.6980750655342431
v 0.008558631958623386 0.9929359076434728 0.301924934465757
v 0.008558631958623386 0.6971262961505076 0.9952670131384802
v 0.303479229191373 1.0038275 0.004698619010593652
v 0.303479229191373 0.006952500000000028 0.6980750655342431
v 0.008604768778959992 0.006952500000000028 0.6980750655342431
v 0.008558631958623386 1.0038275 0.301924934465757
v 0.008558631958623386 0.9929359076434728 0.301924934465757
v 0.9914734999999999 1.0038275 0.301924934465757
v 0.6965539057416057 1.0038275 0.004698619010593652
v 0.6965539057416057 0.6971273023022265 0.004704683925463027
v -0.0022765000000001256 0.9929359076434728 0.6980750655342431
v -0.0022765000000001256 0.9929359076434728 0.301924934465757
v -0.0022303631796634082 0.006952500000000028 0.6980750655342431
v -0.0022303631796634082 0.30280638216859446 0.9953125
v 0.008558631958623386 0.6971262961505076 0.0047329868615194615
v -0.0022765000000001256 0.6971262961505076 0.0047329868615194615
v -0.0022303631796634082 0.30280638216859446 0.004687500000000011
v 0.6965539057416057 0.6971273023022265 0.9953013809894062
v 0.303479229191373 0.6971273023022265 0.9953125
v 0.303479229191373 0.30280638216859446 0.9953125
v -0.0022765000000001256 0.6971262961505076 0.0047329868615194615
v -0.0022765000000001256 0.9929359076434728 0.301924934465757
v -0.0022765000000001256 0.6971262961505076 0.9952670131384802
v 0.008604768778959992 0.30280638216859446 0.9953125
v 0.9914734999999999 1.0038275 0.301924934465757
v -0.0022303631796634082 0.30280638216859446 0.004687500000000011
v 0.6965539057416057 0.9929359076434728 0.9953013809894062
v 0.6965539057416057 1.0038275 0.9953013809894062
v 0.9914734999999999 1.0038275 0.6980750655342431
v -0.0022765000000001256 0.9929359076434728 0.6980750655342431
v 0.6965539057416057 1.0038275 0.9953013809894062
v 0.9914734999999999 1.0038275 0.6980750655342431
v -0.0022303631796634082 0.006952500000000028 0.301924934465757
v 0.303479229191373 1.0038275 0.9953013809894062
v -0.0022765000000001256 0.6971262961505076 0.9952670131384802
v -0.0022303631796634082 0.30280638216859446 0.9953125
vt 0.3125 0.3125
vt 0.6875 0.3125
vt 0.6875 0.6875
vt 0.3125 0.6875
vt 0.25 0.25
vt 0.75 0.25
vt 0.75 0.75
vt 0.25 0.75
vt 0.125 0.75
vt 0.0625 0.75
vt 0.0625 0.25
vt 0.125 0.25
vt 0.3125 0.25
vt 0.6875 0.25
vt 0.6875 0.75
vt 0.3125 0.75
vt 0.3125 0.3125
vt 0.6875 0.3125
vt 0.6875 0.6875
vt 0.3125 0.6875
vt 0.75 0.0625
vt 0.9375 0.0625
vt 0.9375 0.25
vt 0.75 0.0625
vt 0.9375 0.0625
vt 0.9375 0.25
vt 0.3125 0.25
vt 0.6875 0.25
vt 0.6875 0.75
vt 0.3125 0.75
vt 0.3125 0.3125
vt 0.6875 0.3125
vt 0.6875 0.6875
vt 0.3125 0.6875
vt 0.25 0.84375
vt 0.25 0.78125
vt 0.71875 0.78125
vt 0.71875 0.84375
vt 0.25 0.3125
vt 0.75 0.3125
vt 0.75 0.6875
vt 0.25 0.6875
vt 0.3125 0.25
vt 0.6875 0.25
vt 0.6875 0.75
vt 0.3125 0.75
vt 0.25 0.25
vt 0.75 0.25
vt 0.75 0.75
vt 0.25 0.75
vt 0.125 0.75
vt 0.0625 0.75
vt 0.0625 0.25
vt 0.125 0.25
vt 0.25 0.3125
vt 0.75 0.3125
vt 0.75 0.6875
vt 0.25 0.6875
vt 0.3125 0.3125
vt 0.6875 0.3125
vt 0.6875 0.6875
vt 0.3125 0.6875
vt 0.75 0.0625
vt 0.9375 0.0625
vt 0.9375 0.25
vt 0.25 0.3125
vt 0.75 0.3125
vt 0.75 0.6875
vt 0.25 0.6875
vt 0.25 0.3125
vt 0.75 0.3125
vt 0.75 0.6875
vt 0.25 0.6875
vt 0.125 0.25
vt 0.125 0.75
vt 0.0625 0.75
vt 0.0625 0.25
vt 0.75 0.0625
vt 0.9375 0.0625
vt 0.9375 0.25
vt 0.21875 0.84375
vt 0.21875 0.78125
vt 0.71875 0.78125
vt 0.71875 0.84375
vt 0.25 0.25
vt 0.75 0.25
vt 0.75 0.75
vt 0.25 0.75
vt 0.25 0.3125
vt 0.75 0.3125
vt 0.75 0.6875
vt 0.25 0.6875
vt 0.3125 0.3125
vt 0.6875 0.3125
vt 0.6875 0.6875
vt 0.3125 0.6875
vt 0.125 0.75
vt 0.0625 0.75
vt 0.0625 0.25
vt 0.125 0.25
vt 0.59375 0.78125
vt 0.59375 0.84375
vt 0.25 0.84375
vt 0.25 0.78125
vt 0.25 0.3125
vt 0.75 0.3125
vt 0.75 0.6875
vt 0.25 0.6875
vt 0.3125 0.25
vt 0.6875 0.25
vt 0.6875 0.75
vt 0.3125 0.75
vt 0.125 0.25
vt 0.125 0.75
vt 0.0625 0.75
vt 0.0625 0.25
vt 0.25 0.25
vt 0.75 0.25
vt 0.75 0.75
vt 0.25 0.75
vt 0.125 0.25
vt 0.125 0.75
vt 0.0625 0.75
vt 0.0625 0.25
vt 0.71875 0.78125
vt 0.71875 0.84375
vt 0.25 0.84375
vt 0.25 0.78125
vt 0.3125 0.25
vt 0.6875 0.25
vt 0.6875 0.75
vt 0.3125 0.75
vt 0.125 0.75
vt 0.0625 0.75
vt 0.0625 0.25
vt 0.125 0.25
vt 0.25 0.25
vt 0.75 0.25
vt 0.75 0.75
vt 0.25 0.75
vt 0.78125 0.78125
vt 0.78125 0.84375
vt 0.25 0.84375
vt 0.25 0.78125
vt 0.125 0.25
vt 0.125 0.75
vt 0.0625 0.75
vt 0.0625 0.25
vt 0.3125 0.3125
vt 0.6875 0.3125
vt 0.6875 0.6875
vt 0.3125 0.6875
vt 0.59375 0.78125
vt 0.59375 0.84375
vt 0.25 0.84375
vt 0.25 0.78125
vt 0.25 0.25
vt 0.75 0.25
vt 0.75 0.75
vt 0.25 0.75
vt 0.3125 0.3125
vt 0.6875 0.3125
vt 0.6875 0.6875
vt 0.3125 0.6875
vt 0.65625 0.78125
vt 0.65625 0.84375
vt 0.3125 0.84375
vt 0.3125 0.78125
vt 0.75 0.0625
vt 0.9375 0.0625
vt 0.9375 0.25
vt 0.75 0.0625
vt 0.9375 0.0625
vt 0.9375 0.25
vt 0.25 0.3125
vt 0.75 0.3125
vt 0.75 0.6875
vt 0.25 0.6875
vt 0.25 0.3125
vt 0.75 0.3125
vt 0.75 0.6875
vt 0.25 0.6875
vt 0.3125 0.25
vt 0.6875 0.25
vt 0.6875 0.75
vt 0.3125 0.75
vt 0.125 0.25
vt 0.125 0.75
vt 0.0625 0.75
vt 0.0625 0.25
vt 0.3125 0.25
vt 0.6875 0.25
vt 0.6875 0.75
vt 0.3125 0.75
vt 0.0625 0.25
vt 0.125 0.25
vt 0.125 0.75
vt 0.0625 0.75
vt 0.125 0.75
vt 0.0625 0.75
vt 0.0625 0.25
vt 0.125 0.25
vt 0.25 0.3125
vt 0.75 0.3125
vt 0.75 0.6875
vt 0.25 0.6875
vt 0.3125 0.25
vt 0.6875 0.25
vt 0.6875 0.75
vt 0.3125 0.75
vt 0.75 0.0625
vt 0.9375 0.0625
vt 0.9375 0.25
vt 0.25 0.3125
vt 0.75 0.3125
vt 0.75 0.6875
vt 0.25 0.6875
vt 0.3125 0.25
vt 0.6875 0.25
vt 0.6875 0.75
vt 0.3125 0.75
vt 0.25 0.3125
vt 0.75 0.3125
vt 0.75 0.6875
vt 0.25 0.6875
vt 0.75 0.0625
vt 0.9375 0.0625
vt 0.9375 0.25
vt 0.78125 0.78125
vt 0.78125 0.84375
vt 0.28125 0.84375
vt 0.28125 0.78125
vt 0.3125 0.25
vt 0.6875 0.25
vt 0.6875 0.75
vt 0.3125 0.75
vt 0.125 0.75
vt 0.0625 0.75
vt 0.0625 0.25
vt 0.125 0.25
vt 0.3125 0.25
vt 0.6875 0.25
vt 0.6875 0.75
vt 0.3125 0.75
vt 0.59375 0.78125
vt 0.59375 0.84375
vt 0.25 0.84375
vt 0.25 0.78125
vt 0.25 0.25
vt 0.75 0.25
vt 0.75 0.75
vt 0.25 0.75
vt 0.125 0.25
vt 0.125 0.75
vt 0.0625 0.75
vt 0.0625 0.25
vt 0.125 0.25
vt 0.125 0.75
vt 0.0625 0.75
vt 0.0625 0.25
vt 0.125 0.25
vt 0.125 0.75
vt 0.0625 0.75
vt 0.0625 0.25
vt 0.3125 0.3125
vt 0.6875 0.3125
vt 0.6875 0.6875
vt 0.3125 0.6875
vt 0.71875 0.78125
vt 0.71875 0.84375
vt 0.21875 0.84375
vt 0.21875 0.78125
vt 0.59375 0.78125
vt 0.59375 0.84375
vt 0.25 0.84375
vt 0.25 0.78125
vt 0.59375 0.78125
vt 0.59375 0.84375
vt 0.1875 0.84375
vt 0.1875 0.78125
vt 0.59375 0.78125
vt 0.59375 0.84375
vt 0.1875 0.84375
vt 0.1875 0.78125
vt 0.0625 0.25
vt 0.125 0.25
vt 0.125 0.75
vt 0.0625 0.75
vt 0.625 0.78125
vt 0.625 0.84375
vt 0.28125 0.84375
vt 0.28125 0.78125
vt 0.65625 0.78125
vt 0.65625 0.84375
vt 0.3125 0.84375
vt 0.3125 0.78125
vt 0.3125 0.25
vt 0.6875 0.25
vt 0.6875 0.75
vt 0.3125 0.75
vt 0.75 0.0625
vt 0.9375 0.0625
vt 0.9375 0.25
vt 0.75 0.0625
vt 0.9375 0.0625
vt 0.9375 0.25
vt 0.75 0.0625
vt 0.9375 0.0625
vt 0.9375 0.25
vt 0.75 0.0625
vt 0.9375 0.0625
vt 0.9375 0.25
vt 0.65625 0.78125
vt 0.65625 0.84375
vt 0.3125 0.84375
vt 0.3125 0.78125
vn -0.000012091378797172636 0.7087543780973253 0.7054553362061076
vn -1 0 0
vn 0 -1 0
vn 1 0 0
vn -0.7098559496590439 0 -0.7043468823908126
vn 0.5794536982641736 -0.5776218556124589 -0.5749664368350487
vn 0.5794576070434007 -0.5776257520347564 0.5749585830525693
vn -0.7098559496590438 0 -0.7043468823908126
vn 0 -0.7087483805101087 -0.7054613618932637
vn -0.7098547520108591 0 0.7043480894043809
vn 0 0.7087339855493907 0.7054758236306019
vn 0 0.7087411831404078 -0.7054685927245343
vn -0.000028287272756778564 0 -0.9999999995999153
vn 0 0 -1
vn 0 0 -1
vn -0.7098559495850255 0.000014441107535791235 0.704346882317368
vn -0.00013709719299004282 0.00002050283427013731 -0.9999999903919967
vn 0 0 -1
vn 0 -0.000020502834462819262 0.999999999789817
vn 1 0 0
vn -0.5794484130692474 0.5776401627851362 0.5749533710911628
vn 0.7098547520108595 0 0.7043480894043807
vn 0 -1 0
vn -0.708225361033243 0.7059864290404829 0
vn 0 0.7087543781491356 -0.705455336257677
vn -1 0 0
vn -0.7098559496590442 0 0.7043468823908122
vn -1 0 0
vn 1 0 0
vn 0 0 1
vn 0.00003085884300489394 0 -0.9999999995238661
vn 0 -1 0
vn 0 0.7087543781491356 -0.7054553362576771
vn 0 -1 0
vn 0 -0.00011535522200102195 0.9999999933465865
vn 0.000028287272756778564 0 0.9999999995999153
vn 0 0.7087531804288167 -0.705456539577058
vn 0 -0.0001153552220020074 -0.9999999933465865
vn 0.7098559495850255 -0.000014441107535855466 -0.7043468823173681
vn -0.7098547520108595 0 -0.7043480894043807
vn -0.00003085884300489394 0 0.9999999995238661
vn 0 -0.7087543781491356 0.705455336257677
vn 0.7098559496590442 0 -0.7043468823908122
vn -0.5794536982641736 0.5776218556124589 0.5749664368350487
vn -0.5794576070434007 0.5776257520347564 -0.5749585830525693
vn 0.7098559496590439 0 0.7043468823908126
vn -0.7098487636531416 0 0.7043541245283557
vn 0.7098487636531416 0 -0.7043541245283557
vn 0 0.00011535522200102196 -0.9999999933465865
vn 0 0.000020502834462819262 -0.999999999789817
vn 0 0 1
vn 1 0 0
vn 0.000017139821863738692 0 -0.9999999998531133
vn 0 0 1
vn 0.0001370971929900428 -0.00002050283427013731 0.9999999903919967
vn 0.000019955407518456397 -0.7087543780080161 0.7054553361172144
vn 0 -0.7087339855493907 -0.7054758236306019
vn 0 1 0
vn 0.0001542343911996893 -0.00003758852938329716 -0.9999999873994276
vn 0.7098559496590439 0 0.7043468823908126
vn 0 0 1
vn 0 1 0
vn 0.708225361033243 -0.7059864290404829 0
vn -0.7098559496590439 0 -0.7043468823908126
vn 0 1 0
vn 0 1 0
vn -1 0 0
vn 0 0 -1
vn 0.7098559496590439 0 0.7043468823908126
vn 0 0.7087531804288162 0.7054565395770587
vn 0 -0.7087543781491356 0.7054553362576771
vn 0 -0.7087543781491358 -0.705455336257677
vn 0 -0.7087531804288167 0.705456539577058
vn 0 0.00011535522200200739 0.9999999933465865
vn 0.7098547520108591 0 -0.7043480894043809
vn 0 -0.7087531804288162 -0.7054565395770587
vn 0.00013709751565081518 -0.00011533918002439569 0.9999999839505724
vn -0.5794484130692473 0.5776401627851366 -0.5749533710911623
vn -0.0001542343911996893 0.00003758852938329716 0.9999999873994276
vn 0.5794484130692473 -0.5776401627851366 0.5749533710911623
vn 0.5794484130692474 -0.5776401627851362 -0.5749533710911628
vn 0 0.7087543781491358 0.705455336257677
usemtl m_f27d1936-c483-b96f-661c-1c1f9903ab0a
f 1/1/1 2/2/1 3/3/1 4/4/1
f 5/5/2 6/6/2 7/7/2 8/8/2
f 9/9/3 10/10/3 11/11/3 12/12/3
f 13/13/4 14/14/4 15/15/4 16/16/4
f 17/17/5 18/18/5 7/19/5 19/20/5
f 20/21/6 21/22/6 22/23/6
f 23/24/7 24/25/7 25/26/7
f 19/27/8 7/28/8 6/29/8 26/30/8
f 27/31/9 28/32/9 12/33/9 29/34/9
f 30/35/10 31/36/10 32/37/10 33/38/10
f 4/39/11 34/40/11 35/41/11 1/42/11
f 26/43/12 36/44/12 37/45/12 38/46/12
f 38/47/13 39/48/13 19/49/13 26/50/13
f 40/51/14 41/52/14 42/53/14 43/54/14
f 39/55/15 38/56/15 44/57/15 45/58/15
f 46/59/16 47/60/16 48/61/16 8/62/16
f 49/63/17 40/64/17 50/65/17
f 51/66/18 17/67/18 19/68/18 39/69/18
f 47/70/19 52/71/19 53/72/19 48/73/19
f 54/74/20 55/75/20 56/76/20 57/77/20
f 58/78/21 30/79/21 33/80/21
f 59/81/22 54/82/22 57/83/22 52/84/22
f 24/85/23 60/86/23 28/87/23 22/88/23
f 6/89/24 5/90/24 34/91/24 36/92/24
f 61/93/25 44/94/25 38/95/25 37/96/25
f 33/97/26 32/98/26 62/99/26 63/100/26
f 64/101/27 65/102/27 47/103/27 46/104/27
f 18/105/28 46/106/28 8/107/28 7/108/28
f 16/109/29 25/110/29 21/111/29 13/112/29
f 65/113/30 59/114/30 52/115/30 47/116/30
f 20/117/31 27/118/31 50/119/31 66/120/31
f 67/121/32 68/122/32 57/123/32 56/124/32
f 69/125/33 70/126/33 44/127/33 61/128/33
f 60/129/34 9/130/34 12/131/34 28/132/34
f 71/133/35 72/134/35 73/135/35 2/136/35
f 74/137/36 75/138/36 76/139/36 23/140/36
f 49/141/37 77/142/37 78/143/37 63/144/37
f 70/145/38 79/146/38 45/147/38 44/148/38
f 66/149/39 43/150/39 14/151/39 13/152/39
f 63/153/40 62/154/40 41/155/40 40/156/40
f 53/157/41 1/158/41 35/159/41 48/160/41
f 76/161/42 80/162/42 9/163/42 60/164/42
f 43/165/43 42/166/43 81/167/43 14/168/43
f 35/169/44 34/170/44 5/171/44
f 26/172/45 6/173/45 36/174/45
f 74/175/46 23/176/46 25/177/46 16/178/46
f 5/179/47 8/180/47 48/181/47 35/182/47
f 66/183/48 13/184/48 21/185/48 20/186/48
f 49/187/49 29/188/49 82/189/49 77/190/49
f 50/191/50 40/192/50 43/193/50 66/194/50
f 83/195/51 84/196/51 31/197/51 30/198/51
f 14/199/52 81/200/52 85/201/52 15/202/52
f 50/203/53 27/204/53 29/205/53 49/206/53
f 74/207/54 83/208/54 30/209/54 75/210/54
f 52/211/55 71/212/55 53/213/55
f 23/214/56 76/215/56 60/216/56 24/217/56
f 20/218/57 22/219/57 28/220/57 27/221/57
f 3/222/58 61/223/58 37/224/58 4/225/58
f 45/226/59 51/227/59 39/228/59
f 15/229/60 85/230/60 84/231/60 83/232/60
f 80/233/61 76/234/61 75/235/61 58/236/61
f 63/237/62 78/238/62 86/239/62 33/240/62
f 22/241/63 21/242/63 25/243/63 24/244/63
f 87/245/64 88/246/64 18/247/64 17/248/64
f 4/249/65 37/250/65 36/251/65 34/252/65
f 89/253/66 69/254/66 61/255/66 3/256/66
f 88/257/67 64/258/67 46/259/67 18/260/67
f 90/261/68 87/262/68 17/263/68 51/264/68
f 16/265/69 15/266/69 83/267/69 74/268/69
f 33/269/70 86/270/70 91/271/70 58/272/70
f 80/273/71 92/274/71 10/275/71 9/276/71
f 12/277/72 11/278/72 82/279/72 29/280/72
f 68/281/73 72/282/73 71/283/73 57/284/73
f 58/285/74 91/286/74 92/287/74 80/288/74
f 55/289/75 90/290/75 51/291/75 56/292/75
f 79/293/76 67/294/76 56/295/76 45/296/76
f 53/297/77 71/298/77 2/299/77 1/300/77
f 49/301/78 63/302/78 40/303/78
f 58/304/79 75/305/79 30/306/79
f 52/307/80 57/308/80 71/309/80
f 45/310/81 56/311/81 51/312/81
f 73/313/82 89/314/82 3/315/82 2/316/82