# Made in Blockbench 4.12.5
mtllib viaduct_connected_side.mtl

o Cube
v 0.99375 0.29972 0.302328
v 0.99375 0.69993 0.302328
v 0.99375 0.69993 0.697672
v 0.99375 0.29972 0.697672
v 0.302328 0.006423 1
v 0.302327 0.000175 0.99375
v 0.00625 -0.000175 0.697672
v 0.00625 0.302397 1
v 0.00625 0.69993 0.302328
v 0.00625 0.29972 0.302328
v 0.00625 0.29972 0.697672
v 0.00625 0.69993 0.697672
v 0.99375 0.697603 1
v 0.99375 0.999825 0.697672
v 0.697672 0.999825 0.99375
v 0.697672 0.993577 1
v 0.302328 0.69993 0.00625
v 0.00625 0.999825 0.302328
v 0.302328 0.999825 0.00625
v 0.00625 0.999825 0.697672
v 0.697672 0.000175 0.99375
v 0.697672 0.006423 1
v 0.99375 0.302397 1
v 0.99375 -0.000175 0.697672
v 0.697672 0.29972 0.00625
v 0.99375 -0.000175 0.302328
v 0.697672 -0.000175 0.00625
v 0.302328 0.29972 0.00625
v 0.302328 -0.000175 0.00625
v 0.697672 0.69993 0.00625
v 0.697672 0.999825 0.00625
v 0.00625 -0.000175 0.302328
v 0.00625 0.697603 1
v 0.99375 0.999825 0.302328
v 0.302328 0.999825 0.99375
v 0.302328 0.993577 1
v 0.99375 0.29972 0.302328
v 0.99375 0.29972 0.697672
v 0.99375 0.69993 0.697672
v 0.99375 0.69993 0.302328
v 0.302328 0.006423 1
v 0.00625 0.302397 1
v 0.00625 -0.000175 0.697672
v 0.302327 0.000175 0.99375
v 0.00625 0.69993 0.302328
v 0.00625 0.69993 0.697672
v 0.00625 0.29972 0.697672
v 0.00625 0.29972 0.302328
v 0.99375 0.697603 1
v 0.697672 0.993577 1
v 0.697672 0.999825 0.99375
v 0.99375 0.999825 0.697672
v 0.302328 0.69993 0.00625
v 0.302328 0.999825 0.00625
v 0.00625 0.999825 0.302328
v 0.00625 0.999825 0.697672
v 0.697672 0.000175 0.99375
v 0.99375 -0.000175 0.697672
v 0.99375 0.302397 1
v 0.697672 0.006423 1
v 0.697672 0.29972 0.00625
v 0.697672 -0.000175 0.00625
v 0.99375 -0.000175 0.302328
v 0.302328 0.29972 0.00625
v 0.302328 -0.000175 0.00625
v 0.697672 0.69993 0.00625
v 0.697672 0.999825 0.00625
v 0.00625 -0.000175 0.302328
v 0.00625 0.697603 1
v 0.99375 0.999825 0.302328
v 0.302328 0.999825 0.99375
v 0.302328 0.993577 1
vt 0.75 0.25
vt 0.25 0.25
vt 0.25 0.75
vt 0.75 0.75
vt 0.1875 0.0625
vt 0.0625 0.0625
vt 0.0625 0.25
vt 0.1875 0.25
vt 0.75 0.25
vt 0.25 0.25
vt 0.25 0.75
vt 0.75 0.75
vt 0.362635 0.873999
vt 0.375 0.8125
vt 0.1875 0.8125
vt 0.182819 0.873999
vt 0.6875 0.6875
vt 0.6875 0.3125
vt 0.3125 0.3125
vt 0.3125 0.6875
vt 0.25 0.6875
vt 0.75 0.6875
vt 0.75 0.3125
vt 0.25 0.3125
vt 0.1875 0.0625
vt 0.125 0.0625
vt 0.125 0.25
vt 0.1875 0.25
vt 0.3125 0.6875
vt 0.6875 0.6875
vt 0.6875 0.3125
vt 0.3125 0.3125
vt 0.6875 0.75
vt 0.6875 0.25
vt 0.3125 0.25
vt 0.3125 0.75
vt 0.25 0.6875
vt 0.75 0.6875
vt 0.75 0.3125
vt 0.25 0.3125
vt 0.75 0.3125
vt 0.25 0.3125
vt 0.25 0.6875
vt 0.75 0.6875
vt 0.6875 0.75
vt 0.6875 0.25
vt 0.3125 0.25
vt 0.3125 0.75
vt 0.3125 0.6875
vt 0.6875 0.6875
vt 0.6875 0.3125
vt 0.3125 0.3125
vt 0.6875 0.75
vt 0.6875 0.25
vt 0.3125 0.25
vt 0.3125 0.75
vt 0.25 0.6875
vt 0.75 0.6875
vt 0.75 0.3125
vt 0.25 0.3125
vt 0.6875 0.75
vt 0.6875 0.25
vt 0.3125 0.25
vt 0.3125 0.75
vt 0.25 0.6875
vt 0.75 0.6875
vt 0.75 0.3125
vt 0.25 0.3125
vt 0.75 0.3125
vt 0.25 0.3125
vt 0.25 0.6875
vt 0.75 0.6875
vt 0.6875 0.6875
vt 0.6875 0.3125
vt 0.3125 0.3125
vt 0.3125 0.6875
vt 0.75 0.25
vt 0.25 0.25
vt 0.25 0.75
vt 0.75 0.75
vt 0.1875 0.8125
vt 0.125 0.8125
vt 0.125 0.875
vt 0.0625 0.1875
vt 0.25 0.1875
vt 0.25 0.0625
vt 0.0625 0.0625
vt 0.3125 0.75
vt 0.3125 0.25
vt 0.375 0.25
vt 0.375 0.75
vt 0.125 0.875
vt 0.1875 0.75
vt 0.1875 0.875
vt 0.25 0.75
vt 0.1875 0.75
vt 0.1875 0.8125
vt 0.125 0.875
vt 0.25 0.875
vt 0.25 0.75
vt 0.75 0.625
vt 0.25 0.625
vt 0.25 0.6875
vt 0.75 0.6875
vt 0.75 0.25
vt 0.25 0.25
vt 0.25 0.75
vt 0.75 0.75
vt 0.1875 0.25
vt 0.1875 0.0625
vt 0.125 0.0625
vt 0.125 0.25
vt 0.75 0.25
vt 0.25 0.25
vt 0.25 0.75
vt 0.75 0.75
vt 0.0625 0.1875
vt 0.25 0.1875
vt 0.25 0.125
vt 0.0625 0.125
vt 0.6875 0.3125
vt 0.3125 0.3125
vt 0.3125 0.6875
vt 0.6875 0.6875
vt 0.75 0.6875
vt 0.75 0.3125
vt 0.25 0.3125
vt 0.25 0.6875
vt 0.25 0.25
vt 0.25 0.0625
vt 0.1875 0.0625
vt 0.1875 0.25
vt 0.6875 0.6875
vt 0.6875 0.3125
vt 0.3125 0.3125
vt 0.3125 0.6875
vt 0.6875 0.25
vt 0.3125 0.25
vt 0.3125 0.75
vt 0.6875 0.75
vt 0.75 0.6875
vt 0.75 0.3125
vt 0.25 0.3125
vt 0.25 0.6875
vt 0.6875 0.25
vt 0.3125 0.25
vt 0.3125 0.75
vt 0.6875 0.75
vt 0.6875 0.25
vt 0.3125 0.25
vt 0.3125 0.75
vt 0.6875 0.75
vt 0.6875 0.6875
vt 0.6875 0.3125
vt 0.3125 0.3125
vt 0.3125 0.6875
vt 0.6875 0.25
vt 0.3125 0.25
vt 0.3125 0.75
vt 0.6875 0.75
vt 0.75 0.6875
vt 0.75 0.3125
vt 0.25 0.3125
vt 0.25 0.6875
vt 0.6875 0.25
vt 0.3125 0.25
vt 0.3125 0.75
vt 0.6875 0.75
vt 0.75 0.6875
vt 0.75 0.3125
vt 0.25 0.3125
vt 0.252669 0.681494
vt 0.6875 0.25
vt 0.3125 0.25
vt 0.3125 0.75
vt 0.6875 0.75
vt 0.6875 0.3125
vt 0.3125 0.3125
vt 0.3125 0.6875
vt 0.6875 0.6875
vt 0.75 0.25
vt 0.25 0.25
vt 0.25 0.75
vt 0.75 0.75
vt 0.125 0.8125
vt 0.1875 0.75
vt 0.1875 0.8125
vt 0.25 0.25
vt 0.25 0.1875
vt 0.0625 0.1875
vt 0.0625 0.25
vt 0.75 0.6875
vt 0.75 0.625
vt 0.25 0.625
vt 0.25 0.6875
vt 0.1875 0.75
vt 0.125 0.75
vt 0.125 0.875
vt 0.1875 0.8125
vt 0.25 0.75
vt 0.25 0.8125
vt 0.25 0.75
vt 0.1875 0.8125
vt 0.1875 0.75
vt 0.75 0.3125
vt 0.75 0.375
vt 0.25 0.375
vt 0.25 0.3125
vn 1 0 0
vn 0.5768653904781943 0.5776388270302465 -0.5775462810680728
vn -1 0 0
vn 0.5772827701030145 0.5774852436940535 0.5772827701030145
vn -0.7071067811865476 0 -0.7071067811865476
vn -1 0 0
vn -0.577276629896031 0.577479474637492 -0.5772946812056101
vn 0.7071067811865475 0 -0.7071067811865476
vn 0 0 -1
vn 1 0 0
vn 0.7071067811865475 0 -0.7071067811865476
vn 0 0 -1
vn -0.7071067811865476 0 -0.7071067811865476
vn -1 0 0
vn 1 0 0
vn 1 0 0
vn -1 0 0
vn -0.7071067811865476 0 -0.7071067811865476
vn 0.7071067811865475 0 -0.7071067811865476
vn 0 0 -1
vn -1 0 0
vn -0.5772827701030145 0.5774852436940534 0.5772827701030144
vn 0 0.7072199273210585 0.7069936169443093
vn 1 0 0
vn 1 0 0
vn 1 0 0
vn 0 0.7072199273210541 -0.7069936169443138
vn -1 0 0
vn -0.5770597251377083 -0.5772624936626948 0.5777283851727556
vn 1 0 0
vn -0.577276629896034 -0.577479474637495 -0.5772946812056041
vn 0.7071067811865476 0 0.7071067811865476
vn 1 0 0
vn 0.5770505643960293 -0.5772670686763027 0.5777329638787221
vn -0.7071067811865475 0 0.7071067811865476
vn 0 0 1
vn -1 0 0
vn -0.7071067811865475 0 0.7071067811865476
vn 0 0 1
vn 0.7071067811865476 0 0.7071067811865476
vn 1 0 0
vn -1 0 0
vn -1 0 0
vn 1 0 0
vn 0.7071067811865476 0 0.7071067811865476
vn -0.7071067811865475 0 0.7071067811865476
vn 0 0 1
vn 1 0 0
vn 0.5772766298960335 -0.5774794746374945 -0.5772946812056051
vn 0 -0.7072199273210585 -0.7069936169443093
vn -1 0 0
vn -1 0 0
vn -1 0 0
vn 0 -0.7072199273210541 0.7069936169443138
usemtl m_1110165a-a1fc-908a-0b74-0f15f66c6204
f 1/1/1 2/2/1 3/3/1 4/4/1
f 5/5/2 6/6/2 7/7/2 8/8/2
f 9/9/3 10/10/3 11/11/3 12/12/3
f 13/13/4 14/14/4 15/15/4 16/16/4
f 17/17/5 9/18/5 18/19/5 19/20/5
f 9/21/6 12/22/6 20/23/6 18/24/6
f 21/25/7 22/26/7 23/27/7 24/28/7
f 25/29/8 1/30/8 26/31/8 27/32/8
f 28/33/9 25/34/9 27/35/9 29/36/9
f 1/37/10 4/38/10 24/39/10 26/40/10
f 2/41/11 1/42/11 25/43/11 30/44/11
f 30/45/12 17/46/12 19/47/12 31/48/12
f 10/49/13 28/50/13 29/51/13 32/52/13
f 12/53/14 11/54/14 8/55/14 33/56/14
f 3/57/15 2/58/15 34/59/15 14/60/15
f 4/61/16 3/62/16 13/63/16 23/64/16
f 11/65/17 10/66/17 32/67/17 7/68/17
f 10/69/18 9/70/18 17/71/18 28/72/18
f 2/73/19 30/74/19 31/75/19 34/76/19
f 25/77/20 28/78/20 17/79/20 30/80/20
f 20/81/21 12/82/21 33/83/21
f 35/84/22 20/85/22 33/86/22 36/87/22
f 15/88/23 35/89/23 36/90/23 16/91/23
f 14/92/24 13/93/24 3/94/24
f 7/95/25 11/96/25 8/97/25
f 24/98/26 4/99/26 23/100/26
f 21/101/27 6/102/27 5/103/27 22/104/27
f 37/105/28 38/106/28 39/107/28 40/108/28
f 41/109/29 42/110/29 43/111/29 44/112/29
f 45/113/30 46/114/30 47/115/30 48/116/30
f 49/117/31 50/118/31 51/119/31 52/120/31
f 53/121/32 54/122/32 55/123/32 45/124/32
f 45/125/33 55/126/33 56/127/33 46/128/33
f 57/129/34 58/130/34 59/131/34 60/132/34
f 61/133/35 62/134/35 63/135/35 37/136/35
f 64/137/36 65/138/36 62/139/36 61/140/36
f 37/141/37 63/142/37 58/143/37 38/144/37
f 40/145/38 66/146/38 61/147/38 37/148/38
f 66/149/39 67/150/39 54/151/39 53/152/39
f 48/153/40 68/154/40 65/155/40 64/156/40
f 46/157/41 69/158/41 42/159/41 47/160/41
f 39/161/42 52/162/42 70/163/42 40/164/42
f 38/165/43 59/166/43 49/167/43 39/168/43
f 47/169/44 43/170/44 68/171/44 48/172/44
f 48/173/45 64/174/45 53/175/45 45/176/45
f 40/177/46 70/178/46 67/179/46 66/180/46
f 61/181/47 66/182/47 53/183/47 64/184/47
f 56/185/48 69/186/48 46/187/48
f 71/188/49 72/189/49 69/190/49 56/191/49
f 51/192/50 50/193/50 72/194/50 71/195/50
f 52/196/51 39/197/51 49/198/51
f 43/199/52 42/200/52 47/201/52
f 58/202/53 59/203/53 38/204/53
f 57/205/54 60/206/54 41/207/54 44/208/54