# Blender 4.5.2 LTS
# www.blender.org
mtllib viaduct_cross.mtl
o Cube.006
v 0.697673 0.993750 -0.000000
v 0.697672 1.000000 0.006250
v 0.302328 1.000000 0.006250
v 0.302328 0.993750 -0.000000
v 0.993750 0.697672 -0.000000
v 1.000000 0.697672 0.006250
v 1.000000 0.993750 0.302328
v 1.000000 0.993750 0.697672
v 0.993750 1.000000 0.697672
v 0.993750 1.000000 0.302327
v 0.993750 0.302328 -0.000000
v 1.000000 0.302328 0.006250
v 0.697674 0.006250 -0.000000
v 0.697672 0.000000 0.006250
v 0.993750 0.000000 0.302328
v 1.000000 0.006250 0.302328
v 0.302328 0.006250 -0.000000
v 0.302328 0.000000 0.006250
v 0.006250 0.302328 -0.000000
v 0.000000 0.302328 0.006250
v 0.000000 0.006250 0.302327
v 1.000000 0.697672 0.993750
v 0.993750 0.697672 1.000000
v 0.697672 0.993750 1.000000
v 0.302328 1.000000 0.993750
v 0.697672 1.000000 0.993750
v 0.302328 0.993750 1.000000
v 0.000000 0.697672 0.993750
v 0.000000 0.993750 0.697672
v 0.006250 1.000000 0.697672
v 0.006250 1.000000 0.302327
v 0.000000 0.993750 0.302327
v 0.302328 1.000000 0.006250
v 0.006250 0.697672 -0.000000
v 0.000000 0.697672 0.006250
v 0.006250 0.697672 1.000000
v 0.006250 0.302328 1.000000
v 0.000000 0.302328 0.993750
v 1.000000 0.302328 0.993750
v 0.993750 0.302328 1.000000
v 0.993750 0.000000 0.697672
v 0.697672 0.000000 0.993750
v 0.697672 0.006250 1.000000
v 0.302328 0.000000 0.993750
v 0.302328 0.006250 1.000000
v 0.006250 0.000000 0.697672
v 0.000000 0.006250 0.697672
v 0.006250 0.000000 0.302328
v 1.000000 0.006250 0.697672
v 0.697673 0.993750 -0.000000
v 0.302328 0.993750 -0.000000
v 0.302328 1.000000 0.006250
v 0.697672 1.000000 0.006250
v 0.697672 1.000000 0.006250
v 0.993750 1.000000 0.302327
v 1.000000 0.993750 0.302328
v 0.993750 1.000000 0.697672
v 1.000000 0.993750 0.697672
v 0.993750 0.302328 -0.000000
v 0.993750 0.697672 -0.000000
v 1.000000 0.697672 0.006250
v 1.000000 0.302328 0.006250
v 0.697674 0.006250 -0.000000
v 1.000000 0.006250 0.302328
v 0.697672 0.000000 0.006250
v 0.302328 0.000000 0.006250
v 0.302328 0.006250 -0.000000
v 0.006250 0.000000 0.302328
v 0.000000 0.006250 0.302327
v 0.697672 1.000000 0.993750
v 0.697672 0.993750 1.000000
v 0.302328 1.000000 0.993750
v 0.302328 0.993750 1.000000
v 0.000000 0.697672 0.993750
v 0.006250 0.697672 1.000000
v 0.006250 1.000000 0.302327
v 0.000000 0.993750 0.302327
v 0.000000 0.993750 0.697672
v 0.006250 1.000000 0.697672
v 0.006250 0.697672 -0.000000
v 0.000000 0.697672 0.006250
v 0.006250 0.302328 -0.000000
v 0.000000 0.302328 0.006250
v 0.000000 0.302328 0.993750
v 0.006250 0.302328 1.000000
v 1.000000 0.697672 0.993750
v 0.993750 0.697672 1.000000
v 0.993750 0.302328 1.000000
v 1.000000 0.302328 0.993750
v 0.993750 0.000000 0.697672
v 1.000000 0.006250 0.697672
v 0.697672 0.000000 0.993750
v 0.697672 0.006250 1.000000
v 0.302328 0.006250 1.000000
v 0.302328 0.000000 0.993750
v 0.006250 0.000000 0.697672
v 0.000000 0.006250 0.697672
v 0.993750 0.000000 0.302328
v 0.697673 0.993750 -0.000000
v 0.302328 0.993750 -0.000000
v 0.993750 0.697672 -0.000000
v 1.000000 0.697672 0.006250
v 1.000000 0.993750 0.302328
v 1.000000 0.993750 0.697672
v 0.697674 0.006250 -0.000000
v 0.697672 0.000000 0.006250
v 0.993750 0.000000 0.302328
v 1.000000 0.006250 0.302328
v 0.302328 0.006250 -0.000000
v 0.006250 0.302328 -0.000000
v 0.000000 0.302328 0.006250
v 0.000000 0.006250 0.302327
v 1.000000 0.697672 0.993750
v 0.993750 0.697672 1.000000
v 0.697672 0.993750 1.000000
v 0.302328 1.000000 0.993750
v 0.000000 0.697672 0.993750
v 0.000000 0.993750 0.697672
v 0.006250 1.000000 0.697672
v 0.006250 1.000000 0.302327
v 0.000000 0.993750 0.302327
v 0.302328 1.000000 0.006250
v 0.006250 0.302328 1.000000
v 0.000000 0.302328 0.993750
v 0.993750 0.302328 1.000000
v 0.993750 0.000000 0.697672
v 0.697672 0.000000 0.993750
v 0.697672 0.006250 1.000000
v 0.006250 0.000000 0.697672
v 0.000000 0.006250 0.697672
v 0.697673 0.993750 -0.000000
v 0.302328 0.993750 -0.000000
v 0.697672 1.000000 0.006250
v 0.993750 1.000000 0.302327
v 1.000000 0.993750 0.302328
v 0.993750 1.000000 0.697672
v 1.000000 0.993750 0.697672
v 0.993750 0.302328 -0.000000
v 1.000000 0.302328 0.006250
v 0.697674 0.006250 -0.000000
v 1.000000 0.006250 0.302328
v 0.302328 0.000000 0.006250
v 0.302328 0.006250 -0.000000
v 0.006250 0.000000 0.302328
v 0.000000 0.006250 0.302327
v 0.697672 1.000000 0.993750
v 0.697672 0.993750 1.000000
v 0.302328 1.000000 0.993750
v 0.302328 0.993750 1.000000
v 0.000000 0.697672 0.993750
v 0.006250 0.697672 1.000000
v 0.000000 0.993750 0.302327
v 0.006250 0.697672 -0.000000
v 0.000000 0.697672 0.006250
v 0.006250 0.302328 1.000000
v 0.993750 0.302328 1.000000
v 1.000000 0.302328 0.993750
v 0.993750 0.000000 0.697672
v 1.000000 0.006250 0.697672
v 0.302328 0.006250 1.000000
v 0.302328 0.000000 0.993750
v 0.006250 0.000000 0.697672
vn -0.0000 -0.7071 0.7071
vn -0.5774 -0.5773 0.5773
vn -0.7071 -0.7071 -0.0000
vn -0.7071 -0.0000 0.7071
vn -0.5773 0.5774 0.5773
vn -0.0000 0.7071 0.7071
vn 0.5773 0.5773 0.5774
vn -0.5774 -0.5774 -0.5774
vn -0.0000 -0.7071 -0.7071
vn 0.5774 -0.5774 -0.5774
vn 0.7071 -0.7071 -0.0000
vn 0.5773 -0.5773 0.5774
vn 0.7071 -0.0000 0.7071
vn 0.7071 -0.0000 -0.7071
vn -0.7071 -0.0000 -0.7071
vn -0.5774 0.5774 -0.5774
vn -0.0000 0.7071 -0.7071
vn 0.5773 0.5774 -0.5774
vn 0.7071 0.7071 -0.0000
vn -0.7071 0.7071 -0.0000
vn 0.5774 0.5773 -0.5774
vn 0.5774 -0.5773 -0.5773
vn -0.5773 -0.5774 -0.5773
vn 0.5774 0.5773 0.5774
vn -0.5774 0.5774 0.5773
vn -0.5773 0.5773 -0.5774
vn 0.5773 -0.5774 0.5774
vn -0.5774 -0.5774 0.5774
vn 0.5774 0.5773 -0.5773
vn 0.5773 -0.5774 -0.5773
vn -0.5773 -0.5773 -0.5774
vn 0.5774 0.5774 0.5774
vn -0.5774 0.5774 0.5774
vn 0.5774 -0.5774 0.5774
vn -0.5773 -0.5774 0.5774
vn -0.5774 -0.5773 0.5774
vn -0.5774 0.5773 0.5773
vn 0.5773 0.5774 0.5773
vn -0.5774 -0.5773 -0.5774
vn 0.5774 -0.5774 -0.5773
vn -0.5773 0.5774 -0.5774
vn 0.5774 0.5774 -0.5774
vt 0.375000 0.250000
vt 0.312500 0.250000
vt 0.312500 0.750000
vt 0.375000 0.750000
vt 0.250000 0.250000
vt 0.062500 0.187500
vt 0.250000 0.062500
vt 0.250000 0.687500
vt 0.750000 0.687500
vt 0.750000 0.625000
vt 0.250000 0.625000
vt 0.062500 0.125000
vt 0.375000 0.125000
vt 0.375000 0.187500
vt 0.125000 0.125000
vt 0.312500 0.062500
vt 0.125000 0.187500
vt 0.312500 0.125000
vt 0.312500 0.187500
vt 0.500000 0.125000
vt 0.500000 0.187500
vt 0.562500 0.125000
vt 0.562500 0.187500
vt 0.062500 0.250000
vt 0.437500 0.187500
vt 0.437500 0.250000
vt 0.250000 0.125000
vt 0.062500 0.208333
vt 0.437500 0.125000
s 1
usemtl m_4b802387-6640-77dc-b3ec-692fe302de88
f 1/1/1 2/2/1 3/3/1 4/4/1
f 1/5/2 5/6/2 6/6/2 7/7/2
f 7/8/3 8/9/3 9/10/3 10/11/3
f 11/1/4 12/2/4 6/3/4 5/4/4
f 13/6/5 14/12/5 15/13/5 16/14/5
f 14/9/6 13/10/6 17/11/6 18/8/6
f 17/2/7 19/15/7 20/15/7 21/16/7
f 8/2/8 22/12/8 23/12/8 24/16/8
f 25/4/9 26/1/9 24/2/9 27/3/9
f 28/2/10 29/17/10 30/17/10 25/16/10
f 31/8/11 30/9/11 29/10/11 32/11/11
f 4/18/12 33/19/12 31/6/12 32/12/12
f 34/1/13 35/2/13 20/3/13 19/4/13
f 28/9/14 36/10/14 37/11/14 38/8/14
f 22/4/15 39/1/15 40/2/15 23/3/15
f 41/16/16 42/2/16 43/2/16 40/17/16
f 42/8/17 44/9/17 45/10/17 43/11/17
f 46/15/18 47/13/18 38/14/18 37/17/18
f 21/4/19 47/1/19 46/2/19 48/3/19
f 41/9/20 49/10/20 16/11/20 15/8/20
f 50/4/17 51/1/17 52/2/17 53/3/17
f 50/20/21 54/21/21 55/6/21 56/12/21
f 56/9/19 55/10/19 57/11/19 58/8/19
f 59/4/14 60/1/14 61/2/14 62/3/14
f 63/2/22 59/17/22 62/17/22 64/16/22
f 65/8/9 66/9/9 67/10/9 63/11/9
f 67/17/23 66/15/23 68/22/23 69/23/23
f 58/13/24 57/14/24 70/6/24 71/12/24
f 72/1/6 73/2/6 71/3/6 70/4/6
f 74/24/25 75/6/25 73/25/25 72/26/25
f 76/9/20 77/10/20 78/11/20 79/8/20
f 51/27/26 80/5/26 81/5/26 77/28/26
f 80/4/15 82/1/15 83/2/15 81/3/15
f 74/8/4 84/9/4 85/10/4 75/11/4
f 86/1/13 87/2/13 88/3/13 89/4/13
f 90/15/27 91/29/27 89/25/27 88/17/27
f 92/9/1 93/10/1 94/11/1 95/8/1
f 96/6/28 95/7/28 94/7/28 85/5/28
f 69/1/3 68/2/3 96/3/3 97/4/3
f 90/8/11 98/9/11 64/10/11 91/11/11
f 99/5/29 103/7/29 102/6/29 101/6/29
f 105/6/30 108/14/30 107/13/30 106/12/30
f 109/2/31 112/16/31 111/15/31 110/15/31
f 104/2/32 115/16/32 114/12/32 113/12/32
f 117/2/33 116/16/33 119/17/33 118/17/33
f 100/18/26 121/12/26 120/6/26 122/19/26
f 126/16/34 125/17/34 128/2/34 127/2/34
f 129/15/35 123/17/35 124/14/35 130/13/35
f 131/20/36 135/12/36 134/6/36 133/21/36
f 140/2/37 141/16/37 139/17/37 138/17/37
f 143/17/38 145/23/38 144/22/38 142/15/38
f 137/13/39 147/12/39 146/6/39 136/14/39
f 150/24/40 148/26/40 149/25/40 151/6/40
f 132/27/12 152/28/12 154/5/12 153/5/12
f 158/15/41 156/17/41 157/25/41 159/29/41
f 162/6/42 155/5/42 160/7/42 161/7/42
