# Blender 4.4.3
# www.blender.org
mtllib viaduct_connected_long.mtl
o Cube.001
v 0.700175 -0.000175 -0.000000
v 1.000000 -0.000175 0.299825
v 0.000000 -0.000175 0.299825
v 0.299825 -0.000175 -0.000000
v 1.000000 -0.000175 0.700175
v 0.700175 -0.000175 1.000000
v 0.299825 -0.000175 1.000000
v 0.000000 -0.000175 0.700175
v 0.700175 1.000175 -0.000000
v 1.000000 1.000175 0.299825
v 0.299825 1.000175 -0.000000
v 0.000000 1.000175 0.299825
v 0.700175 1.000175 1.000000
v 1.000000 1.000175 0.700175
v 0.000000 1.000175 0.700175
v 0.299825 1.000175 1.000000
vn -1.0000 -0.0000 -0.0000
vn -0.0000 -0.0000 1.0000
vn 1.0000 -0.0000 -0.0000
vn -0.7071 -0.0000 -0.7071
vn 0.7071 -0.0000 0.7071
vn -0.7071 -0.0000 0.7071
vn 0.7071 -0.0000 -0.7071
vn -0.0000 -0.0000 -1.0000
vt 0.199956 0.574956
vt 0.300044 0.574956
vt 0.300044 0.675044
vt 0.199956 0.675044
vt 0.449956 0.824956
vt 0.550044 0.824956
vt 0.550044 0.925044
vt 0.449956 0.925044
vt 0.699956 0.574956
vt 0.800044 0.574956
vt 0.800044 0.675044
vt 0.699956 0.675044
vt 0.199956 0.500000
vt 0.300044 0.500000
vt 0.625000 0.824956
vt 0.625000 0.925044
vt 0.300044 0.750000
vt 0.199956 0.750000
vt 0.625000 0.324956
vt 0.625000 0.425044
vt 0.550044 0.425044
vt 0.550044 0.324956
vt 0.449956 0.324956
vt 0.449956 0.425044
s 1
usemtl Material
f 12/1/1 3/2/1 8/3/1 15/4/1
f 7/5/2 6/6/2 13/7/2 16/8/2
f 2/9/3 10/10/3 14/11/3 5/12/3
f 3/2/4 12/1/4 11/13/4 4/14/4
f 5/15/5 14/16/5 13/7/5 6/6/5
f 15/4/6 8/3/6 7/17/6 16/18/6
f 10/19/7 2/20/7 1/21/7 9/22/7
f 11/23/8 9/22/8 1/21/8 4/24/8
