# Blender 4.4.3
# www.blender.org
mtllib viaduct_connected_both_sides.mtl
o Cube
v 0.299720 0.006250 0.302328
v 0.699930 0.006250 0.302328
v 0.699930 0.006250 0.697672
v 0.299720 0.006250 0.697672
v 0.006423 0.697672 1.000000
v 0.000175 0.697673 0.993750
v -0.000175 0.993750 0.697672
v 0.302397 0.993750 1.000000
v 0.000175 0.697673 0.993750
v -0.000175 0.993750 0.697672
v 0.299720 0.993750 0.697672
v 0.699930 0.993750 0.697672
v 0.697603 0.006250 1.000000
v 0.999825 0.006250 0.697672
v 0.999825 0.302328 0.993750
v 0.993577 0.302328 1.000000
v 0.006423 0.697672 1.000000
v 0.999825 0.993750 0.697672
v 0.000175 0.302328 0.993750
v 0.006423 0.302328 1.000000
v 0.302397 0.006250 1.000000
v -0.000175 0.006250 0.697672
v -0.000175 0.006250 0.302328
v -0.000175 0.993750 0.302328
v 0.697603 0.993750 1.000000
v 0.999825 0.006250 0.302328
v 0.999825 0.697672 0.993750
v 0.993577 0.697672 1.000000
v 0.699930 0.993750 0.302328
v 0.299720 0.993750 0.302328
v 0.006423 0.302328 0.000000
v 0.000175 0.302327 0.006250
v 0.299720 0.006250 0.697672
v 0.302397 0.006250 0.000000
v 0.699930 0.006250 0.697672
v 0.699930 0.006250 0.302328
v 0.697603 0.993750 -0.000000
v 0.999825 0.993750 0.302328
v 0.999825 0.697672 0.006250
v 0.993577 0.697672 -0.000000
v 0.299720 0.006250 0.302328
v 0.000175 0.697672 0.006250
v 0.006423 0.697672 0.000000
v 0.302397 0.993750 -0.000000
v 0.697603 0.006250 0.000000
v 0.999825 0.302328 0.006250
v 0.993577 0.302328 0.000000
v 0.302397 0.993750 1.000000
v 0.299720 0.993750 0.697672
v 0.699930 0.993750 0.697672
v 0.697603 0.006250 1.000000
v 0.999825 0.006250 0.697672
v 0.999825 0.302328 0.993750
v 0.993577 0.302328 1.000000
v 0.999825 0.993750 0.697672
v 0.000175 0.302328 0.993750
v 0.006423 0.302328 1.000000
v 0.302397 0.006250 1.000000
v -0.000175 0.006250 0.697672
v -0.000175 0.006250 0.302328
v -0.000175 0.993750 0.302328
v 0.697603 0.993750 1.000000
v 0.999825 0.006250 0.302328
v 0.999825 0.697672 0.993750
v 0.993577 0.697672 1.000000
v 0.699930 0.993750 0.302328
v 0.299720 0.993750 0.302328
v 0.006423 0.302328 0.000000
v 0.000175 0.302327 0.006250
v 0.302397 0.006250 0.000000
v 0.697603 0.993750 -0.000000
v 0.999825 0.993750 0.302328
v 0.999825 0.697672 0.006250
v 0.993577 0.697672 -0.000000
v 0.000175 0.697672 0.006250
v 0.006423 0.697672 0.000000
v 0.302397 0.993750 -0.000000
v 0.697603 0.006250 0.000000
v 0.999825 0.302328 0.006250
v 0.993577 0.302328 0.000000
vn -0.0000 -1.0000 -0.0000
vn 0.5775 -0.5769 -0.5776
vn 0.5777 -0.5769 -0.5775
vn -0.0000 1.0000 -0.0000
vn 0.5775 -0.5773 0.5773
vn 0.5775 0.5773 -0.5773
vn 0.5774 0.5772 -0.5775
vn 0.5775 0.5773 0.5773
vn 0.7072 -0.0000 0.7070
vn 0.7072 -0.0000 -0.7070
vn 0.5773 0.5771 0.5777
vn 0.5777 0.5769 0.5775
vn 0.5773 -0.5771 0.5777
vn 0.5775 -0.5773 -0.5773
vn -0.5777 0.5768 0.5775
vn -0.5777 0.5769 0.5775
vn -0.5775 0.5773 -0.5773
vn -0.5775 -0.5773 0.5773
vn -0.5775 -0.5773 -0.5773
vn -0.7072 -0.0000 -0.7070
vn -0.7072 -0.0000 0.7070
vn -0.5773 -0.5771 -0.5777
vn -0.5777 -0.5768 -0.5775
vn -0.5775 0.5773 -0.5772
vn -0.5773 0.5771 -0.5777
vn -0.5775 0.5773 0.5773
vt 0.750000 0.250000
vt 0.250000 0.250000
vt 0.250000 0.750000
vt 0.750000 0.750000
vt 0.187500 0.062500
vt 0.062500 0.062500
vt 0.062500 0.250000
vt 0.187500 0.250000
vt 0.362635 0.873999
vt 0.375000 0.812500
vt 0.187500 0.812500
vt 0.182819 0.873999
vt 0.250000 0.687500
vt 0.750000 0.687500
vt 0.750000 0.312500
vt 0.250000 0.312500
vt 0.125000 0.062500
vt 0.125000 0.250000
vt 0.687500 0.750000
vt 0.687500 0.250000
vt 0.312500 0.250000
vt 0.312500 0.750000
vt 0.125000 0.812500
vt 0.125000 0.875000
vt 0.062500 0.187500
vt 0.250000 0.187500
vt 0.250000 0.062500
vt 0.375000 0.250000
vt 0.375000 0.750000
vt 0.187500 0.750000
vt 0.187500 0.875000
vt 0.250000 0.875000
vt 0.750000 0.625000
vt 0.250000 0.625000
s 1
usemtl m_1110165a-a1fc-908a-0b74-0f15f66c6204.001
f 1/1/1 2/2/1 3/3/1 4/4/1
f 5/5/2 6/6/3 7/7/3 8/8/3
f 29/1/4 30/2/4 11/3/4 12/4/4
f 13/9/5 14/10/5 15/11/5 16/12/5
f 29/13/4 12/14/4 18/15/4 38/16/4
f 19/5/6 20/17/7 21/18/6 22/8/6
f 1/13/1 4/14/1 22/15/1 23/16/1
f 12/19/4 11/20/4 8/21/4 25/22/4
f 3/13/1 2/14/1 26/15/1 14/16/1
f 4/19/1 3/20/1 13/21/1 21/22/1
f 11/13/4 30/14/4 24/15/4 7/16/4
f 18/11/4 12/23/4 25/24/4
f 27/25/8 18/26/8 25/27/8 28/6/8
f 15/22/9 27/21/9 28/28/9 16/29/9
f 14/24/1 13/30/1 3/31/1
f 7/3/1 11/30/1 8/11/1
f 22/24/1 4/32/1 21/3/1
f 19/33/10 6/34/10 5/13/10 20/14/10
f 31/5/11 32/6/11 23/7/12 34/8/11
f 37/9/6 38/10/6 39/11/6 40/12/6
f 42/5/5 43/17/13 44/18/5 24/8/13
f 2/19/1 1/20/1 34/21/1 45/22/1
f 30/19/4 29/20/4 37/21/4 44/22/4
f 26/11/1 2/23/1 45/24/1
f 46/25/14 26/26/14 45/27/14 47/6/14
f 39/22/10 46/21/10 47/28/10 40/29/10
f 38/24/4 37/30/4 29/31/4
f 23/3/4 1/30/4 34/11/4
f 24/24/4 30/32/4 44/3/4
f 42/33/9 32/34/9 31/13/9 43/14/9
f 41/1/4 33/4/4 35/3/4 36/2/4
f 17/5/15 48/8/16 10/7/15 9/6/15
f 66/1/1 50/4/1 49/3/1 67/2/1
f 51/9/17 54/12/17 53/11/17 52/10/17
f 66/13/1 72/16/1 55/15/1 50/14/1
f 56/5/18 59/8/18 58/18/18 57/17/18
f 41/13/4 60/16/4 59/15/4 33/14/4
f 50/19/1 62/22/1 48/21/1 49/20/1
f 35/13/4 52/16/4 63/15/4 36/14/4
f 33/19/4 58/22/4 51/21/4 35/20/4
f 49/13/1 10/16/1 61/15/1 67/14/1
f 55/11/1 62/24/1 50/23/1
f 64/25/19 65/6/19 62/27/19 55/26/19
f 53/22/20 54/29/20 65/28/20 64/21/20
f 52/24/4 35/31/4 51/30/4
f 10/3/4 48/11/4 49/30/4
f 59/24/4 58/3/4 33/32/4
f 56/33/21 57/14/21 17/13/21 9/34/21
f 68/5/22 70/8/22 60/7/23 69/6/22
f 71/9/18 74/12/18 73/11/18 72/10/18
f 75/5/24 61/8/25 77/18/24 76/17/25
f 36/19/4 78/22/4 70/21/4 41/20/4
f 67/19/1 77/22/1 71/21/1 66/20/1
f 63/11/4 78/24/4 36/23/4
f 79/25/26 80/6/26 78/27/26 63/26/26
f 73/22/21 74/29/21 80/28/21 79/21/21
f 72/24/1 66/31/1 71/30/1
f 60/3/1 70/11/1 41/30/1
f 61/24/1 77/3/1 67/32/1
f 75/33/20 76/14/20 68/13/20 69/34/20
