# Blender 4.4.3
# www.blender.org
mtllib viaduct_connected_cross.mtl
o Cube
v 0.700175 1.000175 -0.000000
v 1.000175 0.299825 -0.000000
v 0.700175 -0.000175 0.000000
v 1.000175 0.000000 0.299825
v 1.000175 1.000000 0.299825
v 0.700175 1.000175 1.000000
v 1.000175 0.700175 -0.000000
v 0.700175 -0.000175 1.000000
v 0.299825 1.000175 -0.000000
v -0.000175 0.000000 0.299825
v -0.000175 0.299825 -0.000000
v 0.299825 -0.000175 0.000000
v -0.000175 1.000000 0.299825
v 0.299825 1.000175 1.000000
v 0.299825 -0.000175 1.000000
v -0.000175 0.700175 -0.000000
v 1.000175 1.000000 0.700175
v 1.000175 0.700175 1.000000
v 1.000175 0.299825 1.000000
v 1.000175 0.000000 0.700175
v -0.000175 0.700175 1.000000
v -0.000175 1.000000 0.700175
v -0.000175 0.000000 0.700175
v -0.000175 0.299825 1.000000
vn 0.5774 -0.5774 -0.5774
vn 0.5774 0.5774 0.5774
vn 0.5774 -0.5774 0.5774
vn 0.5774 0.5774 -0.5774
vn -0.5774 -0.5774 0.5774
vt 0.000000 0.000000
s 0
usemtl Material
f 3/1/1 2/1/1 4/1/1
f 11/1/2 10/1/2 12/1/2
f 21/1/1 22/1/1 14/1/1
f 13/1/3 16/1/3 9/1/3
f 20/1/3 19/1/3 8/1/3
f 24/1/4 15/1/4 23/1/4
f 7/1/5 5/1/5 1/1/5
f 18/1/2 17/1/2 6/1/2
l 2 7
l 11 16
l 21 24
l 18 19
l 5 17
l 10 23
l 3 12
l 6 14
l 4 20
l 8 15
l 13 22
l 1 9
