# Blender 4.5.0
# www.blender.org
mtllib viaduct_teleporter.mtl
o Cube
v 0.006250 0.700140 0.302327
v 0.302328 0.700140 0.006250
v 0.302328 -0.000087 0.006250
v 0.006250 -0.000087 0.302328
v 0.006250 0.700140 0.697672
v 0.302328 0.999913 0.697672
v 0.302328 0.999913 0.302327
v 0.993750 0.700140 0.697672
v 0.697672 0.700140 0.993750
v 0.697672 -0.000087 0.993750
v 0.993750 -0.000087 0.697672
v 0.006250 -0.000087 0.697672
v 0.697672 0.700140 0.006250
v 0.697672 0.999913 0.302327
v 0.993750 0.700140 0.302327
v 0.697672 0.999913 0.697672
v 0.302328 0.700140 0.993750
v 0.993750 -0.000087 0.302328
v 0.697672 -0.000087 0.006250
v 0.302328 -0.000087 0.993750
v 0.055625 0.710132 0.322094
v 0.055625 0.710132 0.677905
v 0.322095 0.979928 0.677905
v 0.322095 0.979928 0.322094
v 0.677905 0.710132 0.055625
v 0.677905 0.979928 0.322094
v 0.944375 0.710132 0.322094
v 0.322095 0.710132 0.055625
v 0.944375 0.710132 0.677905
v 0.677905 0.979928 0.677905
v 0.677905 0.710132 0.944375
v 0.322095 0.710132 0.944375
v 0.006250 0.700140 0.302327
v 0.302328 0.700140 0.006250
v 0.302328 -0.000087 0.006250
v 0.006250 -0.000087 0.302328
v 0.006250 0.700140 0.697672
v 0.302328 0.999913 0.697672
v 0.302328 0.999913 0.302327
v 0.993750 0.700140 0.697672
v 0.697672 0.700140 0.993750
v 0.697672 -0.000087 0.993750
v 0.993750 -0.000087 0.697672
v 0.006250 -0.000087 0.697672
v 0.697672 0.700140 0.006250
v 0.697672 0.999913 0.302327
v 0.993750 0.700140 0.302327
v 0.697672 0.999913 0.697672
v 0.302328 0.700140 0.993750
v 0.993750 -0.000087 0.302328
v 0.697672 -0.000087 0.006250
v 0.302328 -0.000087 0.993750
v 0.055625 0.710132 0.322094
v 0.055625 0.710132 0.677905
v 0.322095 0.979928 0.677905
v 0.322095 0.979928 0.322094
v 0.677905 0.710132 0.055625
v 0.677905 0.979928 0.322094
v 0.944375 0.710132 0.322094
v 0.322095 0.710132 0.055625
v 0.944375 0.710132 0.677905
v 0.677905 0.979928 0.677905
v 0.677905 0.710132 0.944375
v 0.322095 0.710132 0.944375
vn -0.7071 -0.0000 -0.7071
vn -0.0000 -0.7032 0.7110
vn 0.7071 -0.0000 0.7071
vn -1.0000 -0.0000 -0.0000
vn 0.5797 0.5726 -0.5797
vn -0.5797 0.5726 -0.5797
vn 0.5797 0.5726 0.5797
vn -0.5797 0.5726 0.5797
vn 1.0000 -0.0000 -0.0000
vn 0.7071 -0.0000 -0.7071
vn 0.4093 0.4042 -0.8180
vn 0.3163 0.8845 -0.3430
vn 0.3668 0.7648 -0.5297
vn -0.0000 -0.0000 1.0000
vn 0.7110 -0.7032 -0.0000
vn 0.3430 0.8845 -0.3163
vn 0.8180 0.4042 -0.4093
vn 0.5297 0.7648 -0.3668
vn -0.0000 1.0000 -0.0000
vn -0.7071 -0.0000 0.7071
vn -0.0000 -0.0000 -1.0000
vn -0.0000 -1.0000 -0.0000
vn -0.7115 0.7027 -0.0000
vn -0.0000 0.7027 -0.7115
vn 0.7115 0.7027 -0.0000
vn -0.0000 0.7027 0.7115
vn -0.3163 0.8845 0.3430
vn -0.3163 0.8845 -0.3430
vn -0.3668 0.7648 -0.5297
vn -0.3668 0.7648 0.5297
vn -0.3430 0.8845 0.3163
vn -0.8180 0.4042 0.4093
vn -0.5297 0.7648 0.3668
vn -0.3430 0.8845 -0.3163
vn -0.5297 0.7648 -0.3668
vn -0.4093 0.4042 -0.8180
vn -0.0000 -0.7032 -0.7110
vn -0.7110 -0.7032 -0.0000
vn 0.8180 0.4042 0.4093
vn 0.3430 0.8845 0.3163
vn 0.5297 0.7648 0.3668
vn -0.4093 0.4042 0.8180
vn -0.8180 0.4042 -0.4093
vn 0.3163 0.8845 0.3430
vn 0.3668 0.7648 0.5296
vn 0.4093 0.4042 0.8180
vn -0.0000 0.7032 -0.7110
vn -0.5797 -0.5726 0.5797
vn 0.5797 -0.5726 0.5797
vn -0.5797 -0.5726 -0.5797
vn 0.5797 -0.5726 -0.5797
vn -0.4093 -0.4042 0.8180
vn -0.3668 -0.7648 0.5297
vn -0.3163 -0.8845 0.3430
vn -0.7110 0.7032 -0.0000
vn -0.3430 -0.8845 0.3163
vn -0.5297 -0.7648 0.3668
vn -0.8180 -0.4042 0.4093
vn 0.7115 -0.7027 -0.0000
vn -0.0000 -0.7027 0.7115
vn -0.7115 -0.7027 -0.0000
vn -0.0000 -0.7027 -0.7115
vn 0.3163 -0.8845 -0.3430
vn 0.3668 -0.7648 -0.5296
vn 0.3668 -0.7648 0.5297
vn 0.3163 -0.8845 0.3430
vn 0.3430 -0.8845 -0.3163
vn 0.5297 -0.7648 -0.3668
vn 0.8180 -0.4042 -0.4093
vn 0.3430 -0.8845 0.3163
vn 0.5297 -0.7648 0.3668
vn 0.4093 -0.4042 0.8180
vn -0.0000 0.7032 0.7110
vn 0.7110 0.7032 -0.0000
vn -0.8180 -0.4042 -0.4093
vn -0.5297 -0.7648 -0.3668
vn -0.3430 -0.8845 -0.3163
vn 0.4093 -0.4042 -0.8180
vn 0.8180 -0.4042 0.4093
vn -0.3668 -0.7648 -0.5296
vn -0.3163 -0.8845 -0.3430
vn -0.4093 -0.4042 -0.8180
vt 0.748999 0.001001
vt 0.626001 0.001001
vt 0.626001 0.248999
vt 0.748999 0.248999
vt 0.251001 0.936499
vt 0.373999 0.936499
vt 0.373999 0.907251
vt 0.251001 0.907251
vt 0.373999 0.001001
vt 0.251001 0.001001
vt 0.251001 0.248999
vt 0.373999 0.248999
vt 0.498999 0.373999
vt 0.498999 0.251001
vt 0.251001 0.251001
vt 0.251001 0.373999
vt 0.251001 0.751001
vt 0.251001 0.872998
vt 0.372998 0.751001
vt 0.126001 0.872998
vt 0.126001 0.751001
vt 0.247998 0.751001
vt 0.876001 0.372998
vt 0.876001 0.251001
vt 0.997998 0.251001
vt 0.002002 0.873999
vt 0.123999 0.873999
vt 0.123999 0.752002
vt 0.498999 0.001001
vt 0.376001 0.001001
vt 0.376001 0.248999
vt 0.498999 0.248999
vt 0.498999 0.498999
vt 0.498999 0.376001
vt 0.251001 0.376001
vt 0.251001 0.498999
vt 0.936499 0.623999
vt 0.936499 0.501001
vt 0.907251 0.501001
vt 0.907251 0.623999
vt 0.251001 0.623999
vt 0.498999 0.623999
vt 0.498999 0.501001
vt 0.251001 0.501001
vt 0.936499 0.498999
vt 0.936499 0.376001
vt 0.907251 0.376001
vt 0.907251 0.498999
vt 0.501001 0.905249
vt 0.623999 0.905249
vt 0.623999 0.876001
vt 0.501001 0.876001
vt 0.873999 0.751001
vt 0.751001 0.751001
vt 0.751001 0.873999
vt 0.873999 0.873999
vt 0.623999 0.376001
vt 0.501001 0.376001
vt 0.501001 0.623999
vt 0.623999 0.623999
vt 0.251001 0.748999
vt 0.498999 0.748999
vt 0.498999 0.626001
vt 0.251001 0.626001
vt 0.248999 0.428098
vt 0.178098 0.498999
vt 0.071902 0.498999
vt 0.001001 0.428098
vt 0.001001 0.321902
vt 0.071902 0.251001
vt 0.178098 0.251001
vt 0.248999 0.321902
vt 0.998999 0.001001
vt 0.876001 0.001001
vt 0.876001 0.123999
vt 0.998999 0.123999
vt 0.123999 0.876001
vt 0.001001 0.876001
vt 0.001001 0.998999
vt 0.123999 0.998999
vt 0.248999 0.876001
vt 0.126001 0.876001
vt 0.126001 0.998999
vt 0.248999 0.998999
vt 0.998999 0.126001
vt 0.876001 0.126001
vt 0.876001 0.248999
vt 0.998999 0.248999
vt 0.998999 0.873999
vt 0.998999 0.751001
vt 0.969751 0.751001
vt 0.969751 0.873999
vt 0.751001 0.967749
vt 0.873999 0.967749
vt 0.873999 0.938501
vt 0.751001 0.938501
vt 0.998999 0.748999
vt 0.998999 0.626001
vt 0.969751 0.626001
vt 0.969751 0.748999
vt 0.501001 0.936499
vt 0.623999 0.936499
vt 0.623999 0.907251
vt 0.501001 0.907251
vt 0.936499 0.873999
vt 0.936499 0.751001
vt 0.907251 0.751001
vt 0.907251 0.873999
vt 0.376001 0.936499
vt 0.498999 0.936499
vt 0.498999 0.907251
vt 0.376001 0.907251
vt 0.936499 0.748999
vt 0.936499 0.626001
vt 0.907251 0.626001
vt 0.907251 0.748999
vt 0.751001 0.905249
vt 0.873999 0.905249
vt 0.873999 0.876001
vt 0.751001 0.876001
vt 0.905249 0.623999
vt 0.905249 0.501001
vt 0.876001 0.501001
vt 0.876001 0.623999
vt 0.376001 0.905249
vt 0.498999 0.905249
vt 0.498999 0.876001
vt 0.376001 0.876001
vt 0.905249 0.498999
vt 0.905249 0.376001
vt 0.876001 0.376001
vt 0.876001 0.498999
vt 0.251001 0.905249
vt 0.373999 0.905249
vt 0.373999 0.876001
vt 0.251001 0.876001
vt 0.873999 0.498999
vt 0.873999 0.251001
vt 0.751001 0.251001
vt 0.751001 0.498999
vt 0.373999 0.998999
vt 0.373999 0.969751
vt 0.251001 0.969751
vt 0.251001 0.998999
vt 0.873999 0.248999
vt 0.873999 0.001001
vt 0.751001 0.001001
vt 0.751001 0.248999
vt 0.501001 0.748999
vt 0.748999 0.748999
vt 0.748999 0.626001
vt 0.501001 0.626001
vt 0.373999 0.873999
vt 0.252002 0.873999
vt 0.373999 0.752002
vt 0.248999 0.752002
vt 0.127002 0.873999
vt 0.248999 0.873999
vt 0.998999 0.252002
vt 0.998999 0.373999
vt 0.877002 0.373999
vt 0.122998 0.751001
vt 0.001001 0.872998
vt 0.001001 0.751001
vt 0.748999 0.623999
vt 0.748999 0.376001
vt 0.626001 0.376001
vt 0.626001 0.623999
vt 0.501001 0.373999
vt 0.748999 0.373999
vt 0.748999 0.251001
vt 0.501001 0.251001
vt 0.905249 0.626001
vt 0.876001 0.626001
vt 0.876001 0.748999
vt 0.905249 0.748999
vt 0.248999 0.748999
vt 0.248999 0.626001
vt 0.001001 0.626001
vt 0.001001 0.748999
vt 0.905249 0.751001
vt 0.876001 0.751001
vt 0.876001 0.873999
vt 0.905249 0.873999
vt 0.748999 0.905249
vt 0.748999 0.876001
vt 0.626001 0.876001
vt 0.626001 0.905249
vt 0.748999 0.751001
vt 0.626001 0.751001
vt 0.626001 0.873999
vt 0.748999 0.873999
vt 0.623999 0.248999
vt 0.623999 0.001001
vt 0.501001 0.001001
vt 0.501001 0.248999
vt 0.248999 0.623999
vt 0.248999 0.501001
vt 0.001001 0.501001
vt 0.001001 0.623999
vt 0.248999 0.071902
vt 0.248999 0.178098
vt 0.178098 0.248999
vt 0.071902 0.248999
vt 0.001001 0.178098
vt 0.001001 0.071902
vt 0.071902 0.001001
vt 0.178098 0.001001
vt 0.873999 0.626001
vt 0.751001 0.626001
vt 0.751001 0.748999
vt 0.873999 0.748999
vt 0.873999 0.501001
vt 0.751001 0.501001
vt 0.751001 0.623999
vt 0.873999 0.623999
vt 0.623999 0.751001
vt 0.501001 0.751001
vt 0.501001 0.873999
vt 0.623999 0.873999
vt 0.498999 0.751001
vt 0.376001 0.751001
vt 0.376001 0.873999
vt 0.498999 0.873999
vt 0.967749 0.376001
vt 0.938501 0.376001
vt 0.938501 0.498999
vt 0.967749 0.498999
vt 0.748999 0.936499
vt 0.748999 0.907251
vt 0.626001 0.907251
vt 0.626001 0.936499
vt 0.967749 0.501001
vt 0.938501 0.501001
vt 0.938501 0.623999
vt 0.967749 0.623999
vt 0.873999 0.936499
vt 0.873999 0.907251
vt 0.751001 0.907251
vt 0.751001 0.936499
vt 0.967749 0.626001
vt 0.938501 0.626001
vt 0.938501 0.748999
vt 0.967749 0.748999
vt 0.373999 0.967749
vt 0.373999 0.938501
vt 0.251001 0.938501
vt 0.251001 0.967749
vt 0.967749 0.751001
vt 0.938501 0.751001
vt 0.938501 0.873999
vt 0.967749 0.873999
vt 0.498999 0.967749
vt 0.498999 0.938501
vt 0.376001 0.938501
vt 0.376001 0.967749
vt 0.998999 0.376001
vt 0.969751 0.376001
vt 0.969751 0.498999
vt 0.998999 0.498999
vt 0.623999 0.967749
vt 0.623999 0.938501
vt 0.501001 0.938501
vt 0.501001 0.967749
vt 0.998999 0.501001
vt 0.969751 0.501001
vt 0.969751 0.623999
vt 0.998999 0.623999
vt 0.748999 0.967749
vt 0.748999 0.938501
vt 0.626001 0.938501
vt 0.626001 0.967749
s 1
usemtl Material.001
f 1/1/1 2/2/1 3/3/1 4/4/1
f 16/5/2 6/6/2 23/7/2 30/8/2
f 8/9/3 9/10/3 10/11/3 11/12/3
f 4/13/4 12/14/4 5/15/4 1/16/4
f 13/17/5 14/18/5 15/19/5
f 7/20/6 2/21/6 1/22/6
f 16/23/7 9/24/7 8/25/7
f 5/26/8 17/27/8 6/28/8
f 15/29/9 8/30/9 11/31/9 18/32/9
f 18/33/10 19/34/10 13/35/10 15/36/10
f 16/37/11 8/38/12 29/39/13 30/40/11
f 10/41/14 9/42/14 17/43/14 20/44/14
f 14/45/15 16/46/15 30/47/15 26/48/15
f 2/49/16 7/50/17 24/51/17 28/52/18
f 16/53/19 14/54/19 7/55/19 6/56/19
f 12/57/20 20/58/20 17/59/20 5/60/20
f 13/61/21 19/62/21 3/63/21 2/64/21
s 0
f 5/65/22 1/66/22 2/67/22 13/68/22 15/69/22 8/70/22 9/71/22 17/72/22
s 1
f 22/73/23 23/74/23 24/75/23 21/76/23
f 28/77/24 24/78/24 26/79/24 25/80/24
f 27/81/25 26/82/25 30/83/25 29/84/25
f 31/85/26 30/86/26 23/87/26 32/88/26
f 1/89/27 5/90/28 22/91/29 21/92/30
f 9/93/31 16/94/32 30/95/32 31/96/33
f 13/97/34 2/98/16 28/99/18 25/100/35
f 5/101/28 6/102/36 23/103/36 22/104/29
f 7/105/37 14/106/37 26/107/37 24/108/37
f 6/109/38 7/110/38 24/111/38 23/112/38
f 6/113/39 17/114/40 32/115/41 23/116/39
f 7/117/42 1/118/27 21/119/30 24/120/42
f 14/121/43 13/122/34 25/123/35 26/124/43
f 17/125/40 9/126/31 31/127/33 32/128/41
f 8/129/12 15/130/44 27/131/45 29/132/13
f 15/133/44 14/134/46 26/135/46 27/136/45
f 33/137/3 36/138/3 35/139/3 34/140/3
f 48/141/47 62/142/47 55/143/47 38/144/47
f 40/145/1 43/146/1 42/147/1 41/148/1
f 36/149/9 33/150/9 37/151/9 44/152/9
f 45/153/48 47/154/48 46/155/48
f 39/156/49 33/157/49 34/158/49
f 48/159/50 40/160/50 41/161/50
f 37/162/51 38/163/51 49/164/51
f 47/165/4 50/166/4 43/167/4 40/168/4
f 50/169/20 47/170/20 45/171/20 51/172/20
f 48/173/52 62/174/52 61/175/53 40/176/54
f 42/177/21 52/178/21 49/179/21 41/180/21
f 46/181/55 58/182/55 62/183/55 48/184/55
f 34/185/56 60/186/57 56/187/58 39/188/58
f 48/189/22 38/190/22 39/191/22 46/192/22
f 44/193/10 37/194/10 49/195/10 52/196/10
f 45/197/14 34/198/14 35/199/14 51/200/14
s 0
f 37/201/19 49/202/19 41/203/19 40/204/19 47/205/19 45/206/19 34/207/19 33/208/19
s 1
f 54/209/59 53/210/59 56/211/59 55/212/59
f 60/213/60 57/214/60 58/215/60 56/216/60
f 59/217/61 61/218/61 62/219/61 58/220/61
f 63/221/62 64/222/62 55/223/62 62/224/62
f 33/225/63 53/226/64 54/227/65 37/228/66
f 41/229/67 63/230/68 62/231/69 48/232/69
f 45/233/70 57/234/71 60/235/57 34/236/56
f 37/237/66 54/238/65 55/239/72 38/240/72
f 39/241/73 56/242/73 58/243/73 46/244/73
f 38/245/74 55/246/74 56/247/74 39/248/74
f 38/249/75 55/250/75 64/251/76 49/252/77
f 39/253/78 56/254/78 53/255/64 33/256/63
f 46/257/79 58/258/79 57/259/71 45/260/70
f 49/261/77 64/262/76 63/263/68 41/264/67
f 40/265/54 61/266/53 59/267/80 47/268/81
f 47/269/81 59/270/80 58/271/82 46/272/82
