# Blender 4.4.3
# www.blender.org
mtllib box.mtl
o Cube
v 0.134421 0.000000 0.865579
v 0.134421 0.134421 1.000000
v 0.000000 0.134421 0.865579
v 0.134421 0.865579 1.000000
v 0.134421 1.000000 0.865579
v 0.000000 0.865579 0.865579
v 0.134421 0.000000 0.134421
v 0.000000 0.134421 0.134421
v 0.134421 0.134421 0.000000
v 0.134421 1.000000 0.134421
v 0.134421 0.865579 0.000000
v 0.000000 0.865579 0.134421
v 0.865579 0.000000 0.865579
v 1.000000 0.134421 0.865579
v 0.865579 0.134421 1.000000
v 0.865579 1.000000 0.865579
v 0.865579 0.865579 1.000000
v 1.000000 0.865579 0.865579
v 0.865579 0.000000 0.134421
v 0.865579 0.134421 0.000000
v 1.000000 0.134421 0.134421
v 0.865579 1.000000 0.134421
v 1.000000 0.865579 0.134421
v 0.865579 0.865579 0.000000
v 0.134421 0.000000 0.865579
v 0.134421 0.134421 1.000000
v 0.000000 0.134421 0.865579
v 0.134421 0.865579 1.000000
v 0.134421 1.000000 0.865579
v 0.000000 0.865579 0.865579
v 0.134421 0.000000 0.134421
v 0.000000 0.134421 0.134421
v 0.134421 0.134421 0.000000
v 0.134421 1.000000 0.134421
v 0.134421 0.865579 0.000000
v 0.000000 0.865579 0.134421
v 0.865579 0.000000 0.865579
v 1.000000 0.134421 0.865579
v 0.865579 0.134421 1.000000
v 0.865579 1.000000 0.865579
v 0.865579 0.865579 1.000000
v 1.000000 0.865579 0.865579
v 0.865579 0.000000 0.134421
v 0.865579 0.134421 0.000000
v 1.000000 0.134421 0.134421
v 0.865579 1.000000 0.134421
v 1.000000 0.865579 0.134421
v 0.865579 0.865579 0.000000
vn -0.0000 -0.0000 1.0000
vn 1.0000 -0.0000 -0.0000
vn -0.0000 -1.0000 -0.0000
vn -0.0000 1.0000 -0.0000
vn -1.0000 -0.0000 -0.0000
vn -0.0000 -0.0000 -1.0000
vn -0.5774 -0.5774 0.5774
vn -0.5774 0.5774 0.5774
vn -0.5774 -0.5774 -0.5774
vn -0.5774 0.5774 -0.5774
vn 0.5774 -0.5774 0.5774
vn 0.5774 0.5774 0.5774
vn 0.5774 -0.5774 -0.5774
vn 0.5774 0.5774 -0.5774
vn -0.7071 -0.7071 -0.0000
vn -0.7071 -0.0000 0.7071
vn -0.7071 0.7071 -0.0000
vn -0.7071 -0.0000 -0.7071
vn -0.0000 -0.7071 -0.7071
vn -0.0000 0.7071 -0.7071
vn 0.7071 -0.0000 -0.7071
vn 0.7071 -0.7071 -0.0000
vn 0.7071 0.7071 -0.0000
vn 0.7071 -0.0000 0.7071
vn -0.0000 -0.7071 0.7071
vn -0.0000 0.7071 0.7071
vt 0.591395 0.783605
vt 0.408605 0.966395
vt 0.408605 0.783605
vt 0.591395 0.533605
vt 0.408605 0.716395
vt 0.408605 0.533605
vt 0.341395 0.533605
vt 0.158605 0.716395
vt 0.158605 0.533605
vt 0.841395 0.533605
vt 0.658605 0.716395
vt 0.658605 0.533605
vt 0.591395 0.033605
vt 0.408605 0.216395
vt 0.408605 0.033605
vt 0.591395 0.283605
vt 0.408605 0.466395
vt 0.408605 0.283605
vt 0.158605 0.750000
vt 0.125000 0.716395
vt 0.591395 0.000000
vt 0.625000 0.033605
vt 0.125000 0.533605
vt 0.158605 0.500000
vt 0.625000 0.216395
vt 0.591395 0.250000
vt 0.591395 0.216395
vt 0.341395 0.716395
vt 0.375000 0.716395
vt 0.341395 0.750000
vt 0.625000 0.783605
vt 0.591395 0.750000
vt 0.341395 0.500000
vt 0.375000 0.533605
vt 0.625000 0.466395
vt 0.591395 0.500000
vt 0.591395 0.466395
vt 0.408605 0.000000
vt 0.625000 0.283605
vt 0.591395 0.716395
vt 0.625000 0.966395
vt 0.591395 0.966395
vt 0.841395 0.716395
s 0
f 17/1/1 2/2/1 15/3/1
f 23/4/2 14/5/2 21/6/2
f 43/7/3 25/8/3 31/9/3
f 10/10/4 16/11/4 22/12/4
f 6/13/5 8/14/5 3/15/5
f 11/16/6 20/17/6 9/18/6
f 41/1/1 26/2/1 39/3/1
f 47/4/2 38/5/2 45/6/2
f 34/10/4 40/11/4 46/12/4
f 30/13/5 32/14/5 27/15/5
f 35/16/6 44/17/6 33/18/6
f 1/8/7 2/19/7 3/20/7
f 4/21/8 5/22/8 6/13/8
f 7/9/9 8/23/9 9/24/9
f 10/25/10 11/26/10 12/27/10
f 13/28/11 14/29/11 15/30/11
f 16/31/12 17/1/12 18/32/12
f 19/7/13 20/33/13 21/34/13
f 22/35/14 23/36/14 24/37/14
f 25/8/7 26/19/7 27/20/7
f 28/21/8 29/22/8 30/13/8
f 31/9/9 32/23/9 33/24/9
f 34/25/10 35/26/10 36/27/10
f 37/28/11 38/29/11 39/30/11
f 40/31/12 41/1/12 42/32/12
f 43/7/13 44/33/13 45/34/13
f 46/35/14 47/36/14 48/37/14
f 1/8/15 8/23/15 7/9/15
f 4/21/16 3/15/16 2/38/16
f 10/25/17 6/13/17 5/22/17
f 9/18/18 12/27/18 11/16/18
f 7/9/19 20/33/19 19/7/19
f 22/35/20 11/16/20 10/39/20
f 21/6/21 24/37/21 23/4/21
f 19/7/22 14/5/22 13/28/22
f 16/11/23 23/4/23 22/12/23
f 15/3/24 18/40/24 17/1/24
f 13/28/25 2/19/25 1/8/25
f 5/41/26 17/1/26 16/31/26
f 25/8/15 32/23/15 31/9/15
f 28/21/16 27/15/16 26/38/16
f 34/25/17 30/13/17 29/22/17
f 33/18/18 36/27/18 35/16/18
f 31/9/19 44/33/19 43/7/19
f 46/35/20 35/16/20 34/39/20
f 45/6/21 48/37/21 47/4/21
f 43/7/22 38/5/22 37/28/22
f 40/11/23 47/4/23 46/12/23
f 39/3/24 42/40/24 41/1/24
f 37/28/25 26/19/25 25/8/25
f 29/41/26 41/1/26 40/31/26
f 19/7/3 1/8/3 7/9/3
f 17/1/1 4/42/1 2/2/1
f 23/4/2 18/40/2 14/5/2
f 43/7/3 37/28/3 25/8/3
f 10/10/4 5/43/4 16/11/4
f 6/13/5 12/27/5 8/14/5
f 11/16/6 24/37/6 20/17/6
f 41/1/1 28/42/1 26/2/1
f 47/4/2 42/40/2 38/5/2
f 34/10/4 29/43/4 40/11/4
f 30/13/5 36/27/5 32/14/5
f 35/16/6 48/37/6 44/17/6
f 1/8/15 3/20/15 8/23/15
f 4/21/16 6/13/16 3/15/16
f 10/25/17 12/27/17 6/13/17
f 9/18/18 8/14/18 12/27/18
f 7/9/19 9/24/19 20/33/19
f 22/35/20 24/37/20 11/16/20
f 21/6/21 20/17/21 24/37/21
f 19/7/22 21/6/22 14/5/22
f 16/11/23 18/40/23 23/4/23
f 15/3/24 14/5/24 18/40/24
f 13/28/25 15/30/25 2/19/25
f 5/41/26 4/42/26 17/1/26
f 25/8/15 27/20/15 32/23/15
f 28/21/16 30/13/16 27/15/16
f 34/25/17 36/27/17 30/13/17
f 33/18/18 32/14/18 36/27/18
f 31/9/19 33/24/19 44/33/19
f 46/35/20 48/37/20 35/16/20
f 45/6/21 44/17/21 48/37/21
f 43/7/22 45/6/22 38/5/22
f 40/11/23 42/40/23 47/4/23
f 39/3/24 38/5/24 42/40/24
f 37/28/25 39/30/25 26/19/25
f 29/41/26 28/42/26 41/1/26
f 19/7/3 13/28/3 1/8/3
