# Blender 4.5.0
# www.blender.org
mtllib viaduct_speed.mtl
o Cube.001
v 0.006250 0.000000 0.697672
v 0.302328 0.000000 0.993750
v 0.302328 1.000000 0.993750
v 0.006250 1.000000 0.697672
v 0.697672 0.000000 0.993750
v 0.697672 1.000000 0.993750
v 0.006250 0.000000 0.302328
v 0.006250 1.000000 0.302327
v 0.993750 1.000000 0.302327
v 0.993750 1.000000 0.697672
v 0.993750 0.000000 0.697672
v 0.993750 0.000000 0.302328
v 0.302328 1.000000 0.006250
v 0.302328 0.000000 0.006250
v 0.697672 0.000000 0.006250
v 0.697672 1.000000 0.006250
v 0.055625 0.350000 0.677905
v 0.055625 0.650000 0.677905
v 0.322095 0.350000 0.944375
v 0.322095 0.650000 0.944375
v 0.677905 0.350000 0.944375
v 0.677905 0.650000 0.944375
v 0.055625 0.350000 0.322095
v 0.055625 0.650000 0.322094
v 0.944375 0.650000 0.322094
v 0.944375 0.350000 0.322095
v 0.944375 0.650000 0.677905
v 0.944375 0.350000 0.677905
v 0.322095 0.650000 0.055625
v 0.322095 0.350000 0.055625
v 0.677905 0.350000 0.055625
v 0.677905 0.650000 0.055625
v 0.011187 0.351500 0.676126
v 0.011187 0.648500 0.676126
v 0.323874 0.351500 0.988813
v 0.323874 0.648500 0.988812
v 0.676126 0.351500 0.988813
v 0.676126 0.648500 0.988812
v 0.011187 0.351500 0.323874
v 0.011187 0.648500 0.323873
v 0.988813 0.648500 0.323873
v 0.988813 0.351500 0.323874
v 0.988813 0.648500 0.676126
v 0.988813 0.351500 0.676126
v 0.323874 0.648500 0.011187
v 0.323874 0.351500 0.011187
v 0.676126 0.351500 0.011187
v 0.676126 0.648500 0.011187
v 0.006250 0.000000 0.697672
v 0.302328 0.000000 0.993750
v 0.302328 1.000000 0.993750
v 0.006250 1.000000 0.697672
v 0.697672 0.000000 0.993750
v 0.697672 1.000000 0.993750
v 0.006250 0.000000 0.302328
v 0.006250 1.000000 0.302327
v 0.993750 1.000000 0.302327
v 0.993750 1.000000 0.697672
v 0.993750 0.000000 0.697672
v 0.993750 0.000000 0.302328
v 0.302328 1.000000 0.006250
v 0.302328 0.000000 0.006250
v 0.697672 0.000000 0.006250
v 0.697672 1.000000 0.006250
v 0.055625 0.350000 0.677905
v 0.055625 0.650000 0.677905
v 0.322095 0.350000 0.944375
v 0.322095 0.650000 0.944375
v 0.677905 0.350000 0.944375
v 0.677905 0.650000 0.944375
v 0.055625 0.350000 0.322095
v 0.055625 0.650000 0.322094
v 0.944375 0.650000 0.322094
v 0.944375 0.350000 0.322095
v 0.944375 0.650000 0.677905
v 0.944375 0.350000 0.677905
v 0.322095 0.650000 0.055625
v 0.322095 0.350000 0.055625
v 0.677905 0.350000 0.055625
v 0.677905 0.650000 0.055625
v 0.011187 0.351500 0.676126
v 0.011187 0.648500 0.676126
v 0.323874 0.351500 0.988813
v 0.323874 0.648500 0.988812
v 0.676126 0.351500 0.988813
v 0.676126 0.648500 0.988812
v 0.011187 0.351500 0.323874
v 0.011187 0.648500 0.323873
v 0.988813 0.648500 0.323873
v 0.988813 0.351500 0.323874
v 0.988813 0.648500 0.676126
v 0.988813 0.351500 0.676126
v 0.323874 0.648500 0.011187
v 0.323874 0.351500 0.011187
v 0.676126 0.351500 0.011187
v 0.676126 0.648500 0.011187
vn -0.7003 -0.1383 0.7003
vn -0.0000 -0.1397 0.9902
vn -0.9902 -0.1397 -0.0000
vn 0.9902 0.1397 -0.0000
vn -0.7003 0.1383 -0.7003
vn 0.7003 -0.1383 -0.7003
vn 0.7003 0.1383 0.7003
vn -0.0000 0.1397 -0.9902
vn -0.0000 -0.1397 -0.9902
vn -0.0351 0.9988 0.0351
vn -0.6416 0.4205 0.6416
vn 0.7003 -0.1383 0.7003
vn -0.0000 0.9994 -0.0337
vn -0.0000 0.7038 -0.7104
vn 0.7003 0.1383 -0.7003
vn -0.0351 -0.9988 -0.0351
vn -0.6416 -0.4205 -0.6416
vn -0.7003 -0.1383 -0.7003
vn -0.0351 -0.9988 0.0351
vn -0.6416 -0.4205 0.6416
vn 0.9902 -0.1397 -0.0000
vn -0.0351 0.9988 -0.0351
vn -0.6416 0.4205 -0.6416
vn -0.9902 0.1397 -0.0000
vn -0.0000 0.9994 0.0337
vn -0.0000 0.7038 0.7104
vn -0.0000 0.1397 0.9902
vn 0.0351 0.9988 -0.0351
vn 0.6416 0.4205 -0.6416
vn -0.7003 0.1383 0.7003
vn -0.0000 -0.9994 0.0337
vn -0.0000 -0.7038 0.7104
vn -0.0000 -0.7038 -0.7104
vn 0.6416 0.4205 0.6416
vn 0.6416 -0.4205 0.6416
vn 0.6416 -0.4205 -0.6416
vn 0.7104 0.7038 -0.0000
vn 0.7104 -0.7038 -0.0000
vn -0.7104 -0.7038 -0.0000
vn -0.7104 0.7038 -0.0000
vn 0.0337 0.9994 -0.0000
vn -0.0000 -0.9994 -0.0337
vn 0.0337 -0.9994 -0.0000
vn 0.0351 0.9988 0.0351
vn -0.0337 -0.9994 -0.0000
vn 0.0351 -0.9988 0.0351
vn -0.0337 0.9994 -0.0000
vn 0.0351 -0.9988 -0.0351
vn -0.0000 -0.0000 1.0000
vn -0.7071 -0.0000 0.7071
vn -1.0000 -0.0000 -0.0000
vn -0.7071 -0.0000 -0.7071
vn -0.0000 -0.0000 -1.0000
vn 0.7071 -0.0000 -0.7071
vn 1.0000 -0.0000 -0.0000
vn 0.7071 -0.0000 0.7071
vt 0.110110 0.001001
vt 0.001001 0.001001
vt 0.001001 0.110110
vt 0.110110 0.110110
vt 0.110110 0.112112
vt 0.001001 0.112112
vt 0.001001 0.221221
vt 0.110110 0.221221
vt 0.221221 0.001001
vt 0.112112 0.001001
vt 0.112112 0.110110
vt 0.221221 0.110110
vt 0.221221 0.112112
vt 0.112112 0.112112
vt 0.112112 0.221221
vt 0.221221 0.221221
vt 0.110110 0.223223
vt 0.001001 0.223223
vt 0.001001 0.332332
vt 0.110110 0.332332
vt 0.332332 0.001001
vt 0.223223 0.001001
vt 0.223223 0.110110
vt 0.332332 0.110110
vt 0.332332 0.112112
vt 0.223223 0.112112
vt 0.223223 0.221221
vt 0.332332 0.221221
vt 0.221221 0.223223
vt 0.112112 0.223223
vt 0.112112 0.332332
vt 0.221221 0.332332
vt 0.332332 0.223223
vt 0.223223 0.223223
vt 0.223223 0.332332
vt 0.332332 0.332332
vt 0.998999 0.887888
vt 0.998999 0.778779
vt 0.945445 0.778779
vt 0.945445 0.887888
vt 0.443443 0.001001
vt 0.334334 0.001001
vt 0.334334 0.110110
vt 0.443443 0.110110
vt 0.667668 0.998999
vt 0.776777 0.998999
vt 0.776777 0.945445
vt 0.667668 0.945445
vt 0.443443 0.112112
vt 0.334334 0.112112
vt 0.334334 0.221221
vt 0.443443 0.221221
vt 0.998999 0.776777
vt 0.998999 0.667668
vt 0.945445 0.667668
vt 0.945445 0.776777
vt 0.443443 0.223223
vt 0.334334 0.223223
vt 0.334334 0.332332
vt 0.443443 0.332332
vt 0.556557 0.998999
vt 0.665666 0.998999
vt 0.665666 0.945445
vt 0.556557 0.945445
vt 0.110110 0.445445
vt 0.001001 0.445445
vt 0.001001 0.554555
vt 0.110110 0.554555
vt 0.998999 0.665666
vt 0.998999 0.556557
vt 0.945445 0.556557
vt 0.945445 0.665666
vt 0.554555 0.112112
vt 0.445445 0.112112
vt 0.445445 0.221221
vt 0.554555 0.221221
vt 0.445445 0.998999
vt 0.554555 0.998999
vt 0.554555 0.945445
vt 0.445445 0.945445
vt 0.332332 0.445445
vt 0.223223 0.445445
vt 0.223223 0.554555
vt 0.332332 0.554555
vt 0.998999 0.554555
vt 0.998999 0.445445
vt 0.945445 0.445445
vt 0.945445 0.554555
vt 0.554555 0.334334
vt 0.445445 0.334334
vt 0.445445 0.443443
vt 0.554555 0.443443
vt 0.778779 0.943443
vt 0.887888 0.943443
vt 0.887888 0.889890
vt 0.778779 0.889890
vt 0.554555 0.445445
vt 0.445445 0.445445
vt 0.445445 0.554555
vt 0.554555 0.554555
vt 0.665666 0.001001
vt 0.556557 0.001001
vt 0.556557 0.110110
vt 0.665666 0.110110
vt 0.110110 0.556557
vt 0.001001 0.556557
vt 0.001001 0.665666
vt 0.110110 0.665666
vt 0.665666 0.112112
vt 0.556557 0.112112
vt 0.556557 0.221221
vt 0.665666 0.221221
vt 0.221221 0.556557
vt 0.112112 0.556557
vt 0.112112 0.665666
vt 0.221221 0.665666
vt 0.332332 0.556557
vt 0.223223 0.556557
vt 0.223223 0.665666
vt 0.332332 0.665666
vt 0.665666 0.223223
vt 0.556557 0.223223
vt 0.556557 0.332332
vt 0.665666 0.332332
vt 0.443443 0.556557
vt 0.334334 0.556557
vt 0.334334 0.665666
vt 0.443443 0.665666
vt 0.943443 0.887888
vt 0.943443 0.778779
vt 0.889890 0.778779
vt 0.889890 0.887888
vt 0.667668 0.943443
vt 0.776777 0.943443
vt 0.776777 0.889890
vt 0.667668 0.889890
vt 0.943443 0.776777
vt 0.943443 0.667668
vt 0.889890 0.667668
vt 0.889890 0.776777
vt 0.556557 0.943443
vt 0.665666 0.943443
vt 0.665666 0.889890
vt 0.556557 0.889890
vt 0.943443 0.665666
vt 0.943443 0.556557
vt 0.889890 0.556557
vt 0.889890 0.665666
vt 0.445445 0.943443
vt 0.554555 0.943443
vt 0.554555 0.889890
vt 0.445445 0.889890
vt 0.943443 0.554555
vt 0.943443 0.445445
vt 0.889890 0.445445
vt 0.889890 0.554555
vt 0.223223 0.943443
vt 0.332332 0.943443
vt 0.332332 0.889890
vt 0.223223 0.889890
vt 0.332332 0.667668
vt 0.223223 0.667668
vt 0.223223 0.776777
vt 0.332332 0.776777
vt 0.776777 0.223223
vt 0.667668 0.223223
vt 0.667668 0.332332
vt 0.776777 0.332332
vt 0.776777 0.334334
vt 0.667668 0.334334
vt 0.667668 0.443443
vt 0.776777 0.443443
vt 0.443443 0.667668
vt 0.334334 0.667668
vt 0.334334 0.776777
vt 0.443443 0.776777
vt 0.776777 0.445445
vt 0.667668 0.445445
vt 0.667668 0.554555
vt 0.776777 0.554555
vt 0.554555 0.667668
vt 0.445445 0.667668
vt 0.445445 0.776777
vt 0.554555 0.776777
vt 0.776777 0.556557
vt 0.667668 0.556557
vt 0.667668 0.665666
vt 0.776777 0.665666
vt 0.665666 0.667668
vt 0.556557 0.667668
vt 0.556557 0.776777
vt 0.665666 0.776777
vt 0.776777 0.667668
vt 0.667668 0.667668
vt 0.667668 0.776777
vt 0.776777 0.776777
vt 0.887888 0.001001
vt 0.778779 0.001001
vt 0.778779 0.110110
vt 0.887888 0.110110
vt 0.110110 0.778779
vt 0.001001 0.778779
vt 0.001001 0.887888
vt 0.110110 0.887888
vt 0.887888 0.112112
vt 0.778779 0.112112
vt 0.778779 0.221221
vt 0.887888 0.221221
vt 0.221221 0.778779
vt 0.112112 0.778779
vt 0.112112 0.887888
vt 0.221221 0.887888
vt 0.887888 0.223223
vt 0.778779 0.223223
vt 0.778779 0.332332
vt 0.887888 0.332332
vt 0.332332 0.778779
vt 0.223223 0.778779
vt 0.223223 0.887888
vt 0.332332 0.887888
vt 0.443443 0.778779
vt 0.334334 0.778779
vt 0.334334 0.887888
vt 0.443443 0.887888
vt 0.887888 0.334334
vt 0.778779 0.334334
vt 0.778779 0.443443
vt 0.887888 0.443443
vt 0.943443 0.223223
vt 0.889890 0.223223
vt 0.889890 0.332332
vt 0.943443 0.332332
vt 0.554555 0.778779
vt 0.445445 0.778779
vt 0.445445 0.887888
vt 0.554555 0.887888
vt 0.110110 0.943443
vt 0.110110 0.889890
vt 0.001001 0.889890
vt 0.001001 0.943443
vt 0.887888 0.556557
vt 0.778779 0.556557
vt 0.778779 0.665666
vt 0.887888 0.665666
vt 0.943443 0.001001
vt 0.889890 0.001001
vt 0.889890 0.110110
vt 0.943443 0.110110
vt 0.887888 0.667668
vt 0.778779 0.667668
vt 0.778779 0.776777
vt 0.887888 0.776777
vt 0.887888 0.998999
vt 0.887888 0.945445
vt 0.778779 0.945445
vt 0.778779 0.998999
vt 0.776777 0.778779
vt 0.667668 0.778779
vt 0.667668 0.887888
vt 0.776777 0.887888
vt 0.943443 0.112112
vt 0.889890 0.112112
vt 0.889890 0.221221
vt 0.943443 0.221221
vt 0.665666 0.778779
vt 0.556557 0.778779
vt 0.556557 0.887888
vt 0.665666 0.887888
vt 0.221221 0.943443
vt 0.221221 0.889890
vt 0.112112 0.889890
vt 0.112112 0.943443
vt 0.887888 0.445445
vt 0.778779 0.445445
vt 0.778779 0.554555
vt 0.887888 0.554555
vt 0.943443 0.334334
vt 0.889890 0.334334
vt 0.889890 0.443443
vt 0.943443 0.443443
vt 0.221221 0.667668
vt 0.112112 0.667668
vt 0.112112 0.776777
vt 0.221221 0.776777
vt 0.443443 0.943443
vt 0.443443 0.889890
vt 0.334334 0.889890
vt 0.334334 0.943443
vt 0.776777 0.112112
vt 0.667668 0.112112
vt 0.667668 0.221221
vt 0.776777 0.221221
vt 0.110110 0.667668
vt 0.001001 0.667668
vt 0.001001 0.776777
vt 0.110110 0.776777
vt 0.776777 0.001001
vt 0.667668 0.001001
vt 0.667668 0.110110
vt 0.776777 0.110110
vt 0.665666 0.556557
vt 0.556557 0.556557
vt 0.556557 0.665666
vt 0.665666 0.665666
vt 0.665666 0.445445
vt 0.556557 0.445445
vt 0.556557 0.554555
vt 0.665666 0.554555
vt 0.554555 0.556557
vt 0.445445 0.556557
vt 0.445445 0.665666
vt 0.554555 0.665666
vt 0.665666 0.334334
vt 0.556557 0.334334
vt 0.556557 0.443443
vt 0.665666 0.443443
vt 0.443443 0.445445
vt 0.334334 0.445445
vt 0.334334 0.554555
vt 0.443443 0.554555
vt 0.998999 0.001001
vt 0.945445 0.001001
vt 0.945445 0.110110
vt 0.998999 0.110110
vt 0.110110 0.998999
vt 0.110110 0.945445
vt 0.001001 0.945445
vt 0.001001 0.998999
vt 0.998999 0.112112
vt 0.945445 0.112112
vt 0.945445 0.221221
vt 0.998999 0.221221
vt 0.221221 0.998999
vt 0.221221 0.945445
vt 0.112112 0.945445
vt 0.112112 0.998999
vt 0.998999 0.223223
vt 0.945445 0.223223
vt 0.945445 0.332332
vt 0.998999 0.332332
vt 0.332332 0.998999
vt 0.332332 0.945445
vt 0.223223 0.945445
vt 0.223223 0.998999
vt 0.998999 0.334334
vt 0.945445 0.334334
vt 0.945445 0.443443
vt 0.998999 0.443443
vt 0.443443 0.998999
vt 0.443443 0.945445
vt 0.334334 0.945445
vt 0.334334 0.998999
vt 0.554555 0.223223
vt 0.445445 0.223223
vt 0.445445 0.332332
vt 0.554555 0.332332
vt 0.221221 0.445445
vt 0.112112 0.445445
vt 0.112112 0.554555
vt 0.221221 0.554555
vt 0.554555 0.001001
vt 0.445445 0.001001
vt 0.445445 0.110110
vt 0.554555 0.110110
vt 0.443443 0.334334
vt 0.334334 0.334334
vt 0.334334 0.443443
vt 0.443443 0.443443
vt 0.332332 0.334334
vt 0.223223 0.334334
vt 0.223223 0.443443
vt 0.332332 0.443443
vt 0.221221 0.334334
vt 0.112112 0.334334
vt 0.112112 0.443443
vt 0.221221 0.443443
vt 0.110110 0.334334
vt 0.001001 0.334334
vt 0.001001 0.443443
vt 0.110110 0.443443
vt 0.887888 0.778779
vt 0.778779 0.778779
vt 0.778779 0.887888
vt 0.887888 0.887888
s 1
usemtl m_f27d1936-c483-b96f-661c-1c1f9903ab0a.001
f 18/1/1 20/2/1 3/3/1 4/4/1
f 22/5/2 6/6/2 3/7/2 20/8/2
f 24/9/3 18/10/3 4/11/3 8/12/3
f 26/13/4 28/14/4 11/15/4 12/16/4
f 23/17/5 30/18/5 14/19/5 7/20/5
f 25/21/6 32/22/6 16/23/6 9/24/6
f 28/25/7 21/26/7 5/27/7 11/28/7
f 31/29/8 15/30/8 14/31/8 30/32/8
f 16/33/9 32/34/9 29/35/9 13/36/9
f 20/37/10 18/38/10 34/39/11 36/40/11
f 10/41/12 6/42/12 22/43/12 27/44/12
f 29/45/13 32/46/13 48/47/14 45/48/14
f 12/49/15 15/50/15 31/51/15 26/52/15
f 30/53/16 23/54/16 39/55/17 46/56/17
f 8/57/18 13/58/18 29/59/18 24/60/18
f 17/61/19 19/62/19 35/63/20 33/64/20
f 9/65/21 10/66/21 27/67/21 25/68/21
f 24/69/22 29/70/22 45/71/23 40/72/23
f 7/73/24 1/74/24 17/75/24 23/76/24
f 22/77/25 20/78/25 36/79/26 38/80/26
f 5/81/27 21/82/27 19/83/27 2/84/27
f 32/85/28 25/86/28 41/87/29 48/88/29
f 1/89/30 2/90/30 19/91/30 17/92/30
f 19/93/31 21/94/31 37/95/32 35/96/32
f 48/97/14 47/98/33 46/99/33 45/100/14
f 43/101/34 38/102/34 37/103/35 44/104/35
f 42/105/36 47/106/36 48/107/29 41/108/29
f 40/109/23 45/110/23 46/111/17 39/112/17
f 41/113/37 43/114/37 44/115/38 42/116/38
f 39/117/39 33/118/39 34/119/40 40/120/40
f 37/121/32 38/122/26 36/123/26 35/124/32
f 33/125/20 35/126/20 36/127/11 34/128/11
f 25/129/41 27/130/41 43/131/37 41/132/37
f 31/133/42 30/134/42 46/135/33 47/136/33
f 28/137/43 26/138/43 42/139/38 44/140/38
f 27/141/44 22/142/44 38/143/34 43/144/34
f 23/145/45 17/146/45 33/147/39 39/148/39
f 21/149/46 28/150/46 44/151/35 37/152/35
f 18/153/47 24/154/47 40/155/40 34/156/40
f 26/157/48 31/158/48 47/159/36 42/160/36
f 29/161/49 30/162/49 31/163/49 32/164/49
s 0
f 32/165/50 31/166/50 26/167/50 25/168/50
f 28/169/51 27/170/51 25/171/51 26/172/51
f 21/173/52 22/174/52 27/175/52 28/176/52
f 22/177/53 21/178/53 19/179/53 20/180/53
f 20/181/54 19/182/54 17/183/54 18/184/54
f 18/185/55 17/186/55 23/187/55 24/188/55
f 30/189/56 29/190/56 24/191/56 23/192/56
s 1
f 66/193/15 52/194/15 51/195/15 68/196/15
f 70/197/8 68/198/8 51/199/8 54/200/8
f 72/201/4 56/202/4 52/203/4 66/204/4
f 74/205/3 60/206/3 59/207/3 76/208/3
f 71/209/12 55/210/12 62/211/12 78/212/12
f 73/213/30 57/214/30 64/215/30 80/216/30
f 76/217/18 59/218/18 53/219/18 69/220/18
f 79/221/2 78/222/2 62/223/2 63/224/2
f 64/225/27 61/226/27 77/227/27 80/228/27
f 68/229/48 84/230/36 82/231/36 66/232/48
f 58/233/5 75/234/5 70/235/5 54/236/5
f 77/237/31 93/238/32 96/239/32 80/240/31
f 60/241/1 74/242/1 79/243/1 63/244/1
f 78/245/44 94/246/34 87/247/34 71/248/44
f 56/249/7 72/250/7 77/251/7 61/252/7
f 65/253/28 81/254/29 83/255/29 67/256/28
f 57/257/24 73/258/24 75/259/24 58/260/24
f 72/261/46 88/262/35 93/263/35 77/264/46
f 55/265/21 71/266/21 65/267/21 49/268/21
f 70/269/42 86/270/33 84/271/33 68/272/42
f 53/273/9 50/274/9 67/275/9 69/276/9
f 80/277/19 96/278/20 89/279/20 73/280/19
f 49/281/6 65/282/6 67/283/6 50/284/6
f 67/285/13 83/286/14 85/287/14 69/288/13
f 96/289/32 93/290/32 94/291/26 95/292/26
f 91/293/17 92/294/23 85/295/23 86/296/17
f 90/297/11 89/298/20 96/299/20 95/300/11
f 88/301/35 87/302/34 94/303/34 93/304/35
f 89/305/39 90/306/40 92/307/40 91/308/39
f 87/309/37 88/310/38 82/311/38 81/312/37
f 85/313/14 83/314/14 84/315/33 86/316/33
f 81/317/29 82/318/36 84/319/36 83/320/29
f 73/321/45 89/322/39 91/323/39 75/324/45
f 79/325/25 95/326/26 94/327/26 78/328/25
f 76/329/47 92/330/40 90/331/40 74/332/47
f 75/333/16 91/334/17 86/335/17 70/336/16
f 71/337/41 87/338/37 81/339/37 65/340/41
f 69/341/22 85/342/23 92/343/23 76/344/22
f 66/345/43 82/346/38 88/347/38 72/348/43
f 74/349/10 90/350/11 95/351/11 79/352/10
f 77/353/53 80/354/53 79/355/53 78/356/53
s 0
f 80/357/54 73/358/54 74/359/54 79/360/54
f 76/361/55 74/362/55 73/363/55 75/364/55
f 69/365/56 76/366/56 75/367/56 70/368/56
f 70/369/49 68/370/49 67/371/49 69/372/49
f 68/373/50 66/374/50 65/375/50 67/376/50
f 66/377/51 72/378/51 71/379/51 65/380/51
f 78/381/52 71/382/52 72/383/52 77/384/52
